<?xml version="1.0" encoding="utf-8"?>
<!-- Generator: Adobe Illustrator 22.1.0, SVG Export Plug-In . SVG Version: 6.00 Build 0)  -->
<svg version="1.1" id="Layer_1" xmlns="http://www.w3.org/2000/svg" xmlns:xlink="http://www.w3.org/1999/xlink" x="0px" y="0px"
	 viewBox="0 0 796 142" style="enable-background:new 0 0 796 142;" xml:space="preserve">
<style type="text/css">
	.st0{fill:#FFFFFF;}
	.st1{fill:#51BDBC;}
</style>
<title>Artboard 3</title>
<path class="st0" d="M121.6,127.6V16c0-1.1,0.9-2,2-2h69.2c1.1,0,2,0.9,2,2v21c0,1.1-0.9,2-2,2h-40.1c-1.1,0-2,0.8-2,1.9
	c0,1,0.2,2,0.6,2.9c0.1,0.2,0.1,0.5,0.1,0.8c-0.3,9.7-2,12.1,1.1,12c8.1-0.1,16.2,0,24.3,0h14.5c1.1,0,2,0.9,2,2v19.3
	c0,1.1-0.9,2-2,2h-42.8c-1.1,0-2,0.9-2,2v4.9c0,4.2,0.1,8.4,0,12.7c-0.1,1.8,0.4,2.4,2.4,2.4c14.5-0.1,29,0,43.5,0h0.5
	c1.1,0,2,0.9,2,2v19.3c-0.4,0-0.3,0.1-0.1,0.1c0.3-0.7,0.7-1.3,1-2C211,86.1,226.3,51,241.5,15.8c0.8-1.8,1.7-2.5,3.7-2.4
	c7.3,0.1,14.6,0.1,21.9,0c1.1-0.1,2.1,0.5,2.5,1.5c16,36.8,32,73.6,48,110.4l0,0c0.4,1-0.1,2.2-1.1,2.6c-0.2,0.1-0.4,0.1-0.7,0.1
	H310c-6.1-0.5-12.2-0.5-18.2-0.4c-0.8,0-1.5-0.5-1.8-1.2c-3-7.1-6.1-14.2-9-21.3c-0.3-1.2-1.5-2.1-2.8-1.9
	c-15.3,0.1-30.6,0.1-45.9,0c-0.8,0-1.5,0.5-1.8,1.2c-3.1,7.3-6.3,14.5-9.4,21.7c-0.4,0.9-0.8,1.5-2,1.5c-32.3,0-64.6,0-96.9,0
	C121.9,127.7,121.7,127.6,121.6,127.6z M267.8,75.6c-3.5-8.1-7-16-10.6-24.1c-0.5-1-1.7-1.4-2.7-1c-0.4,0.2-0.8,0.5-1,1
	c-3.6,8.2-7,16.1-10.5,24.1c-0.4,1,0.1,2.2,1.1,2.6c0.2,0.1,0.5,0.1,0.7,0.1h21.1c1.1,0,2-0.9,2-2C267.9,76.1,267.8,75.9,267.8,75.6
	z"/>
<path class="st0" d="M321.5,128.2c-1.4,0-2.5-1.1-2.5-2.4l0,0V16.6c0-2.7,0-2.7,2.7-2.7c12.8,0,25.5,0.1,38.2,0
	c13.6-0.1,26.2,3.1,37.2,11.3c14,10.5,21.6,24.6,22.5,42c1.5,26.8-11.4,47.7-40.9,60.3c-0.6,0.3-1.3,0.4-1.9,0.4
	C358.4,128.3,339.9,128.2,321.5,128.2z M343.9,102.4c4.7,0,9.3,0.1,13.9,0c3.2,0.1,6.3-0.1,9.5-0.5c15.6-2.7,25.1-12.8,26.6-28.6
	c1.4-15.3-5.8-27.3-22.9-34c-9-0.7-17.9-0.4-27-0.4L343.9,102.4z"/>
<path class="st0" d="M14.8,16.3c0-1.2,1-2.2,2.2-2.3l0,0c12.9,0,25.7,0,38.6,0c22.6,0,42.4,8.7,56.3,34.5c0.1,0.2,0.2,0.3,0.2,0.5
	c6.5,23.8,3.4,44.5-11.6,61c-10.3,11.2-23.4,16.8-38.6,18c-0.5,0-1.3,0.1-1.8,0.1c-14.3,0.1-28.6,0-42.9,0H17c-1.2,0-2.3-1-2.3-2.3
	L14.8,16.3z M39.6,99.6c0,1.2,1,2.3,2.3,2.3h15.2c18,0,30.6-11.3,32.5-29.1c2-16.9-10.1-32.2-27-34.2c-0.5-0.1-1.1-0.1-1.6-0.1
	C54.2,38,47.3,38.1,40.4,38c-0.3,0-0.5,0.1-0.8,0.2L39.6,99.6z"/>
<path class="st0" d="M777.6,14.9L722,61.6c-0.8,0.7-0.9,2-0.2,2.8l0.1,0.1L785,128h-2.5c0,0-22.4,0.5-32.6,0.5c-0.5,0-1-0.2-1.4-0.6
	c-15.5-15.7-31-31.4-46.5-47.1l-0.2-0.2c-0.7-0.8-1.9-0.9-2.7-0.2c-3,2.3-5.8,4.9-8.5,7.5c-0.1,0.1-0.3,0.3-0.5,0.4
	c-2.5,1.3-3.4,2.2-3.4,4.1c0,11.2,0,22.4,0.5,33.7v1.2c0,1.1-0.9,2-2,2H664c-1.1,0-2-0.9-2-2V126c0-36.5,0-73,0-109.6
	c0-1.6,0.5-2,2.1-2c7.1,0.1,14.1,0,21.2,0l0,0c1.1,0,2,0.9,2,2v41.2c0.6-0.5,1-0.7,1.4-1c16.1-13.5,32.2-27,48.2-40.5
	c1.2-1.1,2.9-1.7,4.5-1.6c11.4,0.1,22.8,0,34.3,0h1.8L777.6,14.9z"/>
<path class="st0" d="M585.5,123.5c-5.4,3.1-11.2,5.3-17.2,6.6c-34.2,7.5-66.5-14.4-72.6-48.8C491.3,55.6,504,30,527,17.8
	c18.8-9.8,37.8-9.5,56.7,0c0.6,0.3,1.1,0.6,1.8,1l0.2,0.1c-2.8,1.9-5.4,3.7-7.9,5.6c-4.3,3.3-8,7.3-11,11.8
	c-0.2,0.4-0.6,0.8-1.1,0.9c-0.4,0.1-0.9,0.1-1.3-0.1c-18.8-4.9-38,6.3-42.9,25.1c-0.3,1.2-0.6,2.4-0.7,3.6
	c-3.2,20.4,12.5,39.5,33,40.3c3.9,0.1,7.9-0.3,11.7-1.5C570.6,112.4,577.5,118.9,585.5,123.5z"/>
<path class="st0" d="M605.7,104.7c-1.4-0.4-2.7-0.9-4.1-1.4c-6.8-2.9-12.4-7.9-16.1-14.3c2.9-4.9,4.6-10.4,4.9-16.1
	c0.4-6.3-1.1-12.6-4.2-18.1c-0.3-0.5-0.5-1.2-0.4-1.8c0.1-0.4,0.3-0.8,0.5-1.2c3.8-5.6,9.1-9.9,15.2-12.6c0.5-0.2,1-0.4,1.5-0.6
	c0.3-0.1,0.6-0.3,0.9-0.4c0.2-0.1,0.4-0.1,0.6-0.2c0.7-0.2,1.2,0,1.8,0.9C619.2,59,618.9,84.8,605.7,104.7z"/>
<path class="st0" d="M585.8,19.2c-2.8,1.9-5.4,3.7-7.9,5.6c-4.3,3.3-8,7.3-11,11.8c-0.5,0.9-1.5,1.3-2.4,0.8
	c-18.8-4.9-38,6.3-42.9,25.1c-0.3,1.2-0.5,2.3-0.7,3.5c-3.2,20.4,12.5,39.5,33.1,40.3c19.3,0.8,35.7-14.1,36.7-33.4
	c0.4-6.3-1.1-12.6-4.2-18.1c-1.8-3.2,2-3.5,9.4-14.4c7.7-0.5,9.1-4.2,10.8-1.5c22.2,35.4,3.2,82.2-38.1,91.2
	c-34.2,7.5-66.5-14.4-72.6-48.8c-4.4-25.7,8.2-51.3,31.3-63.5c18.8-9.8,37.8-9.5,56.7,0C584.4,18.3,585,18.7,585.8,19.2z"/>
<path class="st1" d="M585.5,88.9c-4.5,7.6-11.7,13.3-20.2,15.8c-8.9-13.5-12.1-29.9-8.8-45.7c1.5-7.8,4.6-15.2,9.1-21.7
	c5.2-7.6,12-13.9,19.9-18.5c7.1-4.1,15-6.7,23.2-7.6c16.7-1.8,31.2,2.3,43.6,11.9l-16.7,19.2c-9.1-6.3-20.6-7.9-31-4.3
	c-0.5,0.2-1,0.3-1.5,0.5s-1,0.4-1.5,0.6c-6.5,2.9-12,7.7-15.8,13.8c-0.2,0.3-0.3,0.5-0.5,0.8C579.1,64.6,579.2,78,585.5,88.9z"/>
<path class="st1" d="M658.6,113.8c-13.6,13.7-32.9,20.1-52,17c-7.4-1.1-14.5-3.6-21.1-7.3c8.1-4.6,15-11.1,20.1-18.8
	c11.8,3.5,24.6,0.7,33.7-7.6L658.6,113.8z"/>
<path class="st1" d="M478.6,121.4c1.4,0,2.5,0.7,2.5,1.6v4c0,0.9-1.1,1.6-2.5,1.6h-13.7v4c0,0.9-1.1,1.6-2.5,1.6h-14.9
	c-1.4,0-2.5-0.7-2.5-1.6v-25h-0.3c-1.4,0-2.5-0.7-2.5-1.6l0,0c0-0.9,1.1-1.6,2.5-1.6h0.3v-44l10.4,6.4l9.5-5.8v43.6h0.7
	c1.4,0,2.5,0.7,2.5,1.6l0,0c0,0.9-1.1,1.6-2.5,1.6h-0.7v3.6h13.7c1.4,0,2.5,0.7,2.5,1.6v4c0,0.9-1.1,1.6-2.5,1.6h-3.7v2.8H478.6z"/>
<path class="st1" d="M422,13.8l67.8,0.1c1.4,0,2.5,0.7,2.5,1.6v23.9c0,0.1,0,0.3-0.1,0.4l-26,15.9l-1.3,0.8l0,0l-9.5,5.8L445,56l0,0
	l-24.7-15.4c-0.4-0.2-0.7-0.7-0.8-1.2v-24C419.5,14.6,420.7,13.8,422,13.8z M432.9,29.9h45.4c3.3,0,5.9-1.7,5.9-3.8
	s-2.6-3.8-5.9-3.8H433c-3.3,0-5.9,1.7-5.9,3.8S429.7,29.9,432.9,29.9L432.9,29.9z"/>
</svg>
