<?xml version="1.0" encoding="UTF-8" standalone="no"?>
<svg width="820px" height="795px" viewBox="0 0 820 795" version="1.1" xmlns="http://www.w3.org/2000/svg" xmlns:xlink="http://www.w3.org/1999/xlink" xmlns:sketch="http://www.bohemiancoding.com/sketch/ns">
    <!-- Generator: Sketch 3.3.3 (12072) - http://www.bohemiancoding.com/sketch -->
    <title>milky-way</title>
    <desc>Created with Sketch.</desc>
    <defs>
        <path d="M143.158516,570.999461 L286.251288,570.999461 L214.704902,856.379862 L143.158516,1141.76026 L71.6121307,856.379862 L0.0613491221,570.999461 L143.158516,570.999461 L143.158516,570.999461 Z M143.158516,570.999461 L0.0613491221,570.999461 L71.6121307,285.619059 L143.158516,0.238658127 L286.251288,570.999461 L143.158516,570.999461 L143.158516,570.999461 Z" id="path-1"></path>
    </defs>
    <g id="Page-1" stroke="none" stroke-width="1" fill="none" fill-rule="evenodd" sketch:type="MSPage">
        <g id="milky-way" sketch:type="MSLayerGroup" transform="translate(-100.000000, -103.000000)">
            <g id="square-8" transform="translate(510.074197, 500.452104) rotate(45.883303) translate(-510.074197, -500.452104) translate(366.881889, -70.627638)">
                <mask id="mask-2" sketch:name="Shape" fill="white">
                    <use xlink:href="#path-1"></use>
                </mask>
                <use id="Shape" opacity="0.116929" fill="#36F8C9" sketch:type="MSShapeGroup" xlink:href="#path-1"></use>
            </g>
            <path d="M505.072731,503.452104 L342.20487,503.452104 L423.638801,378.948966 L505.072731,254.445828 L586.506662,378.948966 L667.943523,503.452104 L505.072731,503.452104 L505.072731,503.452104 Z M505.072731,503.452104 L667.943523,503.452104 L586.506662,627.955242 L505.072731,752.458381 L423.638801,627.955242 L342.20487,503.452104 L505.072731,503.452104 L505.072731,503.452104 Z" id="Shape" fill="#36F8C9" sketch:type="MSShapeGroup" transform="translate(505.074197, 503.452104) rotate(45.883332) translate(-505.074197, -503.452104) "></path>
            <g id="square-6" transform="translate(589.482609, 421.410208) rotate(45.883332) translate(-589.482609, -421.410208) translate(462.823269, 227.876073)" fill="#36F8C9" opacity="0.5" sketch:type="MSShapeGroup">
                <path d="M126.828925,193.56536 L0.366579615,193.56536 L63.5992177,96.8923351 L126.828925,0.219310249 L253.294201,193.56536 L126.828925,193.56536 L126.828925,193.56536 Z M126.828925,193.56536 L253.294201,193.56536 L190.061563,290.238385 L126.828925,386.911409 L63.5992177,290.238385 L0.366579615,193.56536 L126.828925,193.56536 L126.828925,193.56536 Z" id="Shape"></path>
            </g>
            <g id="square-5" transform="translate(694.329068, 320.195962) rotate(45.883332) translate(-694.329068, -320.195962) translate(598.493903, 173.995066)" fill="#36F8C9" opacity="0.5" sketch:type="MSShapeGroup">
                <path d="M95.7196697,146.052522 L0.310898305,146.052522 L48.015284,73.1171195 L95.7196697,0.181716477 L191.131372,146.052522 L95.7196697,146.052522 L95.7196697,146.052522 Z M95.7196697,146.052522 L191.131372,146.052522 L143.424055,218.987925 L95.7196697,291.923328 L48.015284,218.987925 L0.310898305,146.052522 L95.7196697,146.052522 L95.7196697,146.052522 Z" id="Shape"></path>
            </g>
            <g id="square-4" transform="translate(415.625797, 589.878137) rotate(45.883332) translate(-415.625797, -589.878137) translate(288.966456, 396.344001)" fill="#36F8C9" opacity="0.5" sketch:type="MSShapeGroup">
                <path d="M126.600004,193.43172 L253.062349,193.43172 L189.829711,290.104745 L126.600004,386.77777 L63.3673656,290.104745 L0.134727564,193.43172 L126.600004,193.43172 L126.600004,193.43172 Z M126.600004,193.43172 L0.134727564,193.43172 L63.3673656,96.7586955 L126.600004,0.0856706478 L253.062349,193.43172 L126.600004,193.43172 L126.600004,193.43172 Z" id="Shape"></path>
            </g>
            <g id="square-3" transform="translate(310.966637, 691.344636) rotate(45.883332) translate(-310.966637, -691.344636) translate(215.411692, 545.423819)" fill="#36F8C9" opacity="0.5" sketch:type="MSShapeGroup">
                <path d="M95.4691153,145.956799 L190.877887,145.956799 L143.173501,218.892202 L95.4691153,291.827605 L47.7647296,218.892202 L0.0574129891,145.956799 L95.4691153,145.956799 L95.4691153,145.956799 Z M95.4691153,145.956799 L0.0574129891,145.956799 L47.7647296,73.0213959 L95.4691153,0.0859929588 L190.877887,145.956799 L95.4691153,145.956799 L95.4691153,145.956799 Z" id="Shape"></path>
            </g>
            <g id="square-2" transform="translate(245.100438, 757.279655) rotate(45.883247) translate(-245.100438, -757.279655) translate(168.039999, 639.646751)" fill="#67FAD6" sketch:type="MSShapeGroup">
                <path d="M77.0262025,117.581967 L153.66523,117.581967 L115.345716,176.168806 L77.0262025,234.755646 L38.7066889,176.168806 L0.384820884,117.581967 L77.0262025,117.581967 L77.0262025,117.581967 Z M77.0262025,117.581967 L0.384820884,117.581967 L38.7066889,58.9951282 L77.0262025,0.408289124 L153.66523,117.581967 L77.0262025,117.581967 L77.0262025,117.581967 Z" id="Shape"></path>
            </g>
            <g id="square-1" transform="translate(767.329230, 251.486735) rotate(45.883247) translate(-767.329230, -251.486735) translate(690.268790, 133.853830)" fill="#67FAD6" opacity="0.5" sketch:type="MSShapeGroup">
                <path d="M77.0262025,117.581967 L153.66523,117.581967 L115.345716,176.168806 L77.0262025,234.755646 L38.7066889,176.168806 L0.384820884,117.581967 L77.0262025,117.581967 Z M77.0262025,117.581967 L0.384820884,117.581967 L38.7066889,58.9951282 L77.0262025,0.408289124 L153.66523,117.581967 L77.0262025,117.581967 Z" id="Shape"></path>
            </g>
            <path d="M683.932697,330.112464 L618.658301,619.812059 L326.218697,676.790077 L683.932697,330.112464 L683.932697,330.112464 Z" id="Shape" fill="#68FFEB" sketch:type="MSShapeGroup"></path>
            <path d="M326.779746,676.227773 L312.895947,737.846587 L250.694336,749.965755 L326.779746,676.227773 L326.779746,676.227773 Z" id="Shape" fill="#68FFEB" sketch:type="MSShapeGroup" transform="translate(288.737041, 713.096764) rotate(180.000000) translate(-288.737041, -713.096764) "></path>
            <path d="M760.021944,256.374652 L746.138145,317.993466 L683.936533,330.112633 L760.021944,256.374652 L760.021944,256.374652 Z" id="Shape" fill="#68FFEB" sketch:type="MSShapeGroup" transform="translate(721.979239, 293.243643) rotate(180.000000) translate(-721.979239, -293.243643) "></path>
            <path d="M760.021944,256.374652 L746.138145,317.993466 L683.936533,330.112633 L760.021944,256.374652 L760.021944,256.374652 Z" id="Shape" fill="#68FFEB" sketch:type="MSShapeGroup" transform="translate(721.979239, 293.243643) rotate(180.000000) translate(-721.979239, -293.243643) "></path>
            <g id="square-inner" transform="translate(494.248924, 513.987944) rotate(-44.000000) translate(-494.248924, -513.987944) translate(363.946726, 449.289847)" sketch:type="MSShapeGroup">
                <path d="M260.519953,64.5913581 L0.0401500472,64.5913581 L130.280052,0.165085027 L260.519953,64.5913581 Z" id="Triangle-1" fill="#62FBE0"></path>
                <path d="M260.519953,129.009377 L0.0401500472,129.009377 L130.280052,64.5831041 L260.519953,129.009377 Z" id="Triangle-1-Copy-2" fill="#94FFF4" transform="translate(130.280052, 96.796241) rotate(-180.000000) translate(-130.280052, -96.796241) "></path>
            </g>
        </g>
    </g>
</svg>
