<?xml version="1.0" encoding="UTF-8" standalone="no"?>
<svg width="308px" height="308px" viewBox="0 0 308 308" version="1.1" xmlns="http://www.w3.org/2000/svg" xmlns:xlink="http://www.w3.org/1999/xlink" xmlns:sketch="http://www.bohemiancoding.com/sketch/ns">
    <!-- Generator: Sketch 3.4 (15575) - http://www.bohemiancoding.com/sketch -->
    <title>social-humans</title>
    <desc>Created with Sketch.</desc>
    <defs>
        <linearGradient x1="23.6416597%" y1="91.7143269%" x2="83.9523326%" y2="14.0399724%" id="linearGradient-1">
            <stop stop-color="#4C436C" offset="0%"></stop>
            <stop stop-color="#784376" offset="100%"></stop>
        </linearGradient>
        <filter x="-50%" y="-50%" width="200%" height="200%" filterUnits="objectBoundingBox" id="filter-2">
            <feOffset dx="0" dy="2" in="SourceAlpha" result="shadowOffsetOuter1"></feOffset>
            <feGaussianBlur stdDeviation="2" in="shadowOffsetOuter1" result="shadowBlurOuter1"></feGaussianBlur>
            <feColorMatrix values="0 0 0 0 0   0 0 0 0 0   0 0 0 0 0  0 0 0 0.35 0" in="shadowBlurOuter1" type="matrix" result="shadowMatrixOuter1"></feColorMatrix>
            <feMerge>
                <feMergeNode in="shadowMatrixOuter1"></feMergeNode>
                <feMergeNode in="SourceGraphic"></feMergeNode>
            </feMerge>
        </filter>
        <filter x="-50%" y="-50%" width="200%" height="200%" filterUnits="objectBoundingBox" id="filter-3">
            <feOffset dx="0" dy="2" in="SourceAlpha" result="shadowOffsetOuter1"></feOffset>
            <feGaussianBlur stdDeviation="2" in="shadowOffsetOuter1" result="shadowBlurOuter1"></feGaussianBlur>
            <feColorMatrix values="0 0 0 0 0   0 0 0 0 0   0 0 0 0 0  0 0 0 0.35 0" in="shadowBlurOuter1" type="matrix" result="shadowMatrixOuter1"></feColorMatrix>
            <feMerge>
                <feMergeNode in="shadowMatrixOuter1"></feMergeNode>
                <feMergeNode in="SourceGraphic"></feMergeNode>
            </feMerge>
        </filter>
        <filter x="-50%" y="-50%" width="200%" height="200%" filterUnits="objectBoundingBox" id="filter-4">
            <feOffset dx="0" dy="2" in="SourceAlpha" result="shadowOffsetOuter1"></feOffset>
            <feGaussianBlur stdDeviation="2" in="shadowOffsetOuter1" result="shadowBlurOuter1"></feGaussianBlur>
            <feColorMatrix values="0 0 0 0 0   0 0 0 0 0   0 0 0 0 0  0 0 0 0.35 0" in="shadowBlurOuter1" type="matrix" result="shadowMatrixOuter1"></feColorMatrix>
            <feMerge>
                <feMergeNode in="shadowMatrixOuter1"></feMergeNode>
                <feMergeNode in="SourceGraphic"></feMergeNode>
            </feMerge>
        </filter>
        <linearGradient x1="50%" y1="0%" x2="50%" y2="100%" id="linearGradient-5">
            <stop stop-color="#FFFFFF" offset="0%"></stop>
            <stop stop-color="#FFFFFF" stop-opacity="0" offset="100%"></stop>
        </linearGradient>
        <filter x="-50%" y="-50%" width="200%" height="200%" filterUnits="objectBoundingBox" id="filter-6">
            <feOffset dx="0" dy="2" in="SourceAlpha" result="shadowOffsetOuter1"></feOffset>
            <feGaussianBlur stdDeviation="2" in="shadowOffsetOuter1" result="shadowBlurOuter1"></feGaussianBlur>
            <feColorMatrix values="0 0 0 0 0   0 0 0 0 0   0 0 0 0 0  0 0 0 0.35 0" in="shadowBlurOuter1" type="matrix" result="shadowMatrixOuter1"></feColorMatrix>
            <feMerge>
                <feMergeNode in="shadowMatrixOuter1"></feMergeNode>
                <feMergeNode in="SourceGraphic"></feMergeNode>
            </feMerge>
        </filter>
        <polygon id="path-7" points="81.28125 186.869611 75.2380829 190.431988 76.7893537 183.635355 71.5032002 179.040393 78.5051054 178.40222 81.28125 172 84.0573946 178.40222 91.0592998 179.040393 85.7731463 183.635355 87.3244171 190.431988 "></polygon>
        <polygon id="path-8" points="105.78125 186.869611 99.7380829 190.431988 101.289354 183.635355 96.0032002 179.040393 103.005105 178.40222 105.78125 172 108.557395 178.40222 115.5593 179.040393 110.273146 183.635355 111.824417 190.431988 "></polygon>
        <polygon id="path-9" points="130.28125 186.869611 124.238083 190.431988 125.789354 183.635355 120.5032 179.040393 127.505105 178.40222 130.28125 172 133.057395 178.40222 140.0593 179.040393 134.773146 183.635355 136.324417 190.431988 "></polygon>
    </defs>
    <g id="Page-1" stroke="none" stroke-width="1" fill="none" fill-rule="evenodd" sketch:type="MSPage">
        <g id="social-humans" sketch:type="MSLayerGroup">
            <g id="Imported-Layers-Copy-13-+-Path-8499-+-Group-Copy-6-Copy-Copy" fill="url(#linearGradient-1)" sketch:type="MSShapeGroup">
                <g id="Imported-Layers-Copy-13">
                    <path d="M307.321883,153.825528 C307.321883,238.543034 238.542058,307.322928 153.824552,307.322928 C69.1070314,307.322928 0.32716961,238.543034 0.32716961,153.825528 C0.32716961,69.108023 69.1070314,0.328198134 153.824552,0.328198134 C238.542058,0.328198134 307.321883,69.108023 307.321883,153.825528 Z" id="Fill-1"></path>
                </g>
            </g>
            <rect id="Rectangle-63-Copy-3" fill="#FFFFFF" filter="url(#filter-2)" sketch:type="MSShapeGroup" x="61" y="57" width="88" height="90"></rect>
            <rect id="Rectangle-63-Copy-7" fill="#FFFFFF" filter="url(#filter-3)" sketch:type="MSShapeGroup" x="160" y="111" width="88" height="93"></rect>
            <rect id="Rectangle-63-Copy-8" fill="#FFFFFF" filter="url(#filter-4)" sketch:type="MSShapeGroup" x="61" y="158" width="88" height="46"></rect>
            <rect id="Rectangle-63-Copy-9" opacity="0.565823228" fill="url(#linearGradient-5)" sketch:type="MSShapeGroup" x="61" y="213" width="56" height="46"></rect>
            <rect id="Rectangle-63-Copy-10" opacity="0.565823228" fill="url(#linearGradient-5)" sketch:type="MSShapeGroup" x="125" y="213" width="123" height="46"></rect>
            <rect id="Rectangle-63-Copy-11" fill="#FFFFFF" filter="url(#filter-6)" sketch:type="MSShapeGroup" x="160" y="57" width="88" height="46"></rect>
            <ellipse id="Oval-58-Copy-2" fill="#4C436C" sketch:type="MSShapeGroup" cx="105.349868" cy="84.6445168" rx="11.3498684" ry="11.6445168"></ellipse>
            <path d="M124.834732,118.434431 C124.834732,107.148806 115.917424,98 104.917366,98 C93.9173086,98 85,107.148806 85,118.434431 C85,119.251808 124.834732,119.251808 124.834732,118.434431 Z" id="Oval-58-Copy-3" fill="#4C436C" sketch:type="MSShapeGroup"></path>
            <rect id="Rectangle-68-Copy-5" fill="#C6C3D0" sketch:type="MSShapeGroup" x="171" y="173" width="66" height="8"></rect>
            <rect id="Rectangle-68-Copy-6" fill="#C6C3D0" sketch:type="MSShapeGroup" x="171" y="185" width="66" height="8"></rect>
            <rect id="Rectangle-68-Copy-7" fill="#C6C3D0" sketch:type="MSShapeGroup" x="72" y="128" width="66" height="8"></rect>
            <rect id="Rectangle-68-Copy-8" fill="#C6C3D0" sketch:type="MSShapeGroup" x="171" y="69" width="66" height="8"></rect>
            <rect id="Rectangle-68-Copy-9" fill="#C6C3D0" sketch:type="MSShapeGroup" x="171" y="83" width="66" height="8"></rect>
            <path d="M226.987949,130.50361 C225.255399,131.26576 223.403363,131.780458 221.451755,132.018011 C223.443192,130.830246 224.976598,128.949617 225.693515,126.712659 C223.831522,127.811342 221.770385,128.613084 219.569848,129.0387 C217.807426,127.167969 215.298216,126 212.530119,126 C207.203026,126 202.891565,130.295751 202.891565,135.591205 C202.891565,136.343457 202.971222,137.075912 203.140495,137.778673 C195.124962,137.382751 188.015533,133.562106 183.265956,127.751954 C182.43951,129.167374 181.961565,130.820348 181.961565,132.572302 C181.961565,135.898045 183.674201,138.837764 186.263068,140.560024 C184.669919,140.520431 183.176342,140.084917 181.881908,139.36236 L181.881908,139.481137 C181.881908,144.133218 185.207607,148.003353 189.618639,148.884279 C188.812107,149.102036 187.95579,149.220813 187.079558,149.220813 C186.462212,149.220813 185.854824,149.161424 185.26735,149.042648 C186.492084,152.853395 190.056755,155.624847 194.278601,155.704032 C190.982773,158.277523 186.820671,159.81172 182.300109,159.81172 C181.523449,159.81172 180.756746,159.76223 180,159.673148 C184.251717,162.424804 189.319924,164.008491 194.756546,164.008491 C212.510204,164.008491 222.208501,149.389079 222.208501,136.709684 C222.208501,136.293966 222.198544,135.878249 222.17863,135.472429 C224.060537,134.116397 225.693515,132.433729 226.987949,130.50361 L226.987949,130.50361 Z" id="Shape" fill="#4C436C" sketch:type="MSShapeGroup"></path>
            <g id="Star-1">
                <use fill="#D8D8D8" sketch:type="MSShapeGroup" xlink:href="#path-7"></use>
                <use fill="#4C436C" xlink:href="#path-7"></use>
            </g>
            <g id="Star-1-Copy">
                <use fill="#D8D8D8" sketch:type="MSShapeGroup" xlink:href="#path-8"></use>
                <use fill="#4C436C" xlink:href="#path-8"></use>
            </g>
            <g id="Star-1-Copy-2">
                <use fill="#D8D8D8" sketch:type="MSShapeGroup" xlink:href="#path-9"></use>
                <use fill="#4C436C" xlink:href="#path-9"></use>
            </g>
        </g>
    </g>
</svg>
