<svg xmlns="http://www.w3.org/2000/svg" xmlns:xlink="http://www.w3.org/1999/xlink" width="100%" height="100%" data-0="transform: translate3d(0px,0px,0)" data-1400="transform: translate3d(0px,140px,0)" version="1.1" viewBox="0 0 1172 708"><g id="root"><g class="tile"><path fill="#2B2743" d="M100,44.01L75,87.31L25,87.31L0,44.01L25,0.71L75,0.71L100,44.01Z" transform="matrix(1,0,0,1,-321.622,-925.41) matrix(1,0,0,1,406.658,1214.5)"/></g><g class="tile"><path fill="#2C374B" d="M100,44.01L75,87.31L25,87.31L0,44.01L25,0.71L75,0.71L100,44.01Z" transform="matrix(1,0,0,1,-321.622,-925.41) matrix(1,0,0,1,576.658,1310.02)"/></g><g class="tile"><path fill="#255C61" d="M100,44.01L75,87.31L25,87.31L0,44.01L25,0.71L75,0.71L100,44.01Z" transform="matrix(1,0,0,1,-321.622,-925.41) matrix(1,0,0,1,576.658,1214.5)"/></g><g class="tile"><path fill="#255C61" d="M100,44.01L75,87.31L25,87.31L0,44.01L25,0.71L75,0.71L100,44.01Z" transform="matrix(1,0,0,1,-321.622,-925.41) matrix(1,0,0,1,746.87,1213.33)"/></g><g class="tile"><path fill="#2C374B" d="M100,44.01L75,87.31L25,87.31L0,44.01L25,0.71L75,0.71L100,44.01Z" transform="matrix(1,0,0,1,-321.622,-925.41) matrix(1,0,0,1,746.87,1309.93)"/></g><g class="tile tile-disabled"><path fill="#219E87" d="M100,44.01L75,87.31L25,87.31L0,44.01L25,0.71L75,0.71L100,44.01Z" transform="matrix(1,0,0,1,-321.622,-925.41) matrix(1,1.13131e-24,1.13131e-24,1,576.658,1117.9)"/></g><g class="tile tile-disabled"><path fill="#255C61" d="M100,44.01L75,87.31L25,87.31L0,44.01L25,0.71L75,0.71L100,44.01Z" transform="matrix(1,0,0,1,-321.622,-925.41) matrix(1,1.13131e-24,1.13131e-24,1,746.87,1116.73)"/></g><g class="tile tile-disabled"><path fill="#255C61" d="M100,44.01L75,87.31L25,87.31L0,44.01L25,0.71L75,0.71L100,44.01Z" transform="matrix(1,0,0,1,-321.622,-925.41) matrix(1,1.13131e-24,1.13131e-24,1,916.923,1116.73)"/></g><g class="tile tile-disabled"><path fill="#2B2743" d="M100,44.01L75,87.31L25,87.31L0,44.01L25,0.71L75,0.71L100,44.01Z" transform="matrix(1,0,0,1,-321.622,-925.41) matrix(1,1.13131e-24,1.13131e-24,1,406.658,1021.3)"/></g><g class="tile tile-disabled"><path fill="#255C61" d="M100,44.01L75,87.31L25,87.31L0,44.01L25,0.71L75,0.71L100,44.01Z" transform="matrix(1,0,0,1,-321.622,-925.41) matrix(1,1.13131e-24,1.13131e-24,1,576.658,1021.3)"/></g><g class="tile"><path fill="#2C374B" d="M100,44.01L75,87.31L25,87.31L0,44.01L25,0.71L75,0.71L100,44.01Z" transform="matrix(1,0,0,1,-321.622,-925.41) matrix(1,1.13131e-24,1.13131e-24,1,576.658,924.7)"/></g><g class="tile"><path fill="#255C61" d="M100,44.01L75,87.31L25,87.31L0,44.01L25,0.71L75,0.71L100,44.01Z" transform="matrix(1,0,0,1,-321.622,-925.41) matrix(1,1.13131e-24,1.13131e-24,1,746.87,1020.13)"/></g><g class="tile"><path fill="#2C374B" d="M100,44.01L75,87.31L25,87.31L0,44.01L25,0.71L75,0.71L100,44.01Z" transform="matrix(1,0,0,1,-321.622,-925.41) matrix(1,1.13131e-24,1.13131e-24,1,916.923,1020.13)"/></g><g class="tile"><path fill="#2C374B" d="M100,44.01L75,87.31L25,87.31L0,44.01L25,0.71L75,0.71L100,44.01Z" transform="matrix(1,0,0,1,-321.622,-925.41) matrix(1,1.13131e-24,1.13131e-24,1,491.621,1168.7)"/></g><g class="tile"><path fill="#2C374B" d="M100,44.01L75,87.31L25,87.31L0,44.01L25,0.71L75,0.71L100,44.01Z" transform="matrix(1,0,0,1,-321.622,-925.41) matrix(1,1.13131e-24,1.13131e-24,1,321.622,1166.2)"/></g><g class="tile"><path fill="#219E87" d="M100,44.01L75,87.31L25,87.31L0,44.01L25,0.71L75,0.71L100,44.01Z" transform="matrix(1,0,0,1,-321.622,-925.41) matrix(1,1.13131e-24,1.13131e-24,1,831.864,1165.03)"/></g><g class="tile"><path fill="#219E87" d="M100,44.01L75,87.31L25,87.31L0,44.01L25,0.71L75,0.71L100,44.01Z" transform="matrix(1,0,0,1,-321.622,-925.41) matrix(1,1.13131e-24,1.13131e-24,1,661.843,1165.03)"/></g><g class="tile"><path fill="#2C374B" d="M100,44.01L75,87.31L25,87.31L0,44.01L25,0.71L75,0.71L100,44.01Z" transform="matrix(1,0,0,1,-321.622,-925.41) matrix(1,1.13131e-24,1.13131e-24,1,491.621,1265.3)"/></g><g class="tile"><path fill="#2C374B" d="M100,44.01L75,87.31L25,87.31L0,44.01L25,0.71L75,0.71L100,44.01Z" transform="matrix(1,0,0,1,-321.622,-925.41) matrix(1,1.13131e-24,1.13131e-24,1,831.864,1261.63)"/></g><g class="tile"><path fill="#255C61" d="M100,44.01L75,87.31L25,87.31L0,44.01L25,0.71L75,0.71L100,44.01Z" transform="matrix(1,0,0,1,-321.622,-925.41) matrix(1,1.13131e-24,1.13131e-24,1,661.843,1261.63)"/></g><g class="tile"><path fill="#2C374B" d="M100,44.01L75,87.31L25,87.31L0,44.01L25,0.71L75,0.71L100,44.01Z" transform="matrix(1,0,0,1,-321.622,-925.41) matrix(1,1.13131e-24,1.13131e-24,1,491.656,1072.1)"/></g><g class="tile"><path fill="#255C61" d="M100,44.01L75,87.31L25,87.31L0,44.01L25,0.71L75,0.71L100,44.01Z" transform="matrix(1,0,0,1,-321.622,-925.41) matrix(1,1.13131e-24,1.13131e-24,1,831.899,1068.43)"/></g><g class="tile"><path fill="#2B2743" d="M100,44.01L75,87.31L25,87.31L0,44.01L25,0.71L75,0.71L100,44.01Z" transform="matrix(1,0,0,1,-321.622,-925.41) matrix(1,1.13131e-24,1.13131e-24,1,1001.96,1068.43)"/></g><g class="tile"><path fill="#2C374B" d="M100,44.01L75,87.31L25,87.31L0,44.01L25,0.71L75,0.71L100,44.01Z" transform="matrix(1,0,0,1,-321.622,-925.41) matrix(1,1.13131e-24,1.13131e-24,1,831.899,971.833)"/></g><g class="tile"><path fill="#219E87" d="M100,44.01L75,87.31L25,87.31L0,44.01L25,0.71L75,0.71L100,44.01Z" transform="matrix(1,0,0,1,-321.622,-925.41) matrix(1,1.13131e-24,1.13131e-24,1,661.878,1068.43)"/></g><g class="tile"><path fill="#255C61" d="M100,44.01L75,87.31L25,87.31L0,44.01L25,0.71L75,0.71L100,44.01Z" transform="matrix(1,0,0,1,-321.622,-925.41) matrix(1,1.13131e-24,1.13131e-24,1,661.878,971.833)"/></g></g></svg>