<svg width="100%" height="100%" viewBox="0 0 1172 708" version="1.1" xmlns="http://www.w3.org/2000/svg" xmlns:xlink="http://www.w3.org/1999/xlink" data-0="transform: translate3d(0px,0px,0)" data-1400="transform: translate3d(0px,140px,0)">
    <g id="root" transform="matrix(1,0,0,1,-321.622,-925.41)">
        <g class="tile" transform="matrix(1,0,0,1,406.658,1214.5)">
            <path d="M100,44.01L75,87.31L25,87.31L0,44.01L25,0.71L75,0.71L100,44.01Z" style="fill:rgb(43,39,67);"/>
        </g>
        <g class="tile" transform="matrix(1,0,0,1,576.658,1310.02)">
            <path d="M100,44.01L75,87.31L25,87.31L0,44.01L25,0.71L75,0.71L100,44.01Z" style="fill:rgb(44,55,75);"/>
        </g>
        <g class="tile" transform="matrix(1,0,0,1,576.658,1214.5)">
            <path d="M100,44.01L75,87.31L25,87.31L0,44.01L25,0.71L75,0.71L100,44.01Z" style="fill:rgb(37,92,97);"/>
        </g>
        <g class="tile" transform="matrix(1,0,0,1,746.87,1213.33)">
            <path d="M100,44.01L75,87.31L25,87.31L0,44.01L25,0.71L75,0.71L100,44.01Z" style="fill:rgb(37,92,97);"/>
        </g>
        <g class="tile" transform="matrix(1,0,0,1,746.87,1309.93)">
            <path d="M100,44.01L75,87.31L25,87.31L0,44.01L25,0.71L75,0.71L100,44.01Z" style="fill:rgb(44,55,75);"/>
        </g>
        <g class="tile tile-disabled" transform="matrix(1,1.13131e-24,1.13131e-24,1,576.658,1117.9)">
            <path d="M100,44.01L75,87.31L25,87.31L0,44.01L25,0.71L75,0.71L100,44.01Z" style="fill:rgb(33,158,135);"/>
        </g>
        <g class="tile tile-disabled" transform="matrix(1,1.13131e-24,1.13131e-24,1,746.87,1116.73)">
            <path d="M100,44.01L75,87.31L25,87.31L0,44.01L25,0.71L75,0.71L100,44.01Z" style="fill:rgb(37,92,97);"/>
        </g>
        <g class="tile tile-disabled" transform="matrix(1,1.13131e-24,1.13131e-24,1,916.923,1116.73)">
            <path d="M100,44.01L75,87.31L25,87.31L0,44.01L25,0.71L75,0.71L100,44.01Z" style="fill:rgb(37,92,97);"/>
        </g>
        <g class="tile tile-disabled" transform="matrix(1,1.13131e-24,1.13131e-24,1,406.658,1021.3)">
            <path d="M100,44.01L75,87.31L25,87.31L0,44.01L25,0.71L75,0.71L100,44.01Z" style="fill:rgb(43,39,67);"/>
        </g>
        <g class="tile tile-disabled" transform="matrix(1,1.13131e-24,1.13131e-24,1,576.658,1021.3)">
            <path d="M100,44.01L75,87.31L25,87.31L0,44.01L25,0.71L75,0.71L100,44.01Z" style="fill:rgb(37,92,97);"/>
        </g>
        <g class="tile" transform="matrix(1,1.13131e-24,1.13131e-24,1,576.658,924.7)">
            <path d="M100,44.01L75,87.31L25,87.31L0,44.01L25,0.71L75,0.71L100,44.01Z" style="fill:rgb(44,55,75);"/>
        </g>
        <g class="tile" transform="matrix(1,1.13131e-24,1.13131e-24,1,746.87,1020.13)">
            <path d="M100,44.01L75,87.31L25,87.31L0,44.01L25,0.71L75,0.71L100,44.01Z" style="fill:rgb(37,92,97);"/>
        </g>
        <g class="tile" transform="matrix(1,1.13131e-24,1.13131e-24,1,916.923,1020.13)">
            <path d="M100,44.01L75,87.31L25,87.31L0,44.01L25,0.71L75,0.71L100,44.01Z" style="fill:rgb(44,55,75);"/>
        </g>
        <g class="tile" transform="matrix(1,1.13131e-24,1.13131e-24,1,491.621,1168.7)">
            <path d="M100,44.01L75,87.31L25,87.31L0,44.01L25,0.71L75,0.71L100,44.01Z" style="fill:rgb(44,55,75);"/>
        </g>
        <g class="tile" transform="matrix(1,1.13131e-24,1.13131e-24,1,321.622,1166.2)">
            <path d="M100,44.01L75,87.31L25,87.31L0,44.01L25,0.71L75,0.71L100,44.01Z" style="fill:rgb(44,55,75);"/>
        </g>
        <g class="tile" transform="matrix(1,1.13131e-24,1.13131e-24,1,831.864,1165.03)">
            <path d="M100,44.01L75,87.31L25,87.31L0,44.01L25,0.71L75,0.71L100,44.01Z" style="fill:rgb(33,158,135);"/>
        </g>
        <g class="tile" transform="matrix(1,1.13131e-24,1.13131e-24,1,661.843,1165.03)">
            <path d="M100,44.01L75,87.31L25,87.31L0,44.01L25,0.71L75,0.71L100,44.01Z" style="fill:rgb(33,158,135);"/>
        </g>
        <g class="tile" transform="matrix(1,1.13131e-24,1.13131e-24,1,491.621,1265.3)">
            <path d="M100,44.01L75,87.31L25,87.31L0,44.01L25,0.71L75,0.71L100,44.01Z" style="fill:rgb(44,55,75);"/>
        </g>
        <g class="tile" transform="matrix(1,1.13131e-24,1.13131e-24,1,831.864,1261.63)">
            <path d="M100,44.01L75,87.31L25,87.31L0,44.01L25,0.71L75,0.71L100,44.01Z" style="fill:rgb(44,55,75);"/>
        </g>
        <g class="tile" transform="matrix(1,1.13131e-24,1.13131e-24,1,661.843,1261.63)">
            <path d="M100,44.01L75,87.31L25,87.31L0,44.01L25,0.71L75,0.71L100,44.01Z" style="fill:rgb(37,92,97);"/>
        </g>
        <g class="tile" transform="matrix(1,1.13131e-24,1.13131e-24,1,491.656,1072.1)">
            <path d="M100,44.01L75,87.31L25,87.31L0,44.01L25,0.71L75,0.71L100,44.01Z" style="fill:rgb(44,55,75);"/>
        </g>
        <g class="tile" transform="matrix(1,1.13131e-24,1.13131e-24,1,831.899,1068.43)">
            <path d="M100,44.01L75,87.31L25,87.31L0,44.01L25,0.71L75,0.71L100,44.01Z" style="fill:rgb(37,92,97);"/>
        </g>
        <g class="tile" transform="matrix(1,1.13131e-24,1.13131e-24,1,1001.96,1068.43)">
            <path d="M100,44.01L75,87.31L25,87.31L0,44.01L25,0.71L75,0.71L100,44.01Z" style="fill:rgb(43,39,67);"/>
        </g>
        <g class="tile" transform="matrix(1,1.13131e-24,1.13131e-24,1,831.899,971.833)">
            <path d="M100,44.01L75,87.31L25,87.31L0,44.01L25,0.71L75,0.71L100,44.01Z" style="fill:rgb(44,55,75);"/>
        </g>
        <g class="tile" transform="matrix(1,1.13131e-24,1.13131e-24,1,661.878,1068.43)">
            <path d="M100,44.01L75,87.31L25,87.31L0,44.01L25,0.71L75,0.71L100,44.01Z" style="fill:rgb(33,158,135);"/>
        </g>
        <g class="tile" transform="matrix(1,1.13131e-24,1.13131e-24,1,661.878,971.833)">
            <path d="M100,44.01L75,87.31L25,87.31L0,44.01L25,0.71L75,0.71L100,44.01Z" style="fill:rgb(37,92,97);"/>
        </g>
    </g>
</svg>
