<?xml version="1.0" encoding="UTF-8"?>
<svg width="308px" height="308px" viewBox="0 0 308 308" version="1.1" xmlns="http://www.w3.org/2000/svg" xmlns:xlink="http://www.w3.org/1999/xlink">
    <!-- Generator: Sketch 49 (51002) - http://www.bohemiancoding.com/sketch -->
    <title>shape-photo</title>
    <desc>Created with Sketch.</desc>
    <defs>
        <linearGradient x1="100%" y1="50%" x2="0%" y2="50%" id="linearGradient-1">
            <stop stop-color="#4C436C" offset="0%"></stop>
            <stop stop-color="#794477" offset="100%"></stop>
        </linearGradient>
        <linearGradient x1="50%" y1="50%" x2="0.0644682522%" y2="65.8250009%" id="linearGradient-2">
            <stop stop-color="#6C4369" offset="0%"></stop>
            <stop stop-color="#4C436C" offset="100%"></stop>
        </linearGradient>
        <linearGradient x1="82.0186297%" y1="79.7469507%" x2="45.7071381%" y2="45.2052794%" id="linearGradient-3">
            <stop stop-color="#65FED6" stop-opacity="0.386265851" offset="0%"></stop>
            <stop stop-color="#4C436C" stop-opacity="0" offset="100%"></stop>
        </linearGradient>
        <linearGradient x1="50%" y1="0%" x2="50%" y2="100%" id="linearGradient-4">
            <stop stop-color="#FFFFFF" stop-opacity="0" offset="0%"></stop>
            <stop stop-color="#FFFFFF" offset="100%"></stop>
        </linearGradient>
    </defs>
    <g id="Page-1" stroke="none" stroke-width="1" fill="none" fill-rule="evenodd">
        <g id="shape-photo" transform="translate(0.000000, -19.000000)" fill-rule="nonzero">
            <path d="M307.321883,172.825528 C307.321883,257.543034 238.542058,326.322928 153.824552,326.322928 C69.1070314,326.322928 0.32716961,257.543034 0.32716961,172.825528 C0.32716961,88.108023 69.1070314,19.3281981 153.824552,19.3281981 C238.542058,19.3281981 307.321883,88.108023 307.321883,172.825528 Z" id="Mask" fill="url(#linearGradient-1)"></path>
            <g id="easel" transform="translate(121.000000, 269.000000)" fill="#2C1B3D">
                <rect id="Rectangle-838" x="0.5" y="0.23173166" width="68" height="12"></rect>
                <rect id="Rectangle-839" x="26.5" y="12.2317317" width="15" height="44.7682683"></rect>
            </g>
            <rect id="Rectangle-16" fill="#473856" x="155" y="281" width="8" height="45"></rect>
            <g id="camera-body" transform="translate(80.000000, 67.000000)">
                <rect id="Rectangle-820-Copy" fill="#5B5071" x="112.564885" y="23" width="12.259542" height="12.480663" rx="2"></rect>
                <rect id="Rectangle-821-Copy" fill="#2C1B3D" x="110.335878" y="26.7845304" width="16.7175573" height="4.4640884"></rect>
                <path d="M24.519084,185.259669 L8.00534331,185.259669 C3.58411428,185.259669 0,181.679411 0,177.250021 L0,39.2582663 C0,34.8346601 3.57275296,31.2486188 8.00534331,31.2486188 L46.8571531,31.2486188 L51.8342467,7.82441125 C52.7524221,3.50310824 57.074959,0 61.4955863,0 L85.6200516,0 C90.0376868,0 94.3631079,3.50260026 95.2813912,7.82441125 L100.258485,31.2486188 L137.994657,31.2486188 C142.415886,31.2486188 146,34.8288761 146,39.2582663 L146,177.250021 C146,181.673627 142.427247,185.259669 137.994657,185.259669 L122.59542,185.259669 L122.59542,193.99975 C122.59542,198.418166 119.017757,202 114.590225,202 L32.5242788,202 C28.1031318,202 24.519084,198.412758 24.519084,193.99975 L24.519084,185.259669 Z" id="Rectangle-814-Copy" fill="#FCFFFF"></path>
                <rect id="Rectangle-857" fill-opacity="0.196246603" fill="#58436B" x="0.13285199" y="61" width="146" height="12.480663"></rect>
                <rect id="Rectangle-857-Copy" fill-opacity="0.196246603" fill="#58436B" x="0" y="54" width="146" height="4.4640884"></rect>
                <rect id="Rectangle-840" fill="#8D8496" x="23.8244275" y="185" width="101" height="17.5"></rect>
                <polygon id="Rectangle-840-Copy" fill="#7B7483" points="23.8244275 185 124.824427 185 124.824427 193.75 23.8244275 193.75"></polygon>
                <g id="Oval-819-+-Oval-819-Copy-2" transform="translate(12.832061, 48.895028)">
                    <ellipse id="Oval-819-Copy-3" fill="#2C1B3D" opacity="0.923565765" cx="61.2824427" cy="58.801105" rx="58.7875574" ry="58.7749176"></ellipse>
                    <ellipse id="Oval-819" fill="#2C1B3D" cx="61.2824427" cy="58.801105" rx="55.7083331" ry="55.6963553"></ellipse>
                    <ellipse id="Oval-819-Copy-2" fill="#2C1B3D" opacity="0.0863456157" cx="61.2824427" cy="64.2247407" rx="60.4735503" ry="60.460548"></ellipse>
                    <ellipse id="Oval-819-Copy" fill="url(#linearGradient-2)" cx="61.2824427" cy="58.801105" rx="42.2818106" ry="42.2727196"></ellipse>
                    <ellipse id="Oval-819-Copy-4" fill="url(#linearGradient-3)" cx="61.2824427" cy="58.801105" rx="42.2818106" ry="42.2727196"></ellipse>
                </g>
                <circle id="Oval-834-Copy" fill-opacity="0.300000012" fill="#FFFFFF" opacity="0.290869869" cx="75.132852" cy="107.231732" r="21.0826528"></circle>
                <path d="M107.634154,107.781071 C107.634154,126.656473 92.3305794,141.980911 73.4808562,141.980911 C54.6311295,141.980911 73.4808563,126.656472 73.4808563,107.78107 C73.4808563,88.9056679 54.6311295,73.5812464 73.4808562,73.5812464 C92.3305794,73.5812464 107.634154,88.905669 107.634154,107.781071 Z" id="Fill-1-Copy-7" fill-opacity="0.143144248" fill="#FFFFFF"></path>
                <circle id="Oval-834" fill-opacity="0.300000012" fill="#FFFFFF" opacity="0.163421175" cx="59.5" cy="93.5" r="4.5"></circle>
                <path d="M118.735294,170.037885 L118.735294,177.75217 L120.035509,177.75217 L120.035509,173.894964 L121.335862,177.75217 L122.636216,177.75217 L122.636216,170.037885 L121.335862,170.037885 L121.335862,173.894964 L120.035509,170.037885 L118.735294,170.037885 Z M125.561941,170.037885 C124.484648,170.037885 123.611411,170.834901 123.611411,171.818036 L123.611411,176.083057 L123.631664,176.083057 C123.697417,177.012002 124.527651,177.75217 125.561941,177.75217 C126.596231,177.75217 127.426327,177.012002 127.49208,176.083057 L127.512333,176.083057 L127.512333,171.818036 C127.512333,170.834901 126.639234,170.037885 125.561941,170.037885 Z M130.438059,170.037885 C129.360766,170.037885 128.487667,170.834901 128.487667,171.818036 L128.487667,176.083057 L128.50792,176.083057 C128.573673,177.012002 129.403769,177.75217 130.438059,177.75217 C131.472349,177.75217 132.302444,177.012002 132.368197,176.083057 L132.388589,176.083057 L132.388589,171.818036 C132.388589,170.834901 131.515352,170.037885 130.438059,170.037885 Z M135.314176,170.037885 C134.236883,170.037885 133.363784,170.834901 133.363784,171.818036 L133.363784,176.083057 L133.384037,176.083057 C133.44979,177.012002 134.280024,177.75217 135.314176,177.75217 C136.348466,177.75217 137.1787,177.012002 137.244314,176.083057 L137.264706,176.083057 L137.264706,171.818036 C137.264706,170.834901 136.391469,170.037885 135.314176,170.037885 Z M125.561941,171.22461 C125.920947,171.22461 126.211979,171.490367 126.211979,171.818036 L126.211979,175.971892 C126.211979,176.299562 125.920947,176.565318 125.561941,176.565318 C125.202798,176.565318 124.911765,176.299562 124.911765,175.971892 L124.911765,171.818036 C124.911765,171.490367 125.202798,171.22461 125.561941,171.22461 Z M130.438059,171.22461 C130.797064,171.22461 131.088235,171.490367 131.088235,171.818036 L131.088235,175.971892 C131.088235,176.299562 130.797064,176.565318 130.438059,176.565318 C130.079053,176.565318 129.787882,176.299562 129.787882,175.971892 L129.787882,171.818036 C129.787882,171.490367 130.079053,171.22461 130.438059,171.22461 Z M135.314176,171.22461 C135.67332,171.22461 135.964491,171.490367 135.964491,171.818036 L135.964491,175.971892 C135.964491,176.299562 135.67332,176.565318 135.314176,176.565318 C134.955171,176.565318 134.664138,176.299562 134.664138,175.971892 L134.664138,171.818036 C134.664138,171.490367 134.955171,171.22461 135.314176,171.22461 Z" id="Imported-Layers-3-Copy-4" fill="#AFABB7"></path>
            </g>
            <circle id="ir" fill="#65FED6" cx="89.5" cy="108.5" r="4.5"></circle>
            <g id="viewfinder" transform="translate(143.000000, 79.000000)">
                <g id="mask-5" fill="#FFFFFF">
                    <rect id="path-4" x="0" y="0" width="20.0610687" height="20.0883978" rx="4"></rect>
                </g>
                <rect id="path-4" fill="#5B5071" x="0" y="0" width="20.0610687" height="20.0883978" rx="4"></rect>
                <path d="M19.6062079,2.1456771 L13.0755916,20.0883978 L9.08145824,20.0883978 L16.3882373,0.0131874431 C17.7888084,0.126565981 18.9855028,0.961433329 19.6062079,2.1456771 Z M10.0079705,7.10542736e-15 L2.80535179,19.7890322 L3.56302882,20.064804 C1.55945404,19.8471208 1.14063648e-15,18.1498743 8.8817842e-16,16.0883978 L0,4 C-2.705415e-16,1.790861 1.790861,7.51123961e-15 4,7.10542736e-15 L10.0079705,7.10542736e-15 Z" id="Combined-Shape" fill="#2C1B3D"></path>
            </g>
            <path d="M114.503487,149.50043 L114.235352,150.005991 L111.567205,150.180469 L111.559884,150.194273 L111.676615,150.245129 C111.899115,150.342502 112.098936,150.438164 112.276085,150.532118 L113.587438,151.22762 L113.388854,151.602046 L110.866225,150.26412 L111.131614,149.763735 L113.787578,149.587218 L113.793069,149.576865 C113.765391,149.565133 113.666613,149.51864 113.496732,149.437384 C113.326851,149.356127 113.195325,149.290791 113.102149,149.241374 L111.780444,148.540381 L111.980858,148.162504 L114.503487,149.50043 Z M115.081265,145.997033 C115.476516,146.241694 115.72258,146.53068 115.819464,146.863999 C115.916349,147.197318 115.852741,147.544991 115.628641,147.907027 C115.401799,148.273492 115.118782,148.487648 114.779584,148.5495 C114.440385,148.611352 114.070398,148.518236 113.669611,148.270149 C113.268825,148.022062 113.022207,147.732733 112.929751,147.402155 C112.837296,147.071577 112.904488,146.723061 113.13133,146.356596 C113.354745,145.995667 113.636496,145.784174 113.976591,145.722111 C114.316686,145.660048 114.684907,145.751688 115.081265,145.997033 Z M113.934039,147.850385 C114.232969,148.035422 114.497003,148.115401 114.72615,148.090325 C114.955297,148.065249 115.143197,147.934248 115.289856,147.697319 C115.43583,147.461498 115.469602,147.23624 115.391174,147.02154 C115.312745,146.80684 115.122409,146.605947 114.820158,146.418854 C114.522336,146.234502 114.259647,146.154206 114.032081,146.177964 C113.804516,146.201722 113.617749,146.33151 113.471775,146.567332 C113.32443,146.805368 113.290184,147.032629 113.369034,147.249121 C113.447884,147.465614 113.636218,147.666033 113.934039,147.850385 Z M117.049938,143.409952 C117.427377,143.681286 117.652927,143.986552 117.726595,144.325759 C117.800264,144.664966 117.712833,145.007424 117.464301,145.353145 C117.212728,145.703095 116.915617,145.897225 116.572961,145.935539 C116.230304,145.973853 115.867619,145.855445 115.484894,145.580311 C115.102169,145.305177 114.876091,144.999531 114.806651,144.663364 C114.737211,144.327197 114.828277,143.984144 115.079849,143.634194 C115.327622,143.289531 115.623287,143.09797 115.966852,143.059507 C116.310417,143.021044 116.671442,143.137858 117.049938,143.409952 Z M115.777639,145.179781 C116.063097,145.384991 116.320987,145.482987 116.551318,145.473773 C116.781649,145.464558 116.978135,145.346826 117.140784,145.120575 C117.302672,144.89538 117.351897,144.672988 117.288461,144.453391 C117.225024,144.233794 117.048994,144.020253 116.760365,143.812762 C116.475964,143.608312 116.219437,143.510093 115.990775,143.518102 C115.762113,143.526111 115.566841,143.642711 115.404952,143.867905 C115.241544,144.095214 115.191707,144.319572 115.255441,144.540987 C115.319175,144.762401 115.493239,144.97533 115.777639,145.179781 Z M119.198577,140.968831 C119.555926,141.266124 119.759371,141.586546 119.808918,141.930106 C119.858466,142.273666 119.747086,142.609101 119.474775,142.936421 C119.199133,143.267745 118.889064,143.440423 118.544558,143.454461 C118.200052,143.468498 117.846627,143.324791 117.484272,143.023334 C117.121918,142.721877 116.917972,142.401039 116.872429,142.06081 C116.826886,141.72058 116.941933,141.384809 117.217575,141.053485 C117.489053,140.727166 117.797499,140.556948 118.142922,140.542827 C118.488345,140.528705 118.840226,140.670705 119.198577,140.968831 Z M117.804553,142.644461 C118.074817,142.869305 118.325149,142.985256 118.555556,142.992319 C118.785963,142.999381 118.990268,142.895809 119.168477,142.6816 C119.345854,142.468391 119.41065,142.250027 119.362869,142.026501 C119.315088,141.802975 119.154566,141.577544 118.881299,141.350202 C118.612036,141.126191 118.363079,141.010114 118.134422,141.001966 C117.905765,140.993818 117.702751,141.096347 117.525374,141.309556 C117.346332,141.524766 117.280787,141.745048 117.328736,141.970408 C117.376686,142.195768 117.53529,142.42045 117.804553,142.644461 Z M121.532842,140.770542 L119.522404,138.742775 L119.853892,138.414119 L121.582429,140.157555 L122.440971,139.306351 L122.722872,139.590682 L121.532842,140.770542 Z M124.326986,138.216574 L123.124624,139.295142 L121.217893,137.169565 L122.420254,136.090997 L122.683701,136.384681 L121.828818,137.151547 L122.347887,137.730193 L123.148977,137.011582 L123.409816,137.302359 L122.608726,138.020969 L123.207351,138.688302 L124.062234,137.921436 L124.326986,138.216574 Z M126.685321,136.367241 L126.24034,136.727074 L123.717655,135.840782 L123.705505,135.850607 L123.792925,135.943183 C123.959385,136.120041 124.105655,136.286428 124.23174,136.44235 L125.165095,137.596567 L124.835535,137.863065 L123.040056,135.642714 L123.480481,135.286566 L125.99276,136.166202 L126.001872,136.158833 C125.981017,136.137184 125.908399,136.055665 125.784016,135.914274 C125.659634,135.772884 125.564286,135.661185 125.497968,135.579174 L124.557245,134.415844 L124.889842,134.146891 L126.685321,136.367241 Z M128.270596,134.420341 C128.415784,134.628642 128.454391,134.844567 128.386418,135.06812 C128.318446,135.291674 128.152003,135.495772 127.887087,135.680421 C127.62217,135.865071 127.376661,135.975087 127.150553,136.010474 L126.898151,135.648352 C127.039966,135.624102 127.18101,135.584518 127.321287,135.529598 C127.461563,135.474677 127.583508,135.411107 127.687125,135.338885 C127.838811,135.233159 127.930602,135.126327 127.962501,135.018386 C127.994399,134.910445 127.976472,134.807873 127.908717,134.710665 C127.847664,134.623072 127.762804,134.571913 127.654135,134.557187 C127.545467,134.542461 127.358481,134.565659 127.093172,134.626782 C126.819221,134.689167 126.599735,134.69534 126.434708,134.645299 C126.269681,134.595258 126.132817,134.49226 126.024113,134.336301 C125.887859,134.140818 125.850078,133.938602 125.910768,133.729648 C125.971457,133.520694 126.118769,133.334691 126.352708,133.171634 C126.577033,133.015277 126.834535,132.908805 127.125222,132.852214 L127.221227,133.249543 C126.951872,133.307137 126.73548,133.392892 126.572043,133.506808 C126.44813,133.593176 126.372929,133.685668 126.346436,133.784286 C126.319943,133.882904 126.337595,133.976542 126.399393,134.065204 C126.441833,134.126092 126.490947,134.169232 126.546739,134.194626 C126.60253,134.220019 126.673203,134.231468 126.758759,134.228973 C126.844314,134.226479 126.985431,134.203508 127.182115,134.160062 C127.403982,134.111759 127.576563,134.090665 127.699863,134.09678 C127.823163,134.102895 127.930681,134.131912 128.022421,134.183832 C128.114161,134.235752 128.196885,134.314588 128.270596,134.420341 Z M129.837577,132.346305 C130.084807,132.199049 130.319553,132.147887 130.541823,132.192819 C130.764093,132.23775 130.942523,132.373201 131.077119,132.599176 C131.233037,132.860949 131.272862,133.114193 131.196595,133.358915 C131.120328,133.603638 130.931175,133.815949 130.629129,133.995855 C130.355051,134.159102 130.113388,134.243179 129.904133,134.248087 L129.691246,133.890668 C129.81251,133.888156 129.9402,133.865902 130.07432,133.823906 C130.20844,133.78191 130.325839,133.730929 130.426521,133.67096 C130.604392,133.565016 130.716097,133.44468 130.76164,133.309949 C130.807182,133.175218 130.784311,133.031224 130.693026,132.877964 C130.518451,132.584868 130.244347,132.549596 129.870705,132.772146 C129.818127,132.803463 129.756409,132.847422 129.68555,132.904025 C129.61469,132.960629 129.554174,133.012966 129.503998,133.061039 L129.265838,133.061946 L128.646186,131.807868 L129.921482,131.048271 L130.130372,131.398977 L129.202426,131.951684 L129.508859,132.592111 C129.544015,132.562077 129.587174,132.525762 129.638337,132.483164 C129.689501,132.440565 129.755913,132.394946 129.837577,132.346305 Z M132.954041,131.092254 C133.186658,131.530433 133.288998,131.893295 133.261064,132.180851 C133.23313,132.468406 133.074256,132.689109 132.784437,132.842966 C132.503818,132.991938 132.232751,132.995057 131.971228,132.85232 C131.709705,132.709584 131.466302,132.426031 131.241011,132.001653 C131.004731,131.556574 130.901018,131.191124 130.929867,130.905294 C130.958717,130.619463 131.117474,130.399928 131.406143,130.246682 C131.687912,130.097099 131.959859,130.09425 132.221993,130.238137 C132.484127,130.382023 132.728141,130.666726 132.954041,131.092254 Z M131.651587,131.78369 C131.834139,132.127563 131.999852,132.354327 132.148731,132.463988 C132.29761,132.57365 132.449678,132.587269 132.604938,132.504845 C132.760198,132.422422 132.834082,132.287378 132.826591,132.099709 C132.8191,131.91204 132.725301,131.648574 132.545191,131.309301 C132.365692,130.971179 132.199861,130.745583 132.047695,130.632507 C131.895529,130.519431 131.741818,130.504104 131.586558,130.586528 C131.431298,130.668951 131.357684,130.803115 131.365714,130.989023 C131.373744,131.174931 131.469034,131.439818 131.651587,131.78369 Z M135.745545,131.404654 L135.328585,131.601143 L134.760767,130.396199 C134.690275,130.24661 134.609416,130.148331 134.518188,130.101357 C134.42696,130.054384 134.321277,130.059205 134.201135,130.11582 C134.040946,130.191308 133.948017,130.298793 133.922346,130.43828 C133.896674,130.577766 133.941008,130.768826 134.055349,131.011465 L134.514099,131.984961 L134.098906,132.180617 L133.178075,130.226558 L133.503163,130.073364 L133.68219,130.302072 L133.703392,130.292081 C133.713724,130.173497 133.758487,130.0646 133.837682,129.965384 C133.916878,129.866169 134.018312,129.787422 134.141987,129.729142 C134.442341,129.587603 134.689685,129.596272 134.884027,129.75515 L134.912295,129.741829 C134.924496,129.618047 134.970244,129.504367 135.049541,129.400785 C135.128838,129.297204 135.236212,129.213499 135.371666,129.149668 C135.604882,129.039767 135.802538,129.018594 135.964639,129.086147 C136.126741,129.153701 136.264683,129.308206 136.378469,129.549667 L136.978758,130.823515 L136.563564,131.019171 L135.995746,129.814227 C135.925255,129.664639 135.844101,129.566498 135.752284,129.519802 C135.660467,129.473106 135.554489,129.478066 135.434348,129.534681 C135.272981,129.610724 135.178631,129.71672 135.151294,129.852673 C135.123957,129.988626 135.15941,130.16084 135.257655,130.369321 L135.745545,131.404654 Z M139.32522,130.059875 L138.89456,130.224178 L138.419751,128.979645 C138.360806,128.825142 138.287632,128.721013 138.200229,128.667257 C138.112826,128.613501 138.007081,128.610293 137.882992,128.657635 C137.71754,128.720758 137.616728,128.820887 137.580552,128.958025 C137.544377,129.095163 137.574095,129.289035 137.669707,129.539646 L138.053314,130.545127 L137.624479,130.708734 L136.854481,128.690473 L137.190249,128.562372 L137.351418,128.803997 L137.373316,128.795643 C137.392611,128.678185 137.445503,128.572995 137.531994,128.480071 C137.618485,128.387147 137.725598,128.316319 137.853337,128.267585 C138.163559,128.14923 138.409534,128.176631 138.591268,128.349789 L138.620465,128.33865 C138.642018,128.216149 138.696255,128.106266 138.783178,128.008996 C138.870102,127.911726 138.983514,127.836405 139.123418,127.783029 C139.364297,127.69113 139.562989,127.685006 139.719501,127.764658 C139.876014,127.84431 140.001842,128.00883 140.09699,128.258225 L140.59895,129.573927 L140.170115,129.737534 L139.695307,128.493 C139.636361,128.338497 139.562884,128.234485 139.474872,128.180961 C139.386861,128.127437 139.280812,128.124345 139.156723,128.171687 C138.990054,128.235274 138.887938,128.33381 138.85037,128.467298 C138.812802,128.600787 138.835094,128.775194 138.917246,128.990525 L139.32522,130.059875 Z M143.410549,128.883 L142.968839,129.007738 L142.467764,127.233382 C142.40796,127.021611 142.365555,126.852285 142.340546,126.725399 C142.320218,126.763612 142.294197,126.806815 142.262481,126.855009 C142.230764,126.903203 142.122664,127.058206 141.938174,127.320023 L141.637291,127.102595 L142.266114,126.239041 L142.634519,126.135004 L143.410549,128.883 Z M144.336367,128.424313 C144.31408,128.33191 144.321033,128.255226 144.357226,128.194258 C144.39342,128.133291 144.457084,128.091817 144.548221,128.069835 C144.640623,128.047548 144.717056,128.056236 144.777521,128.095899 C144.837986,128.135562 144.878903,128.199695 144.900275,128.288301 C144.921951,128.378172 144.914758,128.455248 144.878695,128.519533 C144.842632,128.583818 144.779033,128.62695 144.687896,128.648932 C144.596759,128.670914 144.520883,128.661757 144.460266,128.621461 C144.399648,128.581165 144.358349,128.51545 144.336367,128.424313 Z M147.279198,128.015242 L145.389711,128.434984 L145.314319,128.095601 L145.872598,127.213302 C146.036587,126.948788 146.143122,126.763397 146.192208,126.657124 C146.241294,126.55085 146.27283,126.454146 146.286819,126.367007 C146.300807,126.279868 146.297636,126.190541 146.277305,126.099021 C146.24935,125.973182 146.189511,125.882438 146.097785,125.826786 C146.006059,125.771134 145.893465,125.758132 145.759999,125.787781 C145.653227,125.8115 145.554328,125.854145 145.463299,125.915715 C145.372271,125.977285 145.272733,126.074091 145.164681,126.206134 L144.856886,125.964395 C144.982877,125.799022 145.112888,125.672773 145.246923,125.585643 C145.380958,125.498513 145.530595,125.436595 145.695838,125.399886 C145.955143,125.342283 146.178002,125.363801 146.36442,125.464442 C146.550838,125.565083 146.669459,125.729801 146.720286,125.958599 C146.74824,126.084439 146.752221,126.208933 146.732228,126.332085 C146.712234,126.455237 146.668867,126.587248 146.602125,126.728122 C146.535383,126.868995 146.416065,127.065896 146.244168,127.318829 L145.864074,127.895446 L145.86831,127.914513 L147.191522,127.620567 L147.279198,128.015242 Z M150.16009,127.518578 L149.597355,127.622585 L147.802905,125.640313 L147.78754,125.643152 L147.820216,125.766216 C147.882159,126.001058 147.931351,126.217067 147.967795,126.41425 L148.237572,127.873904 L147.820802,127.950932 L147.301836,125.143019 L147.858809,125.040078 L149.647288,127.011536 L149.658811,127.009406 C149.650808,126.98043 149.625867,126.874145 149.583989,126.690546 C149.542111,126.506948 149.511588,126.363294 149.49242,126.259581 L149.220513,124.788404 L149.641123,124.710665 L150.16009,127.518578 Z" id="tkr-lens-text" fill="#D8D8D8"></path>
            <path d="M282.184826,106.095417 L282.184826,32.102322 L125.184826,32.102322 L125.184826,104.904884 C148.378023,118.986395 175.590417,127.097052 204.682209,127.097052 C232.94406,127.097052 259.432211,119.44256 282.184826,106.095417 Z" id="gradient-copy-2" fill="url(#linearGradient-4)" opacity="0.387709888" transform="translate(203.684826, 79.599687) scale(-1, 1) rotate(151.000000) translate(-203.684826, -79.599687) "></path>
        </g>
    </g>
</svg>