<?xml version="1.0" encoding="UTF-8" standalone="no"?>
<svg width="100%" height="100%" viewBox="0 0 322 412" version="1.1" xmlns="http://www.w3.org/2000/svg" xmlns:xlink="http://www.w3.org/1999/xlink" xml:space="preserve" style="fill-rule:evenodd;clip-rule:evenodd;stroke-linecap:round;stroke-linejoin:round;stroke-miterlimit:1.41421;">
    <g transform="matrix(1,0,0,1,-0.0004495,-23.9014)">
        <g transform="matrix(1,0,0,1,-135.374,-87.8762)">
            <g transform="matrix(0.407652,0.434563,-0.434563,0.407652,276.291,-33.092)">
                <path d="M609.089,260.342C618.53,242.74 637.109,230.757 658.464,230.757C689.365,230.757 708.995,268.541 714.326,298.978C717.895,319.353 720.678,343.976 711.196,356.853C705.199,364.997 698.608,369.992 688.796,373.528" style="fill:none;stroke-width:11.75px;stroke:rgb(13,193,140);"/>
            </g>
        </g>
        <g transform="matrix(1,0,0,1,-135.374,-87.8762)">
            <g transform="matrix(0.92995,0,0,1.14252,-580.849,194.136)">
                <path d="M996.701,268.38L996.722,268.4L850.907,268.4C850.907,268.4 776.693,226.849 776.693,61.562L1070.88,61.562C1070.88,224.773 998.519,267.337 996.701,268.38Z" style="fill:none;stroke-width:6.72px;stroke:rgb(13,193,140);"/>
            </g>
        </g>
        <g transform="matrix(1,0,0,1,-135.374,-87.8762)">
            <g transform="matrix(0.845904,0,0,0.391177,41.9651,417.03)">
                <path d="M450.911,257.381C450.911,254.932 449.992,252.943 448.859,252.943L115.725,252.943C114.593,252.943 113.673,254.932 113.673,257.381L113.673,266.258C113.673,268.707 114.593,270.696 115.725,270.696L448.859,270.696C449.992,270.696 450.911,268.707 450.911,266.258L450.911,257.381Z" style="fill:rgb(13,193,140);"/>
            </g>
        </g>
        <g transform="matrix(1,0,0,1,-135.374,-87.8762)">
            <g transform="matrix(0.524408,0,0,0.579617,119.51,62.5338)">
                <path d="M204.787,292.91C204.787,292.91 139.392,246.006 199.03,197.577C261.978,146.459 201.599,93.779 201.599,93.779" style="fill:none;stroke-width:10.68px;stroke:rgb(42,231,176);"/>
            </g>
        </g>
        <g transform="matrix(1,0,0,1,-135.374,-87.8762)">
            <g transform="matrix(0.434895,0,0,0.48068,191.534,91.5134)">
                <path d="M204.787,292.91C204.787,292.91 139.392,246.006 199.03,197.577C261.978,146.459 201.599,93.779 201.599,93.779" style="fill:none;stroke-width:12.88px;stroke:rgb(42,231,176);"/>
            </g>
        </g>
        <g transform="matrix(1,0,0,1,-135.374,-87.8762)">
            <g transform="matrix(0.278943,0,0,0.30831,271.946,142.002)">
                <path d="M204.787,292.91C204.787,292.91 139.392,246.006 199.03,197.577C261.978,146.459 201.599,93.779 201.599,93.779" style="fill:none;stroke-width:20.09px;stroke:rgb(42,231,176);"/>
            </g>
        </g>
        <g transform="matrix(1,0,0,1,-135.374,-87.8762)">
            <g id="Imported-Layers" transform="matrix(0.99651,0,0,0.99651,254.052,338.005)">
                <path d="M0,0L0,104L16,104L16,52L32,104L48,104L48,0L32,0L32,52L16,0L0,0Z" style="fill:rgb(42,231,176);"/>
            </g>
        </g>
        <g transform="matrix(1,0,0,1,-135.374,-87.8762)">
            <g transform="matrix(1,0,0,1,-194.496,90.1493)">
                <g transform="matrix(-0.430269,0,0,0.554919,516.543,57.3584)">
                    <path d="M308.867,313.606L412.474,313.606" style="fill:none;stroke-width:14.1px;stroke:rgb(13,193,140);"/>
                </g>
                <g transform="matrix(-0.0513387,0,0,0.0513387,424.295,215.284)">
                    <path d="M308.867,313.606L412.474,313.606" style="fill:none;stroke-width:136.35px;stroke:rgb(13,193,140);"/>
                </g>
            </g>
        </g>
    </g>
</svg>
