<?xml version="1.0" encoding="UTF-8" standalone="no"?>
<svg width="308px" height="308px" viewBox="0 0 308 308" version="1.1" xmlns="http://www.w3.org/2000/svg" xmlns:xlink="http://www.w3.org/1999/xlink" xmlns:sketch="http://www.bohemiancoding.com/sketch/ns">
    <title>digital-partners</title>
    <desc>Created with Sketch.</desc>
    <defs>
        <linearGradient x1="93.6172997%" y1="24.6370373%" x2="33.7602018%" y2="58.5764067%" id="linearGradient-1">
            <stop stop-color="#4C436C" offset="0%"></stop>
            <stop stop-color="#794477" offset="100%"></stop>
        </linearGradient>
        <path id="path-2" d="M307.361012,154.418476 C307.361012,239.135981 238.581187,307.915876 153.863682,307.915876 C69.1461609,307.915876 0.366299175,239.135981 0.366299175,154.418476 C0.366299175,69.7009705 69.1461609,0.92114563 153.863682,0.92114563 C238.581187,0.92114563 307.361012,69.7009705 307.361012,154.418476 L307.361012,154.418476 Z"></path>
        <path id="path-4" d="M307.361012,154.418476 C307.361012,239.135981 238.581187,307.915876 153.863682,307.915876 C69.1461609,307.915876 0.366299175,239.135981 0.366299175,154.418476 C0.366299175,69.7009705 69.1461609,0.92114563 153.863682,0.92114563 C238.581187,0.92114563 307.361012,69.7009705 307.361012,154.418476 L307.361012,154.418476 Z"></path>
        <linearGradient x1="89.6154919%" y1="65.2498112%" x2="50%" y2="71.6592477%" id="linearGradient-6">
            <stop stop-color="#FFFFFF" stop-opacity="0.400532156" offset="0%"></stop>
            <stop stop-color="#FFFFFF" stop-opacity="0" offset="100%"></stop>
        </linearGradient>
    </defs>
    <g id="Page-1" stroke="none" stroke-width="1" fill="none" fill-rule="evenodd" sketch:type="MSPage">
        <g id="digital-partners" sketch:type="MSLayerGroup">
            <g id="panorama-Clipped">
                <path d="M307.361012,154.418476 C307.361012,239.135981 238.581187,307.915876 153.863682,307.915876 C69.1461609,307.915876 0.366299175,239.135981 0.366299175,154.418476 C0.366299175,69.7009705 69.1461609,0.92114563 153.863682,0.92114563 C238.581187,0.92114563 307.361012,69.7009705 307.361012,154.418476 L307.361012,154.418476 Z" id="path-2" fill="url(#linearGradient-1)" sketch:type="MSShapeGroup"></path>
                <mask id="mask-3" sketch:name="path-2" fill="white">
                    <use xlink:href="#path-2"></use>
                </mask>
                <g id="path-2"></g>
                <g id="panorama" mask="url(#mask-3)">
                    <g transform="translate(28.000000, 22.000000)" id="Group">
                        <g>
                            <g id="moon" transform="translate(71.039130, 0.592947)" sketch:type="MSShapeGroup">
                                <circle id="Oval-852-Copy" fill="#F2F1EC" cx="82" cy="82" r="82"></circle>
                                <circle id="Oval-853-Copy-6" fill="#D8D8D3" cx="64.2075472" cy="75.5455141" r="16.245283"></circle>
                                <circle id="Oval-853-Copy-3" fill="#D8D8D3" cx="27.8490566" cy="57.7530613" r="7.73584906"></circle>
                                <circle id="Oval-853-Copy-7" fill="#D8D8D3" cx="99.0188679" cy="135.111552" r="7.73584906"></circle>
                                <circle id="Oval-853-Copy-8" fill="#D8D8D3" cx="30.9433962" cy="111.904005" r="4.64150943"></circle>
                                <circle id="Oval-853-Copy-9" fill="#D8D8D3" cx="82" cy="147.48891" r="4.64150943"></circle>
                            </g>
                            <g id="clouds" transform="translate(0.000000, 53.000000)" fill="#FFFFFF" sketch:type="MSShapeGroup">
                                <path d="M8.63215282,25.532405 C4.10845869,25.209002 0.539129564,21.4426926 0.539129564,16.8441043 C0.539129564,12.0332507 4.44557527,8.13328336 9.26442026,8.13328336 C10.2878095,8.13328336 11.2700477,8.30917967 12.1824566,8.63234164 C13.931973,3.91836588 18.4762694,0.558656496 23.8065714,0.558656496 C30.245493,0.558656496 35.5374545,5.46123264 36.1415442,11.7313454 L36.1415442,11.7313454 C36.4498027,11.6896459 36.7644759,11.6681092 37.0841877,11.6681092 C40.925296,11.6681092 44.0391296,14.7767789 44.0391296,18.6115172 C44.0391296,21.9706795 41.6497458,24.7726969 38.4751761,25.4160318 L38.4751761,25.5549252 L8.63215282,25.5549252 L8.63215282,25.532405 L8.63215282,25.532405 Z" id="cloud-2"></path>
                                <path d="M248.574013,89.0798584 C241.567487,88.5789556 236.03913,82.7455051 236.03913,75.6229789 C236.03913,68.1716856 242.08963,62.1312189 249.553301,62.1312189 C251.138378,62.1312189 252.659718,62.403656 254.072903,62.9041856 C256.782643,55.6029415 263.821079,50.3992537 272.07692,50.3992537 C282.049848,50.3992537 290.246305,57.9926116 291.18195,67.7040793 L291.18195,67.7040793 C291.659396,67.6394931 292.146778,67.606136 292.641964,67.606136 C298.591267,67.606136 303.41413,72.4210007 303.41413,78.3604374 C303.41413,83.5632779 299.713331,87.9031841 294.796397,88.8996138 L294.796397,89.1147388 L248.574013,89.1147388 L248.574013,89.0798584 L248.574013,89.0798584 Z" id="cloud-1"></path>
                            </g>
                            <g id="mountains" transform="translate(44.000000, 243.000000)" fill="#2C1B3D" sketch:type="MSShapeGroup">
                                <path d="M55.9849723,46.9999993 L120.999999,43.9999993 C120.999999,43.9999993 68.1593679,0.600142702 49.0634801,0.600142702 C29.9675922,0.600142702 0.0391295643,30.9999993 0.0391295643,30.9999993 L55.9849723,46.9999993 L55.9849723,46.9999993 Z" id="Oval-893" opacity="0.738456157"></path>
                                <path d="M100.07569,58.0000008 L166.519565,42.0000008 C166.519565,42.0000008 128.861935,9.99999997 109.46255,9.99999997 C90.0631656,9.99999997 45.5586946,62 45.5586946,62 L100.07569,58.0000008 L100.07569,58.0000008 Z" id="Oval-893-Copy"></path>
                            </g>
                        </g>
                    </g>
                </g>
            </g>
            <g id="partner-and-robot-Clipped">
                <mask id="mask-5" sketch:name="path-2" fill="white">
                    <use xlink:href="#path-4"></use>
                </mask>
                <g id="path-2"></g>
                <g id="partner-and-robot" mask="url(#mask-5)">
                    <g transform="translate(-31.000000, 63.000000)" id="Group">
                        <g transform="translate(152.752463, 100.298151) rotate(7.000000) translate(-152.752463, -100.298151) translate(9.752463, 17.798151)">
                            <g id="bicyle" transform="translate(0.771574, 30.206426)" sketch:type="MSShapeGroup">
                                <path d="M22.9466385,115.187447 L8.1106598,8.85951756 L127.564422,63.839088 L22.9466385,115.187447 L22.9466385,115.187447 Z" id="Triangle-1-Copy-4" fill="url(#linearGradient-6)" transform="translate(67.837541, 62.023482) rotate(9.000000) translate(-67.837541, -62.023482) "></path>
                                <path d="M123.90444,76.5963302 L132.569236,76.5963302 L132.569236,79.7680264 L123.90444,79.9912498 L123.90444,76.5963302 L123.90444,76.5963302 Z" id="Rectangle-920" fill="#2C1B3D" transform="translate(128.236838, 78.293790) rotate(60.000000) translate(-128.236838, -78.293790) "></path>
                                <path d="M154.880268,89.4321049 L201.670167,89.4321049 L201.670167,92.601919 L154.880268,92.8250099 L154.880268,89.4321049 L154.880268,89.4321049 Z" id="Rectangle-920-Copy-5" fill="#2C1B3D" transform="translate(178.275218, 91.128557) rotate(113.000000) translate(-178.275218, -91.128557) "></path>
                                <path d="M226.437861,89.4310984 L271.494801,89.4310984 L271.494801,92.6027946 L226.437861,92.8260181 L226.437861,89.4310984 L226.437861,89.4310984 Z" id="Rectangle-920-Copy" fill="#2C1B3D" transform="translate(248.966331, 91.128558) rotate(60.000000) translate(-248.966331, -91.128558) "></path>
                                <path d="M243.948537,90.0846222 L271.675885,90.0846222 L271.675885,93.2563184 L243.948537,93.4795418 L243.948537,90.0846222 L243.948537,90.0846222 Z" id="Rectangle-920-Copy-2" fill="#2C1B3D" transform="translate(257.812211, 91.782082) rotate(90.000000) translate(-257.812211, -91.782082) "></path>
                                <path d="M248.993843,75.4080532 C248.993843,73.8257975 250.269232,72.5431258 251.85775,72.5431258 L276.718037,72.5431258 C278.299729,72.5431258 279.581944,73.8253276 279.581944,75.4077352 L279.581944,75.0316207 C279.581944,76.6137008 278.306555,77.911939 276.718037,77.9315046 L251.85775,78.2377062 C250.276057,78.2571878 248.993843,76.9870894 248.993843,75.4080532 L248.993843,75.4080532 L248.993843,75.4080532 Z" id="Rectangle-920-Copy-4" fill="#2C1B3D"></path>
                                <path d="M248.355027,91.1621725 L283.591865,91.1621725 L283.591865,94.3319865 L248.355027,94.5550775 L248.355027,91.1621725 L248.355027,91.1621725 Z" id="Rectangle-920-Copy-3" fill="#2C1B3D" transform="translate(265.973446, 92.858625) rotate(113.000000) translate(-265.973446, -92.858625) "></path>
                                <ellipse id="Oval-899" fill="#2C1B3D" cx="124.193266" cy="71.349912" rx="5.1988777" ry="5.19322183"></ellipse>
                                <rect id="Rectangle-919" fill="#2C1B3D" x="118.416735" y="66.1566901" width="5.77653078" height="10.3864437"></rect>
                                <ellipse id="Oval-894" stroke="#2C1B3D" stroke-width="3.46591847" cx="118.416735" cy="108.279489" rx="25.4167354" ry="25.3890845"></ellipse>
                                <ellipse id="Oval-894-Copy" stroke="#2C1B3D" stroke-width="3.46591847" cx="259.364086" cy="108.279489" rx="25.4167354" ry="25.3890845"></ellipse>
                                <g id="Line" transform="translate(119.000000, 68.000000)">
                                    <path d="M0.283215,39.990977 L17.612807,0.7533011 L119.736978,0.7533011 L105.005235,42.811456 L52.451176,42.811456 L16.693699,8.0371017" id="path-5"></path>
                                    <g id="path-5-link" stroke="#2C1B3D" stroke-width="3.46591847">
                                        <path d="M0.283215,39.990977 L17.612807,0.7533011 L119.736978,0.7533011 L105.005235,42.811456 L52.451176,42.811456 L16.693699,8.0371017" id="path-5"></path>
                                    </g>
                                </g>
                                <ellipse id="Oval-896" fill="#2C1B3D" cx="171.271992" cy="112.607174" rx="7.79831655" ry="7.78983275"></ellipse>
                                <ellipse id="Oval-896-Copy" fill="#2C1B3D" cx="222.105463" cy="112.607174" rx="7.79831655" ry="7.78983275"></ellipse>
                                <ellipse id="Oval-896-Copy-2" fill="#2C1B3D" cx="259.07526" cy="108.568002" rx="3.75474501" ry="3.75066021"></ellipse>
                                <g id="Path-8627" transform="translate(133.000000, 50.000000)">
                                    <path d="M14.594205,0.070719 L3.635858,0.070719 C3.635858,0.070719 0.357097,-0.532593 0.357097,2.6584268 L0.357097,6.3241433 C0.357097,6.3241433 -0.295698,9.8352082 5.704785,9.0549716 C11.705269,8.2747349 10.611397,16.9262347 10.611397,16.9262347" id="path-6"></path>
                                    <g id="path-6-link" stroke="#2C1B3D" stroke-width="3.46591847">
                                        <path d="M14.594205,0.070719 L3.635858,0.070719 C3.635858,0.070719 0.357097,-0.532593 0.357097,2.6584268 L0.357097,6.3241433 C0.357097,6.3241433 -0.295698,9.8352082 5.704785,9.0549716 C11.705269,8.2747349 10.611397,16.9262347 10.611397,16.9262347" id="path-6"></path>
                                    </g>
                                </g>
                            </g>
                            <g id="robot" transform="translate(182.882773, 0.129323)" sketch:type="MSShapeGroup">
                                <g id="Rectangle-952-+-Path-8628-+-Oval-909">
                                    <path d="M27.8137925,141.28701 L20.5980726,114.357576 C19.9835981,112.064327 20.435807,109.735718 21.6480964,107.896225 C22.3283648,106.460496 23.415066,105.195447 24.8658325,104.288907 L34.7847572,98.0908753 L22.636371,70.8051532 L21.2578909,74.217011 C20.9560707,74.9640424 20.4962198,75.5998488 19.932676,76.1016179 C19.004916,77.2132942 17.6087112,77.9206508 16.0468602,77.9206508 L5.37735561,77.9206508 C2.58376227,77.9206508 0.319107416,75.650959 0.319107416,72.8638451 L0.319107416,67.8070394 L12.9398063,67.8070394 L16.9318787,57.9263136 C17.3275206,56.9470655 17.9947119,56.1589392 18.8110581,55.6133191 L18.8110581,55.6133191 L10.7494839,38.3252172 C10.4799541,37.7472088 10.7218264,37.0639667 11.3097392,36.7898184 L31.2547377,27.4893129 C31.833688,27.219344 32.5252257,27.4770129 32.7910466,28.0470677 L39.945413,43.3896558 L46.1142254,31.815181 C46.2774314,31.5089594 46.4624513,31.2182427 46.6665721,30.9440204 L43.1818449,13.0166528 C42.6485138,10.2729023 44.4441547,7.61557542 47.1800615,7.08376902 C49.9215466,6.55087829 52.5757929,8.34047613 53.1096407,11.0868848 L57.1833437,32.04427 L57.1554148,32.0496988 C57.5054851,33.3802155 57.4447009,34.8313229 56.8890972,36.2064903 L51.4448784,49.6814046 C51.2367055,50.1966508 50.9709931,50.6713864 50.6581353,51.1011933 L68.3265016,85.9428652 C68.5632621,86.2301948 68.783962,86.5361455 68.9864618,86.860213 C71.5033923,90.8881438 70.2859109,96.1891618 66.2477138,98.7125074 L37.7358897,116.528672 L42.005936,132.464702 C42.3666683,133.810973 42.3597816,135.169431 42.0473085,136.433961 C42.9144512,136.569039 43.6837479,137.160445 44.0086183,138.053019 C44.4808496,139.350464 43.8027076,140.788409 42.5224796,141.254374 L27.4713127,146.732551 C26.1783097,147.203165 24.7505969,146.541933 24.2750733,145.235442 C23.802842,143.937998 24.480984,142.500053 25.761212,142.034088 L27.8137925,141.28701 L27.8137925,141.28701 Z" id="roboto-body" fill="#2C1B3D"></path>
                                    <g id="antenna" transform="translate(16.000000, 19.000000)">
                                        <g id="Path-8628" transform="translate(0.000000, 2.000000)">
                                            <path d="M1.15101074,13.1860859 C1.15101074,13.1860859 -1.58763597,6.58350786 7.61374778,0.79191257" id="path-7"></path>
                                            <g id="path-7-link" stroke="#2C1B3D" stroke-width="1.35112076">
                                                <path d="M1.15101074,13.1860859 C1.15101074,13.1860859 -1.58763597,6.58350786 7.61374778,0.79191257" id="path-7"></path>
                                            </g>
                                        </g>
                                        <ellipse id="Oval-909" fill="#2C1B3D" cx="8.3435546" cy="2.04680213" rx="2.02668114" ry="2.02272227"></ellipse>
                                    </g>
                                    <path d="M43.7154493,9.97749536 C46.7002629,9.97749536 49.1199324,7.71348634 49.1199324,4.92068969 C49.1199324,2.12789303 46.7002629,-0.136115989 43.7154493,-0.136115989" id="Oval-913" stroke="#2C1B3D" stroke-width="2.70224152" transform="translate(46.417691, 4.920690) rotate(72.000000) translate(-46.417691, -4.920690) "></path>
                                </g>
                            </g>
                            <g id="partner" transform="translate(139.000000, 36.000000)" fill="#2C1B3D" sketch:type="MSShapeGroup">
                                <path d="M29.8079777,101.667414 C32.0774561,100.649423 33.5273182,98.2418435 33.208513,95.6453834 L31.2597433,79.7739275 L43.6807378,71.3958609 C44.5511098,70.8087876 45.2551573,70.0686763 45.7813613,69.2359506 L45.7813613,69.2359506 L51.0838239,67.6148251 C56.2789266,66.0265228 58.843703,60.6606954 56.8230343,55.6266665 L46.5341365,29.9942564 C45.3577725,27.0636174 42.9772692,25.1271217 40.2379853,24.5065077 L40.2379853,24.5065077 C41.9102287,23.2454423 43.1890731,21.491453 43.8579742,19.4608484 L43.8579742,19.4608484 C44.9647822,17.0042219 47.0981182,12.223409 47.0981186,11.8707114 C47.098119,11.4457192 45.1374076,11.5981408 45.1374076,11.5981408 L46.3026539,8.31942394 C46.4862165,7.80292388 46.1883675,7.44816118 45.6438447,7.52611516 L43.607945,7.81757493 C43.607945,7.81757493 44.5280631,6.3950957 45.3987391,5.40083753 C46.2694152,4.40657937 43.2085542,5.40083741 43.2085542,5.40083741 L44.0587027,2.78099401 C43.9187148,1.67267953 40.4943643,3.55555643 40.4943643,3.55555643 L40.4943643,2.09819449 C40.4943643,1.54637225 40.0657576,1.25778286 39.5515258,1.44824833 L36.7580159,2.48293191 L36.2615975,1.07993442 C36.0780766,0.561260223 35.5874232,0.431932638 35.1750754,0.783082853 L31.9194219,3.55555653 C31.9194219,3.55555653 30.9317258,1.43563762 30.537487,1.43563762 C28.7963094,1.43563762 26.1276957,8.08569781 25.1220038,10.7683589 C24.1449875,12.3512294 23.581314,14.2157768 23.581314,16.2118339 C23.581314,21.259219 27.1855609,25.465703 31.9633746,26.4032501 L31.7299269,26.5214266 C31.7294424,26.5216719 31.7289579,26.5219172 31.7284734,26.5221626 L31.7284734,26.5221626 C31.5053503,26.4612249 31.2743919,26.4174551 31.0369146,26.3924953 L9.1540334,24.0925118 C8.98612833,24.0748642 8.81942662,24.0670934 8.65450985,24.0687317 L8.65450985,24.0687317 C8.61157917,24.0584634 8.56748254,24.0508608 8.52238535,24.0461209 L1.1229905,23.2684131 C0.5695604,23.2102453 0.0681064898,23.6132862 0.00966344949,24.1693346 C-0.0491870449,24.7292596 0.354919019,25.2235592 0.911349531,25.2820424 L1.94839889,25.3910407 C1.85432954,25.6176222 1.79119687,25.8605532 1.76438183,26.1156813 C1.60809794,27.6026232 2.74463805,28.9407989 4.30291522,29.1045805 C4.34659764,29.1091717 4.39014777,29.1127913 4.43354214,29.1154574 L4.43354214,29.1154574 C4.74810782,30.9822519 6.27295769,32.4927444 8.2493009,32.7004665 L25.1638909,34.4782615 L21.8910964,42.5787124 L10.0195521,42.5787124 C7.6115272,42.5787124 5.68277703,44.5162829 5.68277703,46.9063972 C5.68277703,49.2916482 7.62441737,51.2340821 10.0195521,51.2340821 L23.2968189,51.2340821 C23.5487239,51.2340821 23.795384,51.2128785 24.0351398,51.1721714 C25.7958213,51.4915294 27.5994576,50.6807654 28.5256244,49.1264127 L28.5256244,49.1264127 L32.285146,61.4232535 L22.2835421,68.1694205 C20.6750457,69.254365 19.634599,70.861982 19.2349075,72.6108969 L19.2349075,72.6108969 C18.949538,73.4263922 18.8422603,74.3178788 18.9546009,75.232819 L22.0807594,100.693337 L19.7928407,100.693337 C18.6937064,100.693337 17.789258,101.588767 17.789258,102.693337 C17.789258,103.805607 18.6862925,104.693337 19.7928407,104.693337 L28.0856756,104.693337 C29.1848099,104.693337 30.0892582,103.797906 30.0892582,102.693337 C30.0892582,102.317118 29.9866295,101.966589 29.8079777,101.667414 L29.8079777,101.667414 Z" id="Oval-908"></path>
                            </g>
                        </g>
                    </g>
                </g>
            </g>
        </g>
    </g>
</svg>
