<?xml version="1.0" encoding="UTF-8" standalone="no"?>
<svg width="308px" height="308px" viewBox="0 0 308 308" version="1.1" xmlns="http://www.w3.org/2000/svg" xmlns:xlink="http://www.w3.org/1999/xlink" xmlns:sketch="http://www.bohemiancoding.com/sketch/ns">
    <!-- Generator: Sketch 3.4 (15575) - http://www.bohemiancoding.com/sketch -->
    <title>open-source</title>
    <desc>Created with Sketch.</desc>
    <defs>
        <linearGradient x1="23.6416597%" y1="91.7143269%" x2="83.9523326%" y2="14.0399724%" id="linearGradient-1">
            <stop stop-color="#4C436C" offset="0%"></stop>
            <stop stop-color="#784376" offset="100%"></stop>
        </linearGradient>
        <linearGradient x1="23.6416597%" y1="91.7143269%" x2="47.7538678%" y2="50%" id="linearGradient-2">
            <stop stop-color="#4C436C" offset="0%"></stop>
            <stop stop-color="#784376" offset="100%"></stop>
        </linearGradient>
        <linearGradient x1="50%" y1="0%" x2="50%" y2="100%" id="linearGradient-3">
            <stop stop-color="#FFFFFF" stop-opacity="0" offset="0%"></stop>
            <stop stop-color="#FFFFFF" offset="100%"></stop>
        </linearGradient>
    </defs>
    <g id="Page-1" stroke="none" stroke-width="1" fill="none" fill-rule="evenodd" sketch:type="MSPage">
        <g id="open-source" sketch:type="MSLayerGroup">
            <path d="M307.954735,153.825528 C307.954735,238.543034 239.17491,307.322928 154.457404,307.322928 C69.7398834,307.322928 0.960021601,238.543034 0.960021601,153.825528 C0.960021601,69.108023 69.7398834,0.328198134 154.457404,0.328198134 C239.17491,0.328198134 307.954735,69.108023 307.954735,153.825528 Z" id="Mask" fill="url(#linearGradient-1)" sketch:type="MSShapeGroup"></path>
            <g id="Group" transform="translate(2.000000, 26.000000)" fill="url(#linearGradient-2)" sketch:type="MSShapeGroup">
                <path d="M37.0390625,63 L37.0390625,41.5839844 L40.5400391,41.5839844 L40.5400391,63 L37.0390625,63 Z M65.2080078,52.2626953 C65.2080078,55.7490409 64.3364345,58.4589747 62.5932617,60.3925781 C60.8500889,62.3261815 58.3818519,63.2929688 55.1884766,63.2929688 C51.9560385,63.2929688 49.4731532,62.3335057 47.7397461,60.4145508 C46.006339,58.4955959 45.1396484,55.7685724 45.1396484,52.2333984 C45.1396484,48.6982245 46.0112218,45.9834079 47.7543945,44.0888672 C49.4975673,42.1943265 51.9853354,41.2470703 55.2177734,41.2470703 C58.4013831,41.2470703 60.862296,42.2089748 62.6005859,44.1328125 C64.3388759,46.0566502 65.2080078,48.7665841 65.2080078,52.2626953 L65.2080078,52.2626953 Z M48.8603516,52.2626953 C48.8603516,54.8994272 49.3925728,56.898919 50.4570312,58.2612305 C51.5214897,59.623542 53.0986224,60.3046875 55.1884766,60.3046875 C57.2685651,60.3046875 58.8383736,59.6308661 59.8979492,58.2832031 C60.9575248,56.9355401 61.4873047,54.9287243 61.4873047,52.2626953 C61.4873047,49.6357291 60.9624076,47.6435615 59.9125977,46.2861328 C58.8627877,44.9287042 57.297862,44.25 55.2177734,44.25 C53.1181536,44.25 51.5336968,44.9287042 50.4643555,46.2861328 C49.3950142,47.6435615 48.8603516,49.6357291 48.8603516,52.2626953 L48.8603516,52.2626953 Z M77.6005859,63 L77.6005859,41.5839844 L81.1015625,41.5839844 L81.1015625,63 L77.6005859,63 Z M105.769531,52.2626953 C105.769531,55.7490409 104.897958,58.4589747 103.154785,60.3925781 C101.411612,62.3261815 98.9433753,63.2929688 95.75,63.2929688 C92.517562,63.2929688 90.0346766,62.3335057 88.3012695,60.4145508 C86.5678624,58.4955959 85.7011719,55.7685724 85.7011719,52.2333984 C85.7011719,48.6982245 86.5727452,45.9834079 88.315918,44.0888672 C90.0590907,42.1943265 92.5468588,41.2470703 95.7792969,41.2470703 C98.9629065,41.2470703 101.423819,42.2089748 103.162109,44.1328125 C104.900399,46.0566502 105.769531,48.7665841 105.769531,52.2626953 L105.769531,52.2626953 Z M89.421875,52.2626953 C89.421875,54.8994272 89.9540962,56.898919 91.0185547,58.2612305 C92.0830131,59.623542 93.6601458,60.3046875 95.75,60.3046875 C97.8300885,60.3046875 99.399897,59.6308661 100.459473,58.2832031 C101.519048,56.9355401 102.048828,54.9287243 102.048828,52.2626953 C102.048828,49.6357291 101.523931,47.6435615 100.474121,46.2861328 C99.4243112,44.9287042 97.8593854,44.25 95.7792969,44.25 C93.679677,44.25 92.0952202,44.9287042 91.0258789,46.2861328 C89.9565376,47.6435615 89.421875,49.6357291 89.421875,52.2626953 L89.421875,52.2626953 Z M118.162109,63 L118.162109,41.5839844 L121.663086,41.5839844 L121.663086,63 L118.162109,63 Z M146.331055,52.2626953 C146.331055,55.7490409 145.459481,58.4589747 143.716309,60.3925781 C141.973136,62.3261815 139.504899,63.2929688 136.311523,63.2929688 C133.079085,63.2929688 130.5962,62.3335057 128.862793,60.4145508 C127.129386,58.4955959 126.262695,55.7685724 126.262695,52.2333984 C126.262695,48.6982245 127.134269,45.9834079 128.877441,44.0888672 C130.620614,42.1943265 133.108382,41.2470703 136.34082,41.2470703 C139.52443,41.2470703 141.985343,42.2089748 143.723633,44.1328125 C145.461923,46.0566502 146.331055,48.7665841 146.331055,52.2626953 L146.331055,52.2626953 Z M129.983398,52.2626953 C129.983398,54.8994272 130.51562,56.898919 131.580078,58.2612305 C132.644537,59.623542 134.221669,60.3046875 136.311523,60.3046875 C138.391612,60.3046875 139.96142,59.6308661 141.020996,58.2832031 C142.080572,56.9355401 142.610352,54.9287243 142.610352,52.2626953 C142.610352,49.6357291 142.085454,47.6435615 141.035645,46.2861328 C139.985835,44.9287042 138.420909,44.25 136.34082,44.25 C134.2412,44.25 132.656744,44.9287042 131.587402,46.2861328 C130.518061,47.6435615 129.983398,49.6357291 129.983398,52.2626953 L129.983398,52.2626953 Z M158.723633,63 L158.723633,41.5839844 L162.224609,41.5839844 L162.224609,63 L158.723633,63 Z M186.892578,52.2626953 C186.892578,55.7490409 186.021005,58.4589747 184.277832,60.3925781 C182.534659,62.3261815 180.066422,63.2929688 176.873047,63.2929688 C173.640609,63.2929688 171.157724,62.3335057 169.424316,60.4145508 C167.690909,58.4955959 166.824219,55.7685724 166.824219,52.2333984 C166.824219,48.6982245 167.695792,45.9834079 169.438965,44.0888672 C171.182138,42.1943265 173.669906,41.2470703 176.902344,41.2470703 C180.085953,41.2470703 182.546866,42.2089748 184.285156,44.1328125 C186.023446,46.0566502 186.892578,48.7665841 186.892578,52.2626953 L186.892578,52.2626953 Z M170.544922,52.2626953 C170.544922,54.8994272 171.077143,56.898919 172.141602,58.2612305 C173.20606,59.623542 174.783193,60.3046875 176.873047,60.3046875 C178.953135,60.3046875 180.522944,59.6308661 181.58252,58.2832031 C182.642095,56.9355401 183.171875,54.9287243 183.171875,52.2626953 C183.171875,49.6357291 182.646978,47.6435615 181.597168,46.2861328 C180.547358,44.9287042 178.982432,44.25 176.902344,44.25 C174.802724,44.25 173.218267,44.9287042 172.148926,46.2861328 C171.079584,47.6435615 170.544922,49.6357291 170.544922,52.2626953 L170.544922,52.2626953 Z M199.285156,63 L199.285156,41.5839844 L202.786133,41.5839844 L202.786133,63 L199.285156,63 Z M227.454102,52.2626953 C227.454102,55.7490409 226.582528,58.4589747 224.839355,60.3925781 C223.096183,62.3261815 220.627946,63.2929688 217.43457,63.2929688 C214.202132,63.2929688 211.719247,62.3335057 209.98584,60.4145508 C208.252433,58.4955959 207.385742,55.7685724 207.385742,52.2333984 C207.385742,48.6982245 208.257316,45.9834079 210.000488,44.0888672 C211.743661,42.1943265 214.231429,41.2470703 217.463867,41.2470703 C220.647477,41.2470703 223.10839,42.2089748 224.84668,44.1328125 C226.58497,46.0566502 227.454102,48.7665841 227.454102,52.2626953 L227.454102,52.2626953 Z M211.106445,52.2626953 C211.106445,54.8994272 211.638667,56.898919 212.703125,58.2612305 C213.767583,59.623542 215.344716,60.3046875 217.43457,60.3046875 C219.514659,60.3046875 221.084467,59.6308661 222.144043,58.2832031 C223.203619,56.9355401 223.733398,54.9287243 223.733398,52.2626953 C223.733398,49.6357291 223.208501,47.6435615 222.158691,46.2861328 C221.108881,44.9287042 219.543956,44.25 217.463867,44.25 C215.364247,44.25 213.779791,44.9287042 212.710449,46.2861328 C211.641108,47.6435615 211.106445,49.6357291 211.106445,52.2626953 L211.106445,52.2626953 Z M239.84668,63 L239.84668,41.5839844 L243.347656,41.5839844 L243.347656,63 L239.84668,63 Z M268.015625,52.2626953 C268.015625,55.7490409 267.144052,58.4589747 265.400879,60.3925781 C263.657706,62.3261815 261.189469,63.2929688 257.996094,63.2929688 C254.763656,63.2929688 252.28077,62.3335057 250.547363,60.4145508 C248.813956,58.4955959 247.947266,55.7685724 247.947266,52.2333984 C247.947266,48.6982245 248.818839,45.9834079 250.562012,44.0888672 C252.305184,42.1943265 254.792953,41.2470703 258.025391,41.2470703 C261.209,41.2470703 263.669913,42.2089748 265.408203,44.1328125 C267.146493,46.0566502 268.015625,48.7665841 268.015625,52.2626953 L268.015625,52.2626953 Z M251.667969,52.2626953 C251.667969,54.8994272 252.20019,56.898919 253.264648,58.2612305 C254.329107,59.623542 255.90624,60.3046875 257.996094,60.3046875 C260.076182,60.3046875 261.645991,59.6308661 262.705566,58.2832031 C263.765142,56.9355401 264.294922,54.9287243 264.294922,52.2626953 C264.294922,49.6357291 263.770025,47.6435615 262.720215,46.2861328 C261.670405,44.9287042 260.105479,44.25 258.025391,44.25 C255.925771,44.25 254.341314,44.9287042 253.271973,46.2861328 C252.202631,47.6435615 251.667969,49.6357291 251.667969,52.2626953 Z M80.9111328,11.2626953 C80.9111328,14.7490409 80.0395595,17.4589747 78.2963867,19.3925781 C76.5532139,21.3261815 74.0849769,22.2929688 70.8916016,22.2929688 C67.6591635,22.2929688 65.1762782,21.3335057 63.4428711,19.4145508 C61.709464,17.4955959 60.8427734,14.7685724 60.8427734,11.2333984 C60.8427734,7.69822451 61.7143468,4.98340791 63.4575195,3.08886719 C65.2006923,1.19432646 67.6884604,0.247070312 70.9208984,0.247070312 C74.1045081,0.247070312 76.565421,1.20897476 78.3037109,3.1328125 C80.0420009,5.05665024 80.9111328,7.76658408 80.9111328,11.2626953 Z M64.5634766,11.2626953 C64.5634766,13.8994272 65.0956978,15.898919 66.1601562,17.2612305 C67.2246147,18.623542 68.8017474,19.3046875 70.8916016,19.3046875 C72.9716901,19.3046875 74.5414986,18.6308661 75.6010742,17.2832031 C76.6606498,15.9355401 77.1904297,13.9287243 77.1904297,11.2626953 C77.1904297,8.63572905 76.6655326,6.64356147 75.6157227,5.28613281 C74.5659127,3.92870415 73.000987,3.25 70.9208984,3.25 C68.8212786,3.25 67.2368218,3.92870415 66.1674805,5.28613281 C65.0981392,6.64356147 64.5634766,8.63572905 64.5634766,11.2626953 L64.5634766,11.2626953 Z M93.3037109,22 L93.3037109,0.583984375 L96.8046875,0.583984375 L96.8046875,22 L93.3037109,22 Z M121.472656,11.2626953 C121.472656,14.7490409 120.601083,17.4589747 118.85791,19.3925781 C117.114737,21.3261815 114.6465,22.2929688 111.453125,22.2929688 C108.220687,22.2929688 105.737802,21.3335057 104.004395,19.4145508 C102.270987,17.4955959 101.404297,14.7685724 101.404297,11.2333984 C101.404297,7.69822451 102.27587,4.98340791 104.019043,3.08886719 C105.762216,1.19432646 108.249984,0.247070312 111.482422,0.247070312 C114.666032,0.247070312 117.126944,1.20897476 118.865234,3.1328125 C120.603524,5.05665024 121.472656,7.76658408 121.472656,11.2626953 L121.472656,11.2626953 Z M105.125,11.2626953 C105.125,13.8994272 105.657221,15.898919 106.72168,17.2612305 C107.786138,18.623542 109.363271,19.3046875 111.453125,19.3046875 C113.533214,19.3046875 115.103022,18.6308661 116.162598,17.2832031 C117.222173,15.9355401 117.751953,13.9287243 117.751953,11.2626953 C117.751953,8.63572905 117.227056,6.64356147 116.177246,5.28613281 C115.127436,3.92870415 113.56251,3.25 111.482422,3.25 C109.382802,3.25 107.798345,3.92870415 106.729004,5.28613281 C105.659663,6.64356147 105.125,8.63572905 105.125,11.2626953 L105.125,11.2626953 Z M133.865234,22 L133.865234,0.583984375 L137.366211,0.583984375 L137.366211,22 L133.865234,22 Z M162.03418,11.2626953 C162.03418,14.7490409 161.162606,17.4589747 159.419434,19.3925781 C157.676261,21.3261815 155.208024,22.2929688 152.014648,22.2929688 C148.78221,22.2929688 146.299325,21.3335057 144.565918,19.4145508 C142.832511,17.4955959 141.96582,14.7685724 141.96582,11.2333984 C141.96582,7.69822451 142.837394,4.98340791 144.580566,3.08886719 C146.323739,1.19432646 148.811507,0.247070312 152.043945,0.247070312 C155.227555,0.247070312 157.688468,1.20897476 159.426758,3.1328125 C161.165048,5.05665024 162.03418,7.76658408 162.03418,11.2626953 L162.03418,11.2626953 Z M145.686523,11.2626953 C145.686523,13.8994272 146.218745,15.898919 147.283203,17.2612305 C148.347662,18.623542 149.924794,19.3046875 152.014648,19.3046875 C154.094737,19.3046875 155.664545,18.6308661 156.724121,17.2832031 C157.783697,15.9355401 158.313477,13.9287243 158.313477,11.2626953 C158.313477,8.63572905 157.788579,6.64356147 156.73877,5.28613281 C155.68896,3.92870415 154.124034,3.25 152.043945,3.25 C149.944325,3.25 148.359869,3.92870415 147.290527,5.28613281 C146.221186,6.64356147 145.686523,8.63572905 145.686523,11.2626953 L145.686523,11.2626953 Z M174.426758,22 L174.426758,0.583984375 L177.927734,0.583984375 L177.927734,22 L174.426758,22 Z M202.595703,11.2626953 C202.595703,14.7490409 201.72413,17.4589747 199.980957,19.3925781 C198.237784,21.3261815 195.769547,22.2929688 192.576172,22.2929688 C189.343734,22.2929688 186.860849,21.3335057 185.127441,19.4145508 C183.394034,17.4955959 182.527344,14.7685724 182.527344,11.2333984 C182.527344,7.69822451 183.398917,4.98340791 185.14209,3.08886719 C186.885263,1.19432646 189.373031,0.247070312 192.605469,0.247070312 C195.789078,0.247070312 198.249991,1.20897476 199.988281,3.1328125 C201.726571,5.05665024 202.595703,7.76658408 202.595703,11.2626953 L202.595703,11.2626953 Z M186.248047,11.2626953 C186.248047,13.8994272 186.780268,15.898919 187.844727,17.2612305 C188.909185,18.623542 190.486318,19.3046875 192.576172,19.3046875 C194.65626,19.3046875 196.226069,18.6308661 197.285645,17.2832031 C198.34522,15.9355401 198.875,13.9287243 198.875,11.2626953 C198.875,8.63572905 198.350103,6.64356147 197.300293,5.28613281 C196.250483,3.92870415 194.685557,3.25 192.605469,3.25 C190.505849,3.25 188.921392,3.92870415 187.852051,5.28613281 C186.782709,6.64356147 186.248047,8.63572905 186.248047,11.2626953 L186.248047,11.2626953 Z M214.988281,22 L214.988281,0.583984375 L218.489258,0.583984375 L218.489258,22 L214.988281,22 Z M243.157227,11.2626953 C243.157227,14.7490409 242.285653,17.4589747 240.54248,19.3925781 C238.799308,21.3261815 236.331071,22.2929688 233.137695,22.2929688 C229.905257,22.2929688 227.422372,21.3335057 225.688965,19.4145508 C223.955558,17.4955959 223.088867,14.7685724 223.088867,11.2333984 C223.088867,7.69822451 223.960441,4.98340791 225.703613,3.08886719 C227.446786,1.19432646 229.934554,0.247070312 233.166992,0.247070312 C236.350602,0.247070312 238.811515,1.20897476 240.549805,3.1328125 C242.288095,5.05665024 243.157227,7.76658408 243.157227,11.2626953 L243.157227,11.2626953 Z M226.80957,11.2626953 C226.80957,13.8994272 227.341792,15.898919 228.40625,17.2612305 C229.470708,18.623542 231.047841,19.3046875 233.137695,19.3046875 C235.217784,19.3046875 236.787592,18.6308661 237.847168,17.2832031 C238.906744,15.9355401 239.436523,13.9287243 239.436523,11.2626953 C239.436523,8.63572905 238.911626,6.64356147 237.861816,5.28613281 C236.812006,3.92870415 235.247081,3.25 233.166992,3.25 C231.067372,3.25 229.482916,3.92870415 228.413574,5.28613281 C227.344233,6.64356147 226.80957,8.63572905 226.80957,11.2626953 Z M101.191895,256.262695 C101.191895,259.749041 100.320321,262.458975 98.5771484,264.392578 C96.8339757,266.326182 94.3657386,267.292969 91.1723633,267.292969 C87.9399252,267.292969 85.4570399,266.333506 83.7236328,264.414551 C81.9902257,262.495596 81.1235352,259.768572 81.1235352,256.233398 C81.1235352,252.698225 81.9951085,249.983408 83.7382812,248.088867 C85.481454,246.194326 87.9692221,245.24707 91.2016602,245.24707 C94.3852698,245.24707 96.8461827,246.208975 98.5844727,248.132812 C100.322763,250.05665 101.191895,252.766584 101.191895,256.262695 Z M84.8442383,256.262695 C84.8442383,258.899427 85.3764595,260.898919 86.440918,262.26123 C87.5053764,263.623542 89.0825091,264.304688 91.1723633,264.304688 C93.2524518,264.304688 94.8222603,263.630866 95.8818359,262.283203 C96.9414115,260.93554 97.4711914,258.928724 97.4711914,256.262695 C97.4711914,253.635729 96.9462943,251.643561 95.8964844,250.286133 C94.8466744,248.928704 93.2817487,248.25 91.2016602,248.25 C89.1020403,248.25 87.5175835,248.928704 86.4482422,250.286133 C85.3789009,251.643561 84.8442383,253.635729 84.8442383,256.262695 L84.8442383,256.262695 Z M113.584473,267 L113.584473,245.583984 L117.085449,245.583984 L117.085449,267 L113.584473,267 Z M141.753418,256.262695 C141.753418,259.749041 140.881845,262.458975 139.138672,264.392578 C137.395499,266.326182 134.927262,267.292969 131.733887,267.292969 C128.501449,267.292969 126.018563,266.333506 124.285156,264.414551 C122.551749,262.495596 121.685059,259.768572 121.685059,256.233398 C121.685059,252.698225 122.556632,249.983408 124.299805,248.088867 C126.042977,246.194326 128.530746,245.24707 131.763184,245.24707 C134.946793,245.24707 137.407706,246.208975 139.145996,248.132812 C140.884286,250.05665 141.753418,252.766584 141.753418,256.262695 L141.753418,256.262695 Z M125.405762,256.262695 C125.405762,258.899427 125.937983,260.898919 127.002441,262.26123 C128.0669,263.623542 129.644033,264.304688 131.733887,264.304688 C133.813975,264.304688 135.383784,263.630866 136.443359,262.283203 C137.502935,260.93554 138.032715,258.928724 138.032715,256.262695 C138.032715,253.635729 137.507818,251.643561 136.458008,250.286133 C135.408198,248.928704 133.843272,248.25 131.763184,248.25 C129.663564,248.25 128.079107,248.928704 127.009766,250.286133 C125.940424,251.643561 125.405762,253.635729 125.405762,256.262695 L125.405762,256.262695 Z M154.145996,267 L154.145996,245.583984 L157.646973,245.583984 L157.646973,267 L154.145996,267 Z M182.314941,256.262695 C182.314941,259.749041 181.443368,262.458975 179.700195,264.392578 C177.957023,266.326182 175.488785,267.292969 172.29541,267.292969 C169.062972,267.292969 166.580087,266.333506 164.84668,264.414551 C163.113273,262.495596 162.246582,259.768572 162.246582,256.233398 C162.246582,252.698225 163.118155,249.983408 164.861328,248.088867 C166.604501,246.194326 169.092269,245.24707 172.324707,245.24707 C175.508317,245.24707 177.96923,246.208975 179.70752,248.132812 C181.445809,250.05665 182.314941,252.766584 182.314941,256.262695 L182.314941,256.262695 Z M165.967285,256.262695 C165.967285,258.899427 166.499506,260.898919 167.563965,262.26123 C168.628423,263.623542 170.205556,264.304688 172.29541,264.304688 C174.375499,264.304688 175.945307,263.630866 177.004883,262.283203 C178.064458,260.93554 178.594238,258.928724 178.594238,256.262695 C178.594238,253.635729 178.069341,251.643561 177.019531,250.286133 C175.969721,248.928704 174.404796,248.25 172.324707,248.25 C170.225087,248.25 168.64063,248.928704 167.571289,250.286133 C166.501948,251.643561 165.967285,253.635729 165.967285,256.262695 L165.967285,256.262695 Z M194.70752,267 L194.70752,245.583984 L198.208496,245.583984 L198.208496,267 L194.70752,267 Z M222.876465,256.262695 C222.876465,259.749041 222.004892,262.458975 220.261719,264.392578 C218.518546,266.326182 216.050309,267.292969 212.856934,267.292969 C209.624496,267.292969 207.14161,266.333506 205.408203,264.414551 C203.674796,262.495596 202.808105,259.768572 202.808105,256.233398 C202.808105,252.698225 203.679679,249.983408 205.422852,248.088867 C207.166024,246.194326 209.653792,245.24707 212.88623,245.24707 C216.06984,245.24707 218.530753,246.208975 220.269043,248.132812 C222.007333,250.05665 222.876465,252.766584 222.876465,256.262695 L222.876465,256.262695 Z M206.528809,256.262695 C206.528809,258.899427 207.06103,260.898919 208.125488,262.26123 C209.189947,263.623542 210.767079,264.304688 212.856934,264.304688 C214.937022,264.304688 216.506831,263.630866 217.566406,262.283203 C218.625982,260.93554 219.155762,258.928724 219.155762,256.262695 C219.155762,253.635729 218.630865,251.643561 217.581055,250.286133 C216.531245,248.928704 214.966319,248.25 212.88623,248.25 C210.786611,248.25 209.202154,248.928704 208.132812,250.286133 C207.063471,251.643561 206.528809,253.635729 206.528809,256.262695 Z M16.7583008,104 L16.7583008,82.5839844 L20.2592773,82.5839844 L20.2592773,104 L16.7583008,104 Z M44.9272461,93.2626953 C44.9272461,96.7490409 44.0556728,99.4589747 42.3125,101.392578 C40.5693272,103.326182 38.1010902,104.292969 34.9077148,104.292969 C31.6752768,104.292969 29.1923915,103.333506 27.4589844,101.414551 C25.7255773,99.4955959 24.8588867,96.7685724 24.8588867,93.2333984 C24.8588867,89.6982245 25.73046,86.9834079 27.4736328,85.0888672 C29.2168056,83.1943265 31.7045737,82.2470703 34.9370117,82.2470703 C38.1206214,82.2470703 40.5815343,83.2089748 42.3198242,85.1328125 C44.0581142,87.0566502 44.9272461,89.7665841 44.9272461,93.2626953 L44.9272461,93.2626953 Z M28.5795898,93.2626953 C28.5795898,95.8994272 29.1118111,97.898919 30.1762695,99.2612305 C31.240728,100.623542 32.8178606,101.304688 34.9077148,101.304688 C36.9878034,101.304688 38.5576119,100.630866 39.6171875,99.2832031 C40.6767631,97.9355401 41.206543,95.9287243 41.206543,93.2626953 C41.206543,90.6357291 40.6816459,88.6435615 39.6318359,87.2861328 C38.582026,85.9287042 37.0171002,85.25 34.9370117,85.25 C32.8373918,85.25 31.252935,85.9287042 30.1835938,87.2861328 C29.1142525,88.6435615 28.5795898,90.6357291 28.5795898,93.2626953 L28.5795898,93.2626953 Z M57.3198242,104 L57.3198242,82.5839844 L60.8208008,82.5839844 L60.8208008,104 L57.3198242,104 Z M85.4887695,93.2626953 C85.4887695,96.7490409 84.6171962,99.4589747 82.8740234,101.392578 C81.1308507,103.326182 78.6626136,104.292969 75.4692383,104.292969 C72.2368002,104.292969 69.7539149,103.333506 68.0205078,101.414551 C66.2871007,99.4955959 65.4204102,96.7685724 65.4204102,93.2333984 C65.4204102,89.6982245 66.2919835,86.9834079 68.0351562,85.0888672 C69.778329,83.1943265 72.2660971,82.2470703 75.4985352,82.2470703 C78.6821448,82.2470703 81.1430577,83.2089748 82.8813477,85.1328125 C84.6196376,87.0566502 85.4887695,89.7665841 85.4887695,93.2626953 L85.4887695,93.2626953 Z M69.1411133,93.2626953 C69.1411133,95.8994272 69.6733345,97.898919 70.737793,99.2612305 C71.8022514,100.623542 73.3793841,101.304688 75.4692383,101.304688 C77.5493268,101.304688 79.1191353,100.630866 80.1787109,99.2832031 C81.2382865,97.9355401 81.7680664,95.9287243 81.7680664,93.2626953 C81.7680664,90.6357291 81.2431693,88.6435615 80.1933594,87.2861328 C79.1435494,85.9287042 77.5786237,85.25 75.4985352,85.25 C73.3989153,85.25 71.8144585,85.9287042 70.7451172,87.2861328 C69.6757759,88.6435615 69.1411133,90.6357291 69.1411133,93.2626953 L69.1411133,93.2626953 Z M97.8813477,104 L97.8813477,82.5839844 L101.382324,82.5839844 L101.382324,104 L97.8813477,104 Z M126.050293,93.2626953 C126.050293,96.7490409 125.17872,99.4589747 123.435547,101.392578 C121.692374,103.326182 119.224137,104.292969 116.030762,104.292969 C112.798324,104.292969 110.315438,103.333506 108.582031,101.414551 C106.848624,99.4955959 105.981934,96.7685724 105.981934,93.2333984 C105.981934,89.6982245 106.853507,86.9834079 108.59668,85.0888672 C110.339852,83.1943265 112.827621,82.2470703 116.060059,82.2470703 C119.243668,82.2470703 121.704581,83.2089748 123.442871,85.1328125 C125.181161,87.0566502 126.050293,89.7665841 126.050293,93.2626953 L126.050293,93.2626953 Z M109.702637,93.2626953 C109.702637,95.8994272 110.234858,97.898919 111.299316,99.2612305 C112.363775,100.623542 113.940908,101.304688 116.030762,101.304688 C118.11085,101.304688 119.680659,100.630866 120.740234,99.2832031 C121.79981,97.9355401 122.32959,95.9287243 122.32959,93.2626953 C122.32959,90.6357291 121.804693,88.6435615 120.754883,87.2861328 C119.705073,85.9287042 118.140147,85.25 116.060059,85.25 C113.960439,85.25 112.375982,85.9287042 111.306641,87.2861328 C110.237299,88.6435615 109.702637,90.6357291 109.702637,93.2626953 L109.702637,93.2626953 Z M138.442871,104 L138.442871,82.5839844 L141.943848,82.5839844 L141.943848,104 L138.442871,104 Z M166.611816,93.2626953 C166.611816,96.7490409 165.740243,99.4589747 163.99707,101.392578 C162.253898,103.326182 159.78566,104.292969 156.592285,104.292969 C153.359847,104.292969 150.876962,103.333506 149.143555,101.414551 C147.410148,99.4955959 146.543457,96.7685724 146.543457,93.2333984 C146.543457,89.6982245 147.41503,86.9834079 149.158203,85.0888672 C150.901376,83.1943265 153.389144,82.2470703 156.621582,82.2470703 C159.805192,82.2470703 162.266105,83.2089748 164.004395,85.1328125 C165.742684,87.0566502 166.611816,89.7665841 166.611816,93.2626953 L166.611816,93.2626953 Z M150.26416,93.2626953 C150.26416,95.8994272 150.796381,97.898919 151.86084,99.2612305 C152.925298,100.623542 154.502431,101.304688 156.592285,101.304688 C158.672374,101.304688 160.242182,100.630866 161.301758,99.2832031 C162.361333,97.9355401 162.891113,95.9287243 162.891113,93.2626953 C162.891113,90.6357291 162.366216,88.6435615 161.316406,87.2861328 C160.266596,85.9287042 158.701671,85.25 156.621582,85.25 C154.521962,85.25 152.937505,85.9287042 151.868164,87.2861328 C150.798823,88.6435615 150.26416,90.6357291 150.26416,93.2626953 L150.26416,93.2626953 Z M179.004395,104 L179.004395,82.5839844 L182.505371,82.5839844 L182.505371,104 L179.004395,104 Z M207.17334,93.2626953 C207.17334,96.7490409 206.301767,99.4589747 204.558594,101.392578 C202.815421,103.326182 200.347184,104.292969 197.153809,104.292969 C193.921371,104.292969 191.438485,103.333506 189.705078,101.414551 C187.971671,99.4955959 187.10498,96.7685724 187.10498,93.2333984 C187.10498,89.6982245 187.976554,86.9834079 189.719727,85.0888672 C191.462899,83.1943265 193.950667,82.2470703 197.183105,82.2470703 C200.366715,82.2470703 202.827628,83.2089748 204.565918,85.1328125 C206.304208,87.0566502 207.17334,89.7665841 207.17334,93.2626953 L207.17334,93.2626953 Z M190.825684,93.2626953 C190.825684,95.8994272 191.357905,97.898919 192.422363,99.2612305 C193.486822,100.623542 195.063954,101.304688 197.153809,101.304688 C199.233897,101.304688 200.803706,100.630866 201.863281,99.2832031 C202.922857,97.9355401 203.452637,95.9287243 203.452637,93.2626953 C203.452637,90.6357291 202.92774,88.6435615 201.87793,87.2861328 C200.82812,85.9287042 199.263194,85.25 197.183105,85.25 C195.083486,85.25 193.499029,85.9287042 192.429688,87.2861328 C191.360346,88.6435615 190.825684,90.6357291 190.825684,93.2626953 L190.825684,93.2626953 Z M219.565918,104 L219.565918,82.5839844 L223.066895,82.5839844 L223.066895,104 L219.565918,104 Z M247.734863,93.2626953 C247.734863,96.7490409 246.86329,99.4589747 245.120117,101.392578 C243.376944,103.326182 240.908707,104.292969 237.715332,104.292969 C234.482894,104.292969 232.000009,103.333506 230.266602,101.414551 C228.533194,99.4955959 227.666504,96.7685724 227.666504,93.2333984 C227.666504,89.6982245 228.538077,86.9834079 230.28125,85.0888672 C232.024423,83.1943265 234.512191,82.2470703 237.744629,82.2470703 C240.928239,82.2470703 243.389151,83.2089748 245.127441,85.1328125 C246.865731,87.0566502 247.734863,89.7665841 247.734863,93.2626953 L247.734863,93.2626953 Z M231.387207,93.2626953 C231.387207,95.8994272 231.919428,97.898919 232.983887,99.2612305 C234.048345,100.623542 235.625478,101.304688 237.715332,101.304688 C239.795421,101.304688 241.365229,100.630866 242.424805,99.2832031 C243.48438,97.9355401 244.01416,95.9287243 244.01416,93.2626953 C244.01416,90.6357291 243.489263,88.6435615 242.439453,87.2861328 C241.389643,85.9287042 239.824717,85.25 237.744629,85.25 C235.645009,85.25 234.060552,85.9287042 232.991211,87.2861328 C231.92187,88.6435615 231.387207,90.6357291 231.387207,93.2626953 L231.387207,93.2626953 Z M260.127441,104 L260.127441,82.5839844 L263.628418,82.5839844 L263.628418,104 L260.127441,104 Z M288.296387,93.2626953 C288.296387,96.7490409 287.424813,99.4589747 285.681641,101.392578 C283.938468,103.326182 281.470231,104.292969 278.276855,104.292969 C275.044417,104.292969 272.561532,103.333506 270.828125,101.414551 C269.094718,99.4955959 268.228027,96.7685724 268.228027,93.2333984 C268.228027,89.6982245 269.099601,86.9834079 270.842773,85.0888672 C272.585946,83.1943265 275.073714,82.2470703 278.306152,82.2470703 C281.489762,82.2470703 283.950675,83.2089748 285.688965,85.1328125 C287.427255,87.0566502 288.296387,89.7665841 288.296387,93.2626953 L288.296387,93.2626953 Z M271.94873,93.2626953 C271.94873,95.8994272 272.480952,97.898919 273.54541,99.2612305 C274.609869,100.623542 276.187001,101.304688 278.276855,101.304688 C280.356944,101.304688 281.926753,100.630866 282.986328,99.2832031 C284.045904,97.9355401 284.575684,95.9287243 284.575684,93.2626953 C284.575684,90.6357291 284.050786,88.6435615 283.000977,87.2861328 C281.951167,85.9287042 280.386241,85.25 278.306152,85.25 C276.206532,85.25 274.622076,85.9287042 273.552734,87.2861328 C272.483393,88.6435615 271.94873,90.6357291 271.94873,93.2626953 Z M20.0688477,134.262695 C20.0688477,137.749041 19.1972743,140.458975 17.4541016,142.392578 C15.7109288,144.326182 13.2426917,145.292969 10.0493164,145.292969 C6.81687837,145.292969 4.33399304,144.333506 2.60058594,142.414551 C0.867178833,140.495596 0.00048828125,137.768572 0.00048828125,134.233398 C0.00048828125,130.698225 0.872061597,127.983408 2.61523438,126.088867 C4.35840715,124.194326 6.84617524,123.24707 10.0786133,123.24707 C13.2622229,123.24707 15.7231358,124.208975 17.4614258,126.132812 C19.1997157,128.05665 20.0688477,130.766584 20.0688477,134.262695 Z M3.72119141,134.262695 C3.72119141,136.899427 4.25341265,138.898919 5.31787109,140.26123 C6.38232954,141.623542 7.95946221,142.304688 10.0493164,142.304688 C12.1294049,142.304688 13.6992135,141.630866 14.7587891,140.283203 C15.8183647,138.93554 16.3481445,136.928724 16.3481445,134.262695 C16.3481445,131.635729 15.8232474,129.643561 14.7734375,128.286133 C13.7236276,126.928704 12.1587018,126.25 10.0786133,126.25 C7.97899341,126.25 6.3945366,126.928704 5.32519531,128.286133 C4.25585403,129.643561 3.72119141,131.635729 3.72119141,134.262695 L3.72119141,134.262695 Z M32.4614258,145 L32.4614258,123.583984 L35.9624023,123.583984 L35.9624023,145 L32.4614258,145 Z M60.6303711,134.262695 C60.6303711,137.749041 59.7587978,140.458975 58.015625,142.392578 C56.2724522,144.326182 53.8042152,145.292969 50.6108398,145.292969 C47.3784018,145.292969 44.8955165,144.333506 43.1621094,142.414551 C41.4287023,140.495596 40.5620117,137.768572 40.5620117,134.233398 C40.5620117,130.698225 41.433585,127.983408 43.1767578,126.088867 C44.9199306,124.194326 47.4076987,123.24707 50.6401367,123.24707 C53.8237464,123.24707 56.2846593,124.208975 58.0229492,126.132812 C59.7612392,128.05665 60.6303711,130.766584 60.6303711,134.262695 L60.6303711,134.262695 Z M44.2827148,134.262695 C44.2827148,136.899427 44.8149361,138.898919 45.8793945,140.26123 C46.943853,141.623542 48.5209856,142.304688 50.6108398,142.304688 C52.6909284,142.304688 54.2607369,141.630866 55.3203125,140.283203 C56.3798881,138.93554 56.909668,136.928724 56.909668,134.262695 C56.909668,131.635729 56.3847709,129.643561 55.3349609,128.286133 C54.285151,126.928704 52.7202252,126.25 50.6401367,126.25 C48.5405168,126.25 46.95606,126.928704 45.8867187,128.286133 C44.8173775,129.643561 44.2827148,131.635729 44.2827148,134.262695 L44.2827148,134.262695 Z M73.0229492,145 L73.0229492,123.583984 L76.5239258,123.583984 L76.5239258,145 L73.0229492,145 Z M101.191895,134.262695 C101.191895,137.749041 100.320321,140.458975 98.5771484,142.392578 C96.8339757,144.326182 94.3657386,145.292969 91.1723633,145.292969 C87.9399252,145.292969 85.4570399,144.333506 83.7236328,142.414551 C81.9902257,140.495596 81.1235352,137.768572 81.1235352,134.233398 C81.1235352,130.698225 81.9951085,127.983408 83.7382812,126.088867 C85.481454,124.194326 87.9692221,123.24707 91.2016602,123.24707 C94.3852698,123.24707 96.8461827,124.208975 98.5844727,126.132812 C100.322763,128.05665 101.191895,130.766584 101.191895,134.262695 L101.191895,134.262695 Z M84.8442383,134.262695 C84.8442383,136.899427 85.3764595,138.898919 86.440918,140.26123 C87.5053764,141.623542 89.0825091,142.304688 91.1723633,142.304688 C93.2524518,142.304688 94.8222603,141.630866 95.8818359,140.283203 C96.9414115,138.93554 97.4711914,136.928724 97.4711914,134.262695 C97.4711914,131.635729 96.9462943,129.643561 95.8964844,128.286133 C94.8466744,126.928704 93.2817487,126.25 91.2016602,126.25 C89.1020403,126.25 87.5175835,126.928704 86.4482422,128.286133 C85.3789009,129.643561 84.8442383,131.635729 84.8442383,134.262695 L84.8442383,134.262695 Z M113.584473,145 L113.584473,123.583984 L117.085449,123.583984 L117.085449,145 L113.584473,145 Z M141.753418,134.262695 C141.753418,137.749041 140.881845,140.458975 139.138672,142.392578 C137.395499,144.326182 134.927262,145.292969 131.733887,145.292969 C128.501449,145.292969 126.018563,144.333506 124.285156,142.414551 C122.551749,140.495596 121.685059,137.768572 121.685059,134.233398 C121.685059,130.698225 122.556632,127.983408 124.299805,126.088867 C126.042977,124.194326 128.530746,123.24707 131.763184,123.24707 C134.946793,123.24707 137.407706,124.208975 139.145996,126.132812 C140.884286,128.05665 141.753418,130.766584 141.753418,134.262695 L141.753418,134.262695 Z M125.405762,134.262695 C125.405762,136.899427 125.937983,138.898919 127.002441,140.26123 C128.0669,141.623542 129.644033,142.304688 131.733887,142.304688 C133.813975,142.304688 135.383784,141.630866 136.443359,140.283203 C137.502935,138.93554 138.032715,136.928724 138.032715,134.262695 C138.032715,131.635729 137.507818,129.643561 136.458008,128.286133 C135.408198,126.928704 133.843272,126.25 131.763184,126.25 C129.663564,126.25 128.079107,126.928704 127.009766,128.286133 C125.940424,129.643561 125.405762,131.635729 125.405762,134.262695 L125.405762,134.262695 Z M154.145996,145 L154.145996,123.583984 L157.646973,123.583984 L157.646973,145 L154.145996,145 Z M182.314941,134.262695 C182.314941,137.749041 181.443368,140.458975 179.700195,142.392578 C177.957023,144.326182 175.488785,145.292969 172.29541,145.292969 C169.062972,145.292969 166.580087,144.333506 164.84668,142.414551 C163.113273,140.495596 162.246582,137.768572 162.246582,134.233398 C162.246582,130.698225 163.118155,127.983408 164.861328,126.088867 C166.604501,124.194326 169.092269,123.24707 172.324707,123.24707 C175.508317,123.24707 177.96923,124.208975 179.70752,126.132812 C181.445809,128.05665 182.314941,130.766584 182.314941,134.262695 L182.314941,134.262695 Z M165.967285,134.262695 C165.967285,136.899427 166.499506,138.898919 167.563965,140.26123 C168.628423,141.623542 170.205556,142.304688 172.29541,142.304688 C174.375499,142.304688 175.945307,141.630866 177.004883,140.283203 C178.064458,138.93554 178.594238,136.928724 178.594238,134.262695 C178.594238,131.635729 178.069341,129.643561 177.019531,128.286133 C175.969721,126.928704 174.404796,126.25 172.324707,126.25 C170.225087,126.25 168.64063,126.928704 167.571289,128.286133 C166.501948,129.643561 165.967285,131.635729 165.967285,134.262695 L165.967285,134.262695 Z M194.70752,145 L194.70752,123.583984 L198.208496,123.583984 L198.208496,145 L194.70752,145 Z M222.876465,134.262695 C222.876465,137.749041 222.004892,140.458975 220.261719,142.392578 C218.518546,144.326182 216.050309,145.292969 212.856934,145.292969 C209.624496,145.292969 207.14161,144.333506 205.408203,142.414551 C203.674796,140.495596 202.808105,137.768572 202.808105,134.233398 C202.808105,130.698225 203.679679,127.983408 205.422852,126.088867 C207.166024,124.194326 209.653792,123.24707 212.88623,123.24707 C216.06984,123.24707 218.530753,124.208975 220.269043,126.132812 C222.007333,128.05665 222.876465,130.766584 222.876465,134.262695 L222.876465,134.262695 Z M206.528809,134.262695 C206.528809,136.899427 207.06103,138.898919 208.125488,140.26123 C209.189947,141.623542 210.767079,142.304688 212.856934,142.304688 C214.937022,142.304688 216.506831,141.630866 217.566406,140.283203 C218.625982,138.93554 219.155762,136.928724 219.155762,134.262695 C219.155762,131.635729 218.630865,129.643561 217.581055,128.286133 C216.531245,126.928704 214.966319,126.25 212.88623,126.25 C210.786611,126.25 209.202154,126.928704 208.132812,128.286133 C207.063471,129.643561 206.528809,131.635729 206.528809,134.262695 L206.528809,134.262695 Z M235.269043,145 L235.269043,123.583984 L238.77002,123.583984 L238.77002,145 L235.269043,145 Z M263.437988,134.262695 C263.437988,137.749041 262.566415,140.458975 260.823242,142.392578 C259.080069,144.326182 256.611832,145.292969 253.418457,145.292969 C250.186019,145.292969 247.703134,144.333506 245.969727,142.414551 C244.236319,140.495596 243.369629,137.768572 243.369629,134.233398 C243.369629,130.698225 244.241202,127.983408 245.984375,126.088867 C247.727548,124.194326 250.215316,123.24707 253.447754,123.24707 C256.631364,123.24707 259.092276,124.208975 260.830566,126.132812 C262.568856,128.05665 263.437988,130.766584 263.437988,134.262695 L263.437988,134.262695 Z M247.090332,134.262695 C247.090332,136.899427 247.622553,138.898919 248.687012,140.26123 C249.75147,141.623542 251.328603,142.304688 253.418457,142.304688 C255.498546,142.304688 257.068354,141.630866 258.12793,140.283203 C259.187505,138.93554 259.717285,136.928724 259.717285,134.262695 C259.717285,131.635729 259.192388,129.643561 258.142578,128.286133 C257.092768,126.928704 255.527842,126.25 253.447754,126.25 C251.348134,126.25 249.763677,126.928704 248.694336,128.286133 C247.624995,129.643561 247.090332,131.635729 247.090332,134.262695 L247.090332,134.262695 Z M275.830566,145 L275.830566,123.583984 L279.331543,123.583984 L279.331543,145 L275.830566,145 Z M303.999512,134.262695 C303.999512,137.749041 303.127938,140.458975 301.384766,142.392578 C299.641593,144.326182 297.173356,145.292969 293.97998,145.292969 C290.747542,145.292969 288.264657,144.333506 286.53125,142.414551 C284.797843,140.495596 283.931152,137.768572 283.931152,134.233398 C283.931152,130.698225 284.802726,127.983408 286.545898,126.088867 C288.289071,124.194326 290.776839,123.24707 294.009277,123.24707 C297.192887,123.24707 299.6538,124.208975 301.39209,126.132812 C303.13038,128.05665 303.999512,130.766584 303.999512,134.262695 L303.999512,134.262695 Z M287.651855,134.262695 C287.651855,136.899427 288.184077,138.898919 289.248535,140.26123 C290.312994,141.623542 291.890126,142.304688 293.97998,142.304688 C296.060069,142.304688 297.629878,141.630866 298.689453,140.283203 C299.749029,138.93554 300.278809,136.928724 300.278809,134.262695 C300.278809,131.635729 299.753911,129.643561 298.704102,128.286133 C297.654292,126.928704 296.089366,126.25 294.009277,126.25 C291.909657,126.25 290.325201,126.928704 289.255859,128.286133 C288.186518,129.643561 287.651855,131.635729 287.651855,134.262695 Z M16.7583008,186 L16.7583008,164.583984 L20.2592773,164.583984 L20.2592773,186 L16.7583008,186 Z M44.9272461,175.262695 C44.9272461,178.749041 44.0556728,181.458975 42.3125,183.392578 C40.5693272,185.326182 38.1010902,186.292969 34.9077148,186.292969 C31.6752768,186.292969 29.1923915,185.333506 27.4589844,183.414551 C25.7255773,181.495596 24.8588867,178.768572 24.8588867,175.233398 C24.8588867,171.698225 25.73046,168.983408 27.4736328,167.088867 C29.2168056,165.194326 31.7045737,164.24707 34.9370117,164.24707 C38.1206214,164.24707 40.5815343,165.208975 42.3198242,167.132812 C44.0581142,169.05665 44.9272461,171.766584 44.9272461,175.262695 L44.9272461,175.262695 Z M28.5795898,175.262695 C28.5795898,177.899427 29.1118111,179.898919 30.1762695,181.26123 C31.240728,182.623542 32.8178606,183.304688 34.9077148,183.304688 C36.9878034,183.304688 38.5576119,182.630866 39.6171875,181.283203 C40.6767631,179.93554 41.206543,177.928724 41.206543,175.262695 C41.206543,172.635729 40.6816459,170.643561 39.6318359,169.286133 C38.582026,167.928704 37.0171002,167.25 34.9370117,167.25 C32.8373918,167.25 31.252935,167.928704 30.1835938,169.286133 C29.1142525,170.643561 28.5795898,172.635729 28.5795898,175.262695 L28.5795898,175.262695 Z M57.3198242,186 L57.3198242,164.583984 L60.8208008,164.583984 L60.8208008,186 L57.3198242,186 Z M85.4887695,175.262695 C85.4887695,178.749041 84.6171962,181.458975 82.8740234,183.392578 C81.1308507,185.326182 78.6626136,186.292969 75.4692383,186.292969 C72.2368002,186.292969 69.7539149,185.333506 68.0205078,183.414551 C66.2871007,181.495596 65.4204102,178.768572 65.4204102,175.233398 C65.4204102,171.698225 66.2919835,168.983408 68.0351562,167.088867 C69.778329,165.194326 72.2660971,164.24707 75.4985352,164.24707 C78.6821448,164.24707 81.1430577,165.208975 82.8813477,167.132812 C84.6196376,169.05665 85.4887695,171.766584 85.4887695,175.262695 L85.4887695,175.262695 Z M69.1411133,175.262695 C69.1411133,177.899427 69.6733345,179.898919 70.737793,181.26123 C71.8022514,182.623542 73.3793841,183.304688 75.4692383,183.304688 C77.5493268,183.304688 79.1191353,182.630866 80.1787109,181.283203 C81.2382865,179.93554 81.7680664,177.928724 81.7680664,175.262695 C81.7680664,172.635729 81.2431693,170.643561 80.1933594,169.286133 C79.1435494,167.928704 77.5786237,167.25 75.4985352,167.25 C73.3989153,167.25 71.8144585,167.928704 70.7451172,169.286133 C69.6757759,170.643561 69.1411133,172.635729 69.1411133,175.262695 L69.1411133,175.262695 Z M97.8813477,186 L97.8813477,164.583984 L101.382324,164.583984 L101.382324,186 L97.8813477,186 Z M126.050293,175.262695 C126.050293,178.749041 125.17872,181.458975 123.435547,183.392578 C121.692374,185.326182 119.224137,186.292969 116.030762,186.292969 C112.798324,186.292969 110.315438,185.333506 108.582031,183.414551 C106.848624,181.495596 105.981934,178.768572 105.981934,175.233398 C105.981934,171.698225 106.853507,168.983408 108.59668,167.088867 C110.339852,165.194326 112.827621,164.24707 116.060059,164.24707 C119.243668,164.24707 121.704581,165.208975 123.442871,167.132812 C125.181161,169.05665 126.050293,171.766584 126.050293,175.262695 L126.050293,175.262695 Z M109.702637,175.262695 C109.702637,177.899427 110.234858,179.898919 111.299316,181.26123 C112.363775,182.623542 113.940908,183.304688 116.030762,183.304688 C118.11085,183.304688 119.680659,182.630866 120.740234,181.283203 C121.79981,179.93554 122.32959,177.928724 122.32959,175.262695 C122.32959,172.635729 121.804693,170.643561 120.754883,169.286133 C119.705073,167.928704 118.140147,167.25 116.060059,167.25 C113.960439,167.25 112.375982,167.928704 111.306641,169.286133 C110.237299,170.643561 109.702637,172.635729 109.702637,175.262695 L109.702637,175.262695 Z M138.442871,186 L138.442871,164.583984 L141.943848,164.583984 L141.943848,186 L138.442871,186 Z M166.611816,175.262695 C166.611816,178.749041 165.740243,181.458975 163.99707,183.392578 C162.253898,185.326182 159.78566,186.292969 156.592285,186.292969 C153.359847,186.292969 150.876962,185.333506 149.143555,183.414551 C147.410148,181.495596 146.543457,178.768572 146.543457,175.233398 C146.543457,171.698225 147.41503,168.983408 149.158203,167.088867 C150.901376,165.194326 153.389144,164.24707 156.621582,164.24707 C159.805192,164.24707 162.266105,165.208975 164.004395,167.132812 C165.742684,169.05665 166.611816,171.766584 166.611816,175.262695 L166.611816,175.262695 Z M150.26416,175.262695 C150.26416,177.899427 150.796381,179.898919 151.86084,181.26123 C152.925298,182.623542 154.502431,183.304688 156.592285,183.304688 C158.672374,183.304688 160.242182,182.630866 161.301758,181.283203 C162.361333,179.93554 162.891113,177.928724 162.891113,175.262695 C162.891113,172.635729 162.366216,170.643561 161.316406,169.286133 C160.266596,167.928704 158.701671,167.25 156.621582,167.25 C154.521962,167.25 152.937505,167.928704 151.868164,169.286133 C150.798823,170.643561 150.26416,172.635729 150.26416,175.262695 L150.26416,175.262695 Z M179.004395,186 L179.004395,164.583984 L182.505371,164.583984 L182.505371,186 L179.004395,186 Z M207.17334,175.262695 C207.17334,178.749041 206.301767,181.458975 204.558594,183.392578 C202.815421,185.326182 200.347184,186.292969 197.153809,186.292969 C193.921371,186.292969 191.438485,185.333506 189.705078,183.414551 C187.971671,181.495596 187.10498,178.768572 187.10498,175.233398 C187.10498,171.698225 187.976554,168.983408 189.719727,167.088867 C191.462899,165.194326 193.950667,164.24707 197.183105,164.24707 C200.366715,164.24707 202.827628,165.208975 204.565918,167.132812 C206.304208,169.05665 207.17334,171.766584 207.17334,175.262695 L207.17334,175.262695 Z M190.825684,175.262695 C190.825684,177.899427 191.357905,179.898919 192.422363,181.26123 C193.486822,182.623542 195.063954,183.304688 197.153809,183.304688 C199.233897,183.304688 200.803706,182.630866 201.863281,181.283203 C202.922857,179.93554 203.452637,177.928724 203.452637,175.262695 C203.452637,172.635729 202.92774,170.643561 201.87793,169.286133 C200.82812,167.928704 199.263194,167.25 197.183105,167.25 C195.083486,167.25 193.499029,167.928704 192.429688,169.286133 C191.360346,170.643561 190.825684,172.635729 190.825684,175.262695 L190.825684,175.262695 Z M219.565918,186 L219.565918,164.583984 L223.066895,164.583984 L223.066895,186 L219.565918,186 Z M247.734863,175.262695 C247.734863,178.749041 246.86329,181.458975 245.120117,183.392578 C243.376944,185.326182 240.908707,186.292969 237.715332,186.292969 C234.482894,186.292969 232.000009,185.333506 230.266602,183.414551 C228.533194,181.495596 227.666504,178.768572 227.666504,175.233398 C227.666504,171.698225 228.538077,168.983408 230.28125,167.088867 C232.024423,165.194326 234.512191,164.24707 237.744629,164.24707 C240.928239,164.24707 243.389151,165.208975 245.127441,167.132812 C246.865731,169.05665 247.734863,171.766584 247.734863,175.262695 L247.734863,175.262695 Z M231.387207,175.262695 C231.387207,177.899427 231.919428,179.898919 232.983887,181.26123 C234.048345,182.623542 235.625478,183.304688 237.715332,183.304688 C239.795421,183.304688 241.365229,182.630866 242.424805,181.283203 C243.48438,179.93554 244.01416,177.928724 244.01416,175.262695 C244.01416,172.635729 243.489263,170.643561 242.439453,169.286133 C241.389643,167.928704 239.824717,167.25 237.744629,167.25 C235.645009,167.25 234.060552,167.928704 232.991211,169.286133 C231.92187,170.643561 231.387207,172.635729 231.387207,175.262695 L231.387207,175.262695 Z M260.127441,186 L260.127441,164.583984 L263.628418,164.583984 L263.628418,186 L260.127441,186 Z M288.296387,175.262695 C288.296387,178.749041 287.424813,181.458975 285.681641,183.392578 C283.938468,185.326182 281.470231,186.292969 278.276855,186.292969 C275.044417,186.292969 272.561532,185.333506 270.828125,183.414551 C269.094718,181.495596 268.228027,178.768572 268.228027,175.233398 C268.228027,171.698225 269.099601,168.983408 270.842773,167.088867 C272.585946,165.194326 275.073714,164.24707 278.306152,164.24707 C281.489762,164.24707 283.950675,165.208975 285.688965,167.132812 C287.427255,169.05665 288.296387,171.766584 288.296387,175.262695 L288.296387,175.262695 Z M271.94873,175.262695 C271.94873,177.899427 272.480952,179.898919 273.54541,181.26123 C274.609869,182.623542 276.187001,183.304688 278.276855,183.304688 C280.356944,183.304688 281.926753,182.630866 282.986328,181.283203 C284.045904,179.93554 284.575684,177.928724 284.575684,175.262695 C284.575684,172.635729 284.050786,170.643561 283.000977,169.286133 C281.951167,167.928704 280.386241,167.25 278.306152,167.25 C276.206532,167.25 274.622076,167.928704 273.552734,169.286133 C272.483393,170.643561 271.94873,172.635729 271.94873,175.262695 Z M37.0390625,227 L37.0390625,205.583984 L40.5400391,205.583984 L40.5400391,227 L37.0390625,227 Z M65.2080078,216.262695 C65.2080078,219.749041 64.3364345,222.458975 62.5932617,224.392578 C60.8500889,226.326182 58.3818519,227.292969 55.1884766,227.292969 C51.9560385,227.292969 49.4731532,226.333506 47.7397461,224.414551 C46.006339,222.495596 45.1396484,219.768572 45.1396484,216.233398 C45.1396484,212.698225 46.0112218,209.983408 47.7543945,208.088867 C49.4975673,206.194326 51.9853354,205.24707 55.2177734,205.24707 C58.4013831,205.24707 60.862296,206.208975 62.6005859,208.132812 C64.3388759,210.05665 65.2080078,212.766584 65.2080078,216.262695 L65.2080078,216.262695 Z M48.8603516,216.262695 C48.8603516,218.899427 49.3925728,220.898919 50.4570312,222.26123 C51.5214897,223.623542 53.0986224,224.304687 55.1884766,224.304687 C57.2685651,224.304687 58.8383736,223.630866 59.8979492,222.283203 C60.9575248,220.93554 61.4873047,218.928724 61.4873047,216.262695 C61.4873047,213.635729 60.9624076,211.643561 59.9125977,210.286133 C58.8627877,208.928704 57.297862,208.25 55.2177734,208.25 C53.1181536,208.25 51.5336968,208.928704 50.4643555,210.286133 C49.3950142,211.643561 48.8603516,213.635729 48.8603516,216.262695 L48.8603516,216.262695 Z M77.6005859,227 L77.6005859,205.583984 L81.1015625,205.583984 L81.1015625,227 L77.6005859,227 Z M105.769531,216.262695 C105.769531,219.749041 104.897958,222.458975 103.154785,224.392578 C101.411612,226.326182 98.9433753,227.292969 95.75,227.292969 C92.517562,227.292969 90.0346766,226.333506 88.3012695,224.414551 C86.5678624,222.495596 85.7011719,219.768572 85.7011719,216.233398 C85.7011719,212.698225 86.5727452,209.983408 88.315918,208.088867 C90.0590907,206.194326 92.5468588,205.24707 95.7792969,205.24707 C98.9629065,205.24707 101.423819,206.208975 103.162109,208.132812 C104.900399,210.05665 105.769531,212.766584 105.769531,216.262695 L105.769531,216.262695 Z M89.421875,216.262695 C89.421875,218.899427 89.9540962,220.898919 91.0185547,222.26123 C92.0830131,223.623542 93.6601458,224.304687 95.75,224.304687 C97.8300885,224.304687 99.399897,223.630866 100.459473,222.283203 C101.519048,220.93554 102.048828,218.928724 102.048828,216.262695 C102.048828,213.635729 101.523931,211.643561 100.474121,210.286133 C99.4243112,208.928704 97.8593854,208.25 95.7792969,208.25 C93.679677,208.25 92.0952202,208.928704 91.0258789,210.286133 C89.9565376,211.643561 89.421875,213.635729 89.421875,216.262695 L89.421875,216.262695 Z M118.162109,227 L118.162109,205.583984 L121.663086,205.583984 L121.663086,227 L118.162109,227 Z M146.331055,216.262695 C146.331055,219.749041 145.459481,222.458975 143.716309,224.392578 C141.973136,226.326182 139.504899,227.292969 136.311523,227.292969 C133.079085,227.292969 130.5962,226.333506 128.862793,224.414551 C127.129386,222.495596 126.262695,219.768572 126.262695,216.233398 C126.262695,212.698225 127.134269,209.983408 128.877441,208.088867 C130.620614,206.194326 133.108382,205.24707 136.34082,205.24707 C139.52443,205.24707 141.985343,206.208975 143.723633,208.132812 C145.461923,210.05665 146.331055,212.766584 146.331055,216.262695 L146.331055,216.262695 Z M129.983398,216.262695 C129.983398,218.899427 130.51562,220.898919 131.580078,222.26123 C132.644537,223.623542 134.221669,224.304687 136.311523,224.304687 C138.391612,224.304687 139.96142,223.630866 141.020996,222.283203 C142.080572,220.93554 142.610352,218.928724 142.610352,216.262695 C142.610352,213.635729 142.085454,211.643561 141.035645,210.286133 C139.985835,208.928704 138.420909,208.25 136.34082,208.25 C134.2412,208.25 132.656744,208.928704 131.587402,210.286133 C130.518061,211.643561 129.983398,213.635729 129.983398,216.262695 L129.983398,216.262695 Z M158.723633,227 L158.723633,205.583984 L162.224609,205.583984 L162.224609,227 L158.723633,227 Z M186.892578,216.262695 C186.892578,219.749041 186.021005,222.458975 184.277832,224.392578 C182.534659,226.326182 180.066422,227.292969 176.873047,227.292969 C173.640609,227.292969 171.157724,226.333506 169.424316,224.414551 C167.690909,222.495596 166.824219,219.768572 166.824219,216.233398 C166.824219,212.698225 167.695792,209.983408 169.438965,208.088867 C171.182138,206.194326 173.669906,205.24707 176.902344,205.24707 C180.085953,205.24707 182.546866,206.208975 184.285156,208.132812 C186.023446,210.05665 186.892578,212.766584 186.892578,216.262695 L186.892578,216.262695 Z M170.544922,216.262695 C170.544922,218.899427 171.077143,220.898919 172.141602,222.26123 C173.20606,223.623542 174.783193,224.304687 176.873047,224.304687 C178.953135,224.304687 180.522944,223.630866 181.58252,222.283203 C182.642095,220.93554 183.171875,218.928724 183.171875,216.262695 C183.171875,213.635729 182.646978,211.643561 181.597168,210.286133 C180.547358,208.928704 178.982432,208.25 176.902344,208.25 C174.802724,208.25 173.218267,208.928704 172.148926,210.286133 C171.079584,211.643561 170.544922,213.635729 170.544922,216.262695 L170.544922,216.262695 Z M199.285156,227 L199.285156,205.583984 L202.786133,205.583984 L202.786133,227 L199.285156,227 Z M227.454102,216.262695 C227.454102,219.749041 226.582528,222.458975 224.839355,224.392578 C223.096183,226.326182 220.627946,227.292969 217.43457,227.292969 C214.202132,227.292969 211.719247,226.333506 209.98584,224.414551 C208.252433,222.495596 207.385742,219.768572 207.385742,216.233398 C207.385742,212.698225 208.257316,209.983408 210.000488,208.088867 C211.743661,206.194326 214.231429,205.24707 217.463867,205.24707 C220.647477,205.24707 223.10839,206.208975 224.84668,208.132812 C226.58497,210.05665 227.454102,212.766584 227.454102,216.262695 L227.454102,216.262695 Z M211.106445,216.262695 C211.106445,218.899427 211.638667,220.898919 212.703125,222.26123 C213.767583,223.623542 215.344716,224.304687 217.43457,224.304687 C219.514659,224.304687 221.084467,223.630866 222.144043,222.283203 C223.203619,220.93554 223.733398,218.928724 223.733398,216.262695 C223.733398,213.635729 223.208501,211.643561 222.158691,210.286133 C221.108881,208.928704 219.543956,208.25 217.463867,208.25 C215.364247,208.25 213.779791,208.928704 212.710449,210.286133 C211.641108,211.643561 211.106445,213.635729 211.106445,216.262695 L211.106445,216.262695 Z M239.84668,227 L239.84668,205.583984 L243.347656,205.583984 L243.347656,227 L239.84668,227 Z M268.015625,216.262695 C268.015625,219.749041 267.144052,222.458975 265.400879,224.392578 C263.657706,226.326182 261.189469,227.292969 257.996094,227.292969 C254.763656,227.292969 252.28077,226.333506 250.547363,224.414551 C248.813956,222.495596 247.947266,219.768572 247.947266,216.233398 C247.947266,212.698225 248.818839,209.983408 250.562012,208.088867 C252.305184,206.194326 254.792953,205.24707 258.025391,205.24707 C261.209,205.24707 263.669913,206.208975 265.408203,208.132812 C267.146493,210.05665 268.015625,212.766584 268.015625,216.262695 L268.015625,216.262695 Z M251.667969,216.262695 C251.667969,218.899427 252.20019,220.898919 253.264648,222.26123 C254.329107,223.623542 255.90624,224.304687 257.996094,224.304687 C260.076182,224.304687 261.645991,223.630866 262.705566,222.283203 C263.765142,220.93554 264.294922,218.928724 264.294922,216.262695 C264.294922,213.635729 263.770025,211.643561 262.720215,210.286133 C261.670405,208.928704 260.105479,208.25 258.025391,208.25 C255.925771,208.25 254.341314,208.928704 253.271973,210.286133 C252.202631,211.643561 251.667969,213.635729 251.667969,216.262695 L251.667969,216.262695 Z" id="IO-IO-IO-IO-IO-IO"></path>
            </g>
            <g id="key" transform="translate(90.000000, 44.000000)" sketch:type="MSShapeGroup">
                <path d="M41,148.726468 L41,159 L33.3233704,159 L33.3233704,168 L41,168 L41,174 L33.3233704,174 L33.3233704,183 L41,183 L41,203.85589 L34.367148,205.40954 L34.367148,220.095409 L41,221.333498 L41,234 L64,234 C76.7053422,234 87,223.703748 87,211.002677 L87,126.18253 C112.071562,117.165974 130,93.1766925 130,65 C130,29.1014913 100.898509,0 65,0 C29.1014913,0 0,29.1014913 0,65 C0,90.4085638 14.5788298,112.41206 35.8278255,123.101823 L35.8278255,144.334757 L41,148.726468 Z M64,65 C74.4934102,65 83,56.4934102 83,46 C83,35.5065898 74.4934102,27 64,27 C53.5065898,27 45,35.5065898 45,46 C45,56.4934102 53.5065898,65 64,65 Z" id="Oval-844" fill="#FFFFFF"></path>
                <rect id="Rectangle-877" fill="#F7F7F7" x="57" y="126" width="10" height="108"></rect>
                <rect id="Rectangle-877-Copy" fill="#E7E7E7" x="64" y="126" width="3" height="108"></rect>
                <circle id="Oval-858" stroke="#E7E7E7" stroke-width="5" cx="63.5" cy="46.5" r="18.5"></circle>
                <path d="M47.6467529,88.8853761 C46.6834505,88.8853761 45.9375905,89.2472971 45.4091504,89.97115 C44.8807102,90.6950029 44.6164941,91.7037029 44.6164941,92.9972803 C44.6164941,95.6890223 45.6265703,97.0348731 47.6467529,97.0348731 C48.4944589,97.0348731 49.5210486,96.8229497 50.7265526,96.3990967 L50.7265526,98.545874 C49.7357274,98.9587179 48.6293224,99.1651367 47.4073046,99.1651367 C45.6513421,99.1651367 44.3082436,98.6325761 43.3779687,97.567439 C42.4476939,96.5023018 41.9825635,94.9734263 41.9825635,92.9807667 C41.9825635,91.7257213 42.2110003,90.626197 42.6678808,89.6821607 C43.1247614,88.7381244 43.7811733,88.0142824 44.6371362,87.5106129 C45.4930991,87.0069434 46.4962947,86.7551124 47.6467529,86.7551124 C48.8192294,86.7551124 49.9971929,87.0385943 51.1806786,87.6055665 L50.354995,89.6862891 C49.9036191,89.4716103 49.4494977,89.2844573 48.9926171,89.1248243 C48.5357366,88.9651913 48.0871197,88.8853761 47.6467529,88.8853761 L47.6467529,88.8853761 Z M63.9127195,92.9477393 C63.9127195,94.9459036 63.4173143,96.4816597 62.4264891,97.5550537 C61.4356638,98.6284478 60.0155022,99.1651367 58.1659618,99.1651367 C56.3164213,99.1651367 54.8962597,98.6284478 53.9054345,97.5550537 C52.9146092,96.4816597 52.419204,94.9403991 52.419204,92.9312256 C52.419204,90.9220522 52.9159853,89.3876722 53.9095629,88.3280396 C54.9031404,87.2684071 56.3274304,86.7385987 58.1824754,86.7385987 C60.0375205,86.7385987 61.4563059,87.2725355 62.4388743,88.3404249 C63.4214427,89.4083143 63.9127195,90.9440705 63.9127195,92.9477393 L63.9127195,92.9477393 Z M55.1026757,92.9477393 C55.1026757,94.2963626 55.358635,95.3119432 55.8705614,95.9945117 C56.3824878,96.6770803 57.1476136,97.0183594 58.1659618,97.0183594 C60.2081627,97.0183594 61.2292479,95.6614996 61.2292479,92.9477393 C61.2292479,90.2284744 60.2136672,88.8688624 58.1824754,88.8688624 C57.1641272,88.8688624 56.3962492,89.2115177 55.8788182,89.8968385 C55.3613873,90.5821593 55.1026757,91.599116 55.1026757,92.9477393 L55.1026757,92.9477393 Z M76.4300827,92.8486573 C76.4300827,94.8358124 75.8644951,96.3578072 74.7333029,97.4146875 C73.6021107,98.4715678 71.9686497,99 69.8328708,99 L66.4145408,99 L66.4145408,86.928506 L70.2044284,86.928506 C72.1750698,86.928506 73.7053214,87.4486814 74.7952292,88.4890479 C75.885137,89.5294145 76.4300827,90.982603 76.4300827,92.8486573 L76.4300827,92.8486573 Z M73.7713815,92.914712 C73.7713815,90.3220525 72.6264451,89.0257423 70.3365378,89.0257423 L68.9741599,89.0257423 L68.9741599,96.88625 L70.0723191,96.88625 C72.538373,96.88625 73.7713815,95.5624172 73.7713815,92.914712 L73.7713815,92.914712 Z M85.8841598,99 L78.931904,99 L78.931904,86.928506 L85.8841598,86.928506 L85.8841598,89.0257423 L81.4915231,89.0257423 L81.4915231,91.6761866 L85.5786568,91.6761866 L85.5786568,93.7734229 L81.4915231,93.7734229 L81.4915231,96.88625 L85.8841598,96.88625 L85.8841598,99 Z" id="CODE" fill="#D8D8D8"></path>
            </g>
            <path d="M157.935083,72.0649351 C157.935083,74.7904962 155.72558,77 153.000019,77 C150.274457,77 148.064954,74.7904962 148.064954,72.0649351 C148.064954,72.0086201 148.065897,71.9525254 148.067768,71.896666 L148.067768,1 L157.937898,1 L157.937898,72.0649351 L157.935083,72.0649351 Z" id="Oval-19" fill="#2C1B3D" sketch:type="MSShapeGroup"></path>
            <g id="key" transform="translate(80.000000, 39.000000)"></g>
            <path d="M233.694997,285.652434 L233.694997,211.659339 L76.694997,211.659339 L76.694997,284.461901 C99.8881939,298.543413 127.100587,306.654069 156.19238,306.654069 C184.45423,306.654069 210.942381,298.999577 233.694997,285.652434 Z" id="gradient-" opacity="0.387709888" fill="url(#linearGradient-3)" sketch:type="MSShapeGroup" transform="translate(155.194997, 259.156704) scale(1, -1) rotate(-180.000000) translate(-155.194997, -259.156704) "></path>
        </g>
    </g>
</svg>
