<?xml version="1.0" encoding="UTF-8" standalone="no"?>
<svg width="100%" height="100%" viewBox="0 0 1954 613" version="1.1" xmlns="http://www.w3.org/2000/svg" xmlns:xlink="http://www.w3.org/1999/xlink" xml:space="preserve" xmlns:sketch="http://www.bohemiancoding.com/sketch/ns" style="fill-rule:evenodd;clip-rule:evenodd;stroke-linejoin:round;stroke-miterlimit:1.41421;">
    <g id="Page-1" stroke="none" stroke-width="1" fill="none" fill-rule="evenodd" sketch:type="MSPage">
        <g id="observatory" sketch:type="MSLayerGroup">
            <path d="M1152.311,8.76 C1214.671,24.02 1261.011,80.32 1261.011,147.36 C1261.011,151.04 1260.871,154.69 1260.601,158.31 L1261.011,158.31 L1261.941,370.66 L975.661,371.02 L975.661,158.31 L976.071,158.31 C975.801,154.69 975.661,151.04 975.661,147.36 C975.661,81.16 1020.841,25.43 1082.031,9.36 L1082.031,105.67 L1152.311,105.67 L1152.311,8.76 L1152.311,8.76 Z" id="Shape" fill="#FFF6FF" sketch:type="MSShapeGroup" transform="translate(1118.801000, 189.890000) scale(-1, 1) translate(-1118.801000, -189.890000) "></path>
            <path d="M925.002125,245.109611 L925.244533,245.109611 L925.244533,370.659212 L756.534484,370.659212 L756.534484,245.109611 L756.776892,245.109611 C756.617257,242.969326 756.534484,240.811303 756.534484,238.635544 C756.534484,192.081385 794.332393,154.283476 840.892464,154.283476 C887.446623,154.283476 925.244533,192.081385 925.244533,238.635544 C925.244533,240.811303 925.161759,242.969326 925.002125,245.109611 L925.002125,245.109611 Z" id="Shape" fill="#FFF6FF" sketch:type="MSShapeGroup"></path>
            <path d="M1118.261,157.57 L1118.261,370.88 L975.591,370.82 L975.591,104.93 L1009.561,104.93 L1009.981,8.13 L1010.281,8.2 L1011.041,8.4 L1011.361,8.48 L1011.831,8.6 L1012.191,8.69 L1012.631,8.81 L1012.991,8.91 L1013.421,9.03 L1013.781,9.13 L1014.231,9.25 L1014.571,9.35 L1015.091,9.49 L1015.361,9.57 L1016.111,9.79 L1016.421,9.89 L1016.891,10.03 L1017.241,10.13 L1017.671,10.27 L1018.031,10.38 L1018.461,10.51 L1018.811,10.62 L1019.251,10.76 L1019.581,10.87 L1020.121,11.05 L1020.351,11.12 L1020.431,11.15 L1021.101,11.37 L1021.411,11.48 L1021.871,11.63 L1022.211,11.75 L1022.641,11.9 L1022.981,12.02 L1023.411,12.17 L1023.751,12.3 L1024.201,12.46 L1024.511,12.57 L1025.091,12.79 L1025.261,12.85 L1025.401,12.9 L1026.011,13.13 L1026.321,13.24 L1026.761,13.41 L1027.101,13.54 L1027.521,13.71 L1027.861,13.84 L1028.281,14.01 L1028.611,14.14 L1029.061,14.32 L1029.361,14.44 L1030.011,14.71 L1030.091,14.74 L1030.271,14.82 L1030.831,15.05 L1031.131,15.18 L1031.581,15.37 L1031.901,15.51 L1032.321,15.69 L1032.651,15.83 L1033.071,16.02 L1033.391,16.16 L1033.841,16.36 L1034.121,16.49 L1034.841,16.81 L1035.041,16.9 L1035.571,17.15 L1035.861,17.29 L1036.301,17.49 L1036.611,17.64 L1037.031,17.84 L1037.351,17.99 L1037.771,18.19 L1038.071,18.34 L1038.541,18.57 L1038.791,18.7 L1039.501,19.05 L1039.711,19.15 L1040.211,19.41 L1040.501,19.56 L1040.931,19.78 L1041.231,19.94 L1041.651,20.15 L1041.951,20.31 L1042.371,20.54 L1042.661,20.69 L1043.141,20.94 L1043.371,21.07 L1044.061,21.44 L1044.271,21.56 L1044.761,21.83 L1045.041,21.99 L1045.461,22.23 L1045.761,22.39 L1046.171,22.63 L1046.461,22.79 L1046.881,23.04 L1047.161,23.19 L1047.651,23.48 L1047.851,23.6 L1048.531,24 L1048.741,24.13 L1049.211,24.41 L1049.481,24.58 L1049.901,24.83 L1050.181,25.01 L1050.591,25.26 L1050.871,25.43 L1051.291,25.69 L1051.551,25.86 L1052.061,26.18 L1052.221,26.28 L1052.891,26.71 L1053.101,26.85 L1053.561,27.15 L1053.821,27.32 L1054.231,27.59 L1054.501,27.77 L1054.911,28.04 L1055.171,28.22 L1055.601,28.51 L1055.841,28.67 L1056.381,29.04 L1056.491,29.12 L1057.141,29.57 L1057.351,29.72 L1057.801,30.03 L1058.051,30.21 L1058.461,30.5 L1058.711,30.68 L1059.121,30.97 L1059.371,31.16 L1059.801,31.47 L1060.011,31.63 L1060.611,32.07 L1060.651,32.1 L1061.291,32.58 L1061.491,32.73 L1061.931,33.06 L1062.171,33.25 L1062.571,33.55 L1062.821,33.74 L1063.221,34.05 L1063.451,34.24 L1063.881,34.58 L1064.081,34.73 L1064.701,35.23 L1064.711,35.24 L1065.331,35.73 L1065.521,35.89 L1065.951,36.24 L1066.171,36.43 L1066.571,36.75 L1066.801,36.94 L1067.201,37.28 L1067.421,37.46 L1067.861,37.83 L1068.031,37.98 L1068.641,38.5 L1068.681,38.54 L1069.241,39.02 L1069.431,39.19 L1069.841,39.55 L1070.061,39.74 L1070.451,40.09 L1070.671,40.28 L1071.061,40.64 L1071.271,40.82 L1071.711,41.23 L1071.861,41.36 L1072.451,41.91 L1072.521,41.97 L1073.041,42.45 L1073.221,42.62 L1073.621,43 L1073.831,43.2 L1074.211,43.56 L1074.411,43.76 L1074.801,44.13 L1074.991,44.32 L1075.441,44.76 L1075.561,44.87 L1076.141,45.44 L1076.221,45.52 L1076.711,46.01 L1076.881,46.18 L1077.271,46.58 L1077.471,46.78 L1077.841,47.16 L1078.031,47.36 L1078.421,47.76 L1078.591,47.94 L1079.061,48.43 L1079.141,48.52 L1079.701,49.11 L1079.791,49.21 L1080.251,49.7 L1080.411,49.88 L1080.791,50.29 L1080.981,50.49 L1081.341,50.89 L1081.521,51.09 L1081.901,51.52 L1082.061,51.69 L1082.541,52.23 L1082.591,52.29 L1083.131,52.9 L1083.221,53.01 L1083.651,53.51 L1083.811,53.69 L1084.181,54.12 L1084.351,54.33 L1084.711,54.75 L1084.881,54.94 L1085.261,55.4 L1085.391,55.56 L1085.901,56.17 L1085.901,56.18 L1086.421,56.82 L1086.521,56.94 L1086.931,57.44 L1087.081,57.63 L1087.431,58.08 L1087.591,58.28 L1087.941,58.72 L1088.101,58.92 L1088.471,59.4 L1088.591,59.55 L1089.081,60.19 L1089.581,60.85 L1089.671,60.98 L1090.061,61.49 L1090.201,61.68 L1090.541,62.15 L1090.691,62.35 L1091.031,62.81 L1091.171,63.01 L1091.541,63.52 L1091.641,63.66 L1092.121,64.33 L1092.591,64.99 L1092.681,65.13 L1093.051,65.66 L1093.181,65.85 L1093.511,66.33 L1093.651,66.53 L1093.981,67.02 L1094.101,67.21 L1094.471,67.75 L1094.551,67.88 L1095.011,68.57 L1095.451,69.25 L1095.551,69.4 L1095.891,69.93 L1096.011,70.13 L1096.331,70.62 L1096.461,70.83 L1096.771,71.33 L1096.891,71.52 L1097.251,72.1 L1097.311,72.2 L1097.751,72.92 L1098.161,73.61 L1098.261,73.77 L1098.581,74.31 L1098.701,74.51 L1098.991,75.02 L1099.111,75.22 L1099.411,75.75 L1099.521,75.93 L1099.871,76.55 L1099.921,76.63 L1100.331,77.37 L1100.721,78.08 L1100.811,78.24 L1101.111,78.79 L1101.221,78.99 L1101.501,79.52 L1101.611,79.72 L1101.901,80.27 L1102.001,80.44 L1102.351,81.12 L1102.371,81.16 L1102.761,81.92 L1102.771,81.94 L1103.121,82.64 L1103.211,82.81 L1103.491,83.37 L1103.591,83.58 L1103.851,84.11 L1103.961,84.32 L1104.231,84.89 L1104.311,85.06 L1104.661,85.78 L1104.661,85.79 L1105.021,86.56 L1105.051,86.61 L1105.361,87.3 L1105.441,87.48 L1105.701,88.04 L1105.801,88.26 L1106.041,88.8 L1106.131,89.01 L1106.391,89.6 L1106.461,89.76 L1106.791,90.51 L1107.121,91.3 L1107.151,91.37 L1107.431,92.05 L1107.511,92.24 L1107.751,92.81 L1107.841,93.02 L1108.061,93.59 L1108.141,93.79 L1108.391,94.4 L1108.451,94.56 L1108.751,95.33 L1109.051,96.12 L1109.091,96.22 L1109.341,96.88 L1109.411,97.08 L1109.621,97.66 L1109.701,97.88 L1109.911,98.45 L1109.991,98.66 L1110.211,99.29 L1110.261,99.44 L1110.541,100.23 L1110.811,101.02 L1110.851,101.15 L1111.071,101.8 L1111.141,102.01 L1111.331,102.59 L1111.401,102.82 L1111.591,103.4 L1111.651,103.61 L1111.861,104.27 L1111.901,104.4 L1112.151,105.21 L1112.391,106.01 L1112.431,106.16 L1112.621,106.8 L1112.681,107.02 L1112.851,107.61 L1112.921,107.84 L1113.081,108.43 L1113.141,108.64 L1113.331,109.32 L1113.361,109.44 L1113.581,110.27 L1113.791,111.08 L1113.831,111.25 L1113.991,111.88 L1114.051,112.11 L1114.191,112.69 L1114.251,112.93 L1114.401,113.53 L1114.451,113.75 L1114.611,114.45 L1114.641,114.56 L1114.831,115.4 L1115.011,116.21 L1115.051,116.4 L1115.181,117.03 L1115.231,117.27 L1115.351,117.86 L1115.401,118.1 L1115.531,118.71 L1115.571,118.93 L1115.711,119.65 L1115.731,119.75 L1115.891,120.6 L1115.901,120.64 L1116.041,121.42 L1116.081,121.63 L1116.181,122.24 L1116.231,122.5 L1116.321,123.08 L1116.371,123.34 L1116.471,123.95 L1116.501,124.17 L1116.621,124.92 L1116.631,125 L1116.761,125.86 L1116.771,125.96 L1116.881,126.69 L1116.911,126.92 L1116.991,127.52 L1117.031,127.8 L1117.101,128.37 L1117.141,128.64 L1117.211,129.25 L1117.241,129.48 L1117.331,130.25 L1117.341,130.32 L1117.431,131.18 L1117.451,131.33 L1117.521,132.02 L1117.551,132.28 L1117.601,132.86 L1117.631,133.15 L1117.681,133.72 L1117.711,134.01 L1117.761,134.61 L1117.781,134.85 L1117.841,135.65 L1117.851,135.7 L1117.911,136.56 L1117.921,136.76 L1117.971,137.41 L1117.991,137.69 L1118.021,138.26 L1118.041,138.57 L1118.071,139.13 L1118.081,139.43 L1118.111,140.03 L1118.121,140.28 L1118.161,141.11 L1118.161,141.13 L1118.191,142 L1118.191,142.24 L1118.211,142.85 L1118.221,143.16 L1118.231,143.71 L1118.241,144.04 L1118.251,144.59 L1118.251,144.9 L1118.261,145.49 L1118.261,145.76 L1118.261,146.62 C1118.261,149.61 1118.171,152.58 1117.991,155.53 L1117.991,155.56 L1117.941,156.21 L1117.921,156.54 L1117.901,156.89 L1117.851,157.57 L1118.261,157.57 L1118.261,157.57 Z" id="Shape" fill="#68557C" sketch:type="MSShapeGroup" transform="translate(1046.926000, 189.505000) scale(-1, 1) translate(-1046.926000, -189.505000) "></path>
            <path d="M836.387437,241.638587 L836.73474,370.761473 L755.158272,370.670377 L755.158272,154.17504 L755.682074,154.17504 C798.406098,154.442634 835.23735,193.551286 836.353276,233.069869 C836.37605,233.844185 836.387437,234.624195 836.387437,235.404204 C836.387437,237.499412 836.307728,239.57754 836.154003,241.638587 L836.387437,241.638587 L836.387437,241.638587 Z" id="Shape" fill="#68557C" sketch:type="MSShapeGroup" transform="translate(795.946506, 262.468256) scale(-1, 1) translate(-795.946506, -262.468256) "></path>
            <path d="M1261.941,161.2 L1246.911,161.2 L1246.911,370.94 L1261.941,370.94 L1261.941,161.2 L1261.941,161.2 Z M1198.111,161.2 L1183.081,161.2 L1183.081,370.94 L1198.111,370.94 L1198.111,161.2 L1198.111,161.2 Z M1134.291,161.2 L1119.261,161.2 L1119.261,370.94 L1134.291,370.94 L1134.291,161.2 L1134.291,161.2 Z M1166.201,161.2 L1151.171,161.2 L1151.171,370.94 L1166.201,370.94 L1166.201,161.2 L1166.201,161.2 Z M1230.021,161.2 L1214.991,161.2 L1214.991,370.94 L1230.021,370.94 L1230.021,161.2 L1230.021,161.2 Z" id="Shape" fill="#E3E3E3" sketch:type="MSShapeGroup" transform="translate(1190.601000, 266.070000) scale(-1, 1) translate(-1190.601000, -266.070000) "></path>
            <path d="M1118.361,161.2 L1103.331,161.2 L1103.331,370.94 L1118.361,370.94 L1118.361,161.2 L1118.361,161.2 Z M1054.531,161.2 L1039.501,161.2 L1039.501,370.94 L1054.531,370.94 L1054.531,161.2 L1054.531,161.2 Z M990.711,161.2 L975.681,161.2 L975.681,370.94 L990.711,370.94 L990.711,161.2 L990.711,161.2 Z M1022.621,161.2 L1007.591,161.2 L1007.591,370.94 L1022.621,370.94 L1022.621,161.2 L1022.621,161.2 Z M1086.441,161.2 L1071.411,161.2 L1071.411,370.94 L1086.441,370.94 L1086.441,161.2 L1086.441,161.2 Z" id="Shape" fill="#59456B" sketch:type="MSShapeGroup" transform="translate(1047.021000, 266.070000) scale(-1, 1) translate(-1047.021000, -266.070000) "></path>
            <rect id="Rectangle-path" fill="#E3E3E3" sketch:type="MSShapeGroup" transform="translate(1190.599972, 154.278310) scale(-1, 1) translate(-1190.599972, -154.278310) " x="1119.26211" y="147.359161" width="142.675734" height="13.8382982"></rect>
            <rect id="Rectangle-path" fill="#59456B" sketch:type="MSShapeGroup" transform="translate(1047.019972, 154.278310) scale(-1, 1) translate(-1047.019972, -154.278310) " x="975.682105" y="147.359161" width="142.675734" height="13.8382982"></rect>
            <rect id="Rectangle-path" fill="#FFF6FF" sketch:type="MSShapeGroup" x="925.246334" y="234.86" width="50.3441624" height="31.217"></rect>
            <rect id="Rectangle-path" fill="#68557C" sketch:type="MSShapeGroup" x="925.241" y="258.74616" width="50.345" height="7.32094879"></rect>
            <rect id="Rectangle-path" fill="#59456B" sketch:type="MSShapeGroup" transform="translate(1120.816139, 38.059018) scale(-1, 1) translate(-1120.816139, -38.059018) " x="1093.90707" y="22.3971354" width="53.8181353" height="31.3237655"></rect>
            <rect id="Rectangle-path" fill="#59456B" sketch:type="MSShapeGroup" transform="translate(1120.223733, 79.462292) scale(-1, 1) translate(-1120.223733, -79.462292) " x="1097.02945" y="53.3868086" width="46.3885737" height="52.1509663"></rect>
            <rect id="Rectangle-path" fill="#68557C" sketch:type="MSShapeGroup" transform="translate(1120.703783, 28.177076) scale(-1, 1) translate(-1120.703783, -28.177076) " x="1093.96382" y="22.5490918" width="53.4799249" height="11.2559692"></rect>
            <rect id="Rectangle-path" fill="#FFF6FF" sketch:type="MSShapeGroup" transform="translate(1165.753522, 53.353119) scale(-1, 1) translate(-1165.753522, -53.353119) " x="1155.5914" y="0.0057632" width="20.3242415" height="106.694712"></rect>
            <rect id="Rectangle-path" fill="#59456B" sketch:type="MSShapeGroup" transform="translate(1070.629573, 52.805311) scale(-1, 1) translate(-1070.629573, -52.805311) " x="1065.7686" y="0.01248" width="9.7219391" height="105.585662"></rect>
            <rect id="Rectangle-path" fill="#68557C" sketch:type="MSShapeGroup" transform="translate(1081.433218, 52.923527) scale(-1, 1) translate(-1081.433218, -52.923527) " x="1075.48145" y="0.25224" width="11.9035372" height="105.342575"></rect>
            <rect id="Rectangle-path" fill="#E3E3E3" sketch:type="MSShapeGroup" transform="translate(1159.412860, 53.064402) rotate(90.000000) translate(-1159.412860, -53.064402) " x="1106.37365" y="48.692055" width="106.07841" height="8.74469503"></rect>
            <path d="M0.004,612.486 C116.335,473.006 286.556597,380.446 479.778597,370.606 L1298.911,370.606 C1442.071,370.606 1574.831,415.496 1683.871,491.956 C1790.111,493.986 1885.671,539.976 1953.091,612.486 L0.004,612.486 Z" id="Shape" fill="#1D0D2E" sketch:type="MSShapeGroup"></path>
        </g>
    </g>
</svg>
