<svg width="149px" height="320px" viewBox="0 0 149 320" version="1.1" xmlns="http://www.w3.org/2000/svg">
    <g class="tile" transform="matrix(1,0,0,1,-217.351,-80.0287)">
        <g id="gas">
            <g transform="matrix(-0.848851,2.73011e-16,-2.73011e-16,-0.848851,274.874,484.658)">
                <clipPath id="_clip1">
                    <path d="M7.504,207.889C7.45,208.363 7.423,208.845 7.423,209.333C7.423,216.329 13.094,222 20.089,222C27.085,222 32.756,216.329 32.756,209.333C32.756,208.709 32.711,208.096 32.624,207.496C36.277,205.274 38.717,201.255 38.717,196.667C38.717,189.671 33.046,184 26.05,184C23.743,184 21.58,184.617 19.717,185.695C17.854,184.617 15.691,184 13.384,184C6.388,184 0.717,189.671 0.717,196.667C0.717,201.54 3.469,205.771 7.504,207.889Z"/>
                </clipPath>
                <g clip-path="url(#_clip1)">
                    <rect id="test" x="0" y="184" width="39" height="38" style="fill:rgba(255, 255, 255, 0.8);fill-rule:nonzero;"/>
                </g>
            </g>
            <g transform="matrix(-0.848851,2.73011e-16,-2.73011e-16,-0.848851,338.951,484.658)">
                <clipPath id="_clip2">
                    <path d="M7.504,207.889C7.45,208.363 7.423,208.845 7.423,209.333C7.423,216.329 13.094,222 20.089,222C27.085,222 32.756,216.329 32.756,209.333C32.756,208.709 32.711,208.096 32.624,207.496C36.277,205.274 38.717,201.255 38.717,196.667C38.717,189.671 33.046,184 26.05,184C23.743,184 21.58,184.617 19.717,185.695C17.854,184.617 15.691,184 13.384,184C6.388,184 0.717,189.671 0.717,196.667C0.717,201.54 3.469,205.771 7.504,207.889Z"/>
                </clipPath>
                <g clip-path="url(#_clip2)">
                    <rect id="test1" x="0" y="184" width="39" height="38" style="fill:rgba(255, 255, 255, 0.8);fill-rule:nonzero;"/>
                </g>
            </g>
        </g>
        <g id="spaceship-body">
            <g id="flames" transform="matrix(1,0,0,1,-241.649,-66.9842)">
                <g transform="matrix(0.808233,0,0,0.808233,102.32,41.9207)">
                    <path d="M533.567,525.917L493.646,446.075C488.49,438.414 485.479,429.192 485.479,419.272C485.479,392.731 507.027,371.184 533.567,371.184C560.107,371.184 581.655,392.731 581.655,419.272C581.655,429.192 578.644,438.414 573.488,446.075L533.567,525.917Z" style="fill:rgb(32,253,195);"/>
                </g>
                <g transform="matrix(0.437667,0,0,0.437667,300.043,200.139)">
                    <path d="M533.567,525.917L493.646,446.075C488.49,438.414 485.479,429.192 485.479,419.272C485.479,392.731 507.027,371.184 533.567,371.184C560.107,371.184 581.655,392.731 581.655,419.272C581.655,429.192 578.644,438.414 573.488,446.075L533.567,525.917Z" style="fill:rgb(206,255,242);"/>
                </g>
            </g>
            <g id="reactor">
                <g transform="matrix(1.83744,0,0,1,-626.487,-68.6583)">
                    <rect x="484.479" y="347.975" width="30.701" height="4.935" style="fill:rgb(157,135,177);"/>
                </g>
                <g transform="matrix(1.83744,0,0,0.527337,-626.487,100.751)">
                    <rect x="484.479" y="347.975" width="30.701" height="4.935" style="fill:rgb(116,95,135);"/>
                </g>
            </g>
            <g transform="matrix(1,0,0,1,-520.859,-75.9842)">
                <path d="M861.331,264.165C863.238,298.33 881.953,336.322 881.953,336.322L881.896,336.313C885.139,341.898 886.996,348.384 886.996,355.301L738.21,355.301C738.21,348.384 740.067,341.898 743.31,336.313L743.254,336.322C743.254,336.322 765.025,292.125 763.996,256.204C763.955,254.756 764.034,253.329 764.223,251.925L764.223,204.589C764.223,177.873 786.071,156.013 812.775,156.013C839.482,156.013 861.331,177.873 861.331,204.589L861.331,264.165Z" style="fill:white;"/>
            </g>
            <g id="heart-window" transform="matrix(0.903575,-0.242112,0.242112,0.903575,270.576,125.675)">
                <clipPath id="_clip3">
                    <path d="M26.136,4.962C27.799,4.517 29.343,4.459 30.761,4.79C32.178,5.12 33.503,5.729 34.736,6.616C35.968,7.503 36.972,8.564 37.745,9.798C38.52,11.032 39.041,12.416 39.309,13.946C39.576,15.478 39.514,16.984 39.118,18.461C38.765,19.777 38.008,21.027 36.849,22.213C35.689,23.4 34.204,24.542 32.389,25.64C30.574,26.737 28.698,27.812 26.758,28.864C24.818,29.915 22.589,31.204 20.07,32.731C17.551,34.259 15.302,35.808 13.323,37.382C12.396,35.03 11.229,32.565 9.823,29.985C8.416,27.407 7.134,25.176 5.981,23.297C4.826,21.416 3.739,19.547 2.717,17.689C1.696,15.832 0.978,14.099 0.567,12.491C0.155,10.884 0.128,9.425 0.481,8.109C0.877,6.631 1.583,5.298 2.606,4.112C3.627,2.927 4.793,1.995 6.103,1.319C7.416,0.645 8.838,0.233 10.371,0.088C11.905,-0.059 13.363,0.079 14.745,0.499C16.129,0.918 17.416,1.739 18.607,2.962C19.8,4.186 20.701,5.719 21.312,7.565C22.863,6.274 24.471,5.406 26.136,4.962Z"/>
                </clipPath>
                <g clip-path="url(#_clip3)">
                    <path d="M-0.195,-8.687L48.101,4.254L36.195,48.687L-12.101,35.746L-0.195,-8.687Z" style="fill:rgb(32,253,195);fill-rule:nonzero;"/>
                </g>
            </g>
        </g>
    </g>
</svg>
