<?xml version="1.0" encoding="UTF-8" standalone="no"?>
<svg viewBox="0 0 308 308" version="1.1" xmlns="http://www.w3.org/2000/svg" xmlns:xlink="http://www.w3.org/1999/xlink" xmlns:sketch="http://www.bohemiancoding.com/sketch/ns">
    <defs>
        <radialGradient cx="23.6416597%" cy="91.7143269%" fx="23.6416597%" fy="91.7143269%" r="98.3396289%" id="radialGradient-1">
            <stop stop-color="#4C436C" offset="0%"></stop>
            <stop stop-color="#784376" offset="100%"></stop>
        </radialGradient>
        <linearGradient x1="73.8874216%" y1="26.2256184%" x2="26.3444903%" y2="72.6532615%" id="linearGradient-2">
            <stop stop-color="#FFFFFF" offset="0%"></stop>
            <stop stop-color="#FFFFFF" stop-opacity="0" offset="100%"></stop>
        </linearGradient>
    </defs>
    <g id="Welcome" stroke="none" stroke-width="1" fill="none" fill-rule="evenodd" sketch:type="MSPage">
        <g id="Imported-Layers-Copy-11-+-Path-8499-+-Group-Copy-5" sketch:type="MSLayerGroup" transform="translate(-1.000000, 0.000000)">
            <g id="Imported-Layers-Copy-11" transform="translate(0.933574, 0.500000)" sketch:type="MSShapeGroup">
                <path d="M307.321883,153.825528 C307.321883,238.543034 238.542058,307.322928 153.824552,307.322928 C69.1070314,307.322928 0.32716961,238.543034 0.32716961,153.825528 C0.32716961,69.108023 69.1070314,0.328198134 153.824552,0.328198134 C238.542058,0.328198134 307.321883,69.108023 307.321883,153.825528 Z" id="Fill-1" fill="url(#radialGradient-1)"></path>
                <polygon id="Polygon-249" fill="#3A3353" transform="translate(207.025467, 153.803312) rotate(-195.000000) translate(-207.025467, -153.803312) " points="242.889083 70.8736019 258.961376 156.804548 237.75893 236.733023 179.610368 226.505004 155.089558 151.037709 "></polygon>
                <polygon id="Polygon-249-Copy-2" fill="#3A3353" points="156.078468 81.8988082 162.90516 121.234571 162.90516 153.38007 126.308874 153.38007 115 118.574934 "></polygon>
                <path d="M208.963877,176.22671 L213.565179,177.895515 L221.587888,189.997793 L230.653761,217.716539 L201.508547,217.716539 L196.476596,201.066461 L208.963877,176.22671 Z" id="Polygon-249-Copy" fill="#3A3353" transform="translate(213.565178, 196.971625) rotate(-195.000000) translate(-213.565178, -196.971625) "></path>
                <path d="M184.726502,80.3576736 C184.92482,83.9000773 204.817284,82.648901 204.817284,82.648901 L199.595163,57 L190.207363,66.6750398 L183.99373,67.7994696 C183.99373,67.7994696 184.63181,78.6659562 184.726502,80.3576736 Z" id="Fill-4" fill="#3A3453"></path>
                <path d="M113.648413,270.870189 L175.126048,267.529745 L220,282.170197 C217.008509,283.008527 158.204273,320.286024 82.7785479,281.595623 C82.4243882,281.413952 82.0518915,281.268029 81.6880329,281.101936 C81.1995288,280.878938 103.083329,252.072376 103.083329,252.072376 L113.648413,270.870189 L113.648413,270.870189 Z" id="Fill-5" fill="#3A3453"></path>
                <path d="M170.401204,8.0738077 C170.407873,8.02873856 170.417308,8.00612509 170.429666,8.00730688 C217.113974,12.473227 245.125894,36.6603471 258.823236,51.7629683 C265.535591,59.1639771 268.692872,64.5015376 268.692872,64.5015376 L230.787588,56.4924076 L188.459441,28.8883373 L181.756669,32.8622157 L197.989345,43.2232642 L187.462247,64.6189978 C187.462247,64.6189978 181.02889,64.4075695 172.821688,66.2433258 C166.772217,67.5963564 158.379044,71.1953501 157.971744,70.9917002 C157.011792,70.5117243 128.725668,40.5249814 128.725668,40.5249814 C123.478147,33.6008843 125.29104,26.813968 133.054171,20.1427048 L147.707616,8 L170.380954,8 L170.401204,8.0738077 Z" id="Fill-6" opacity="0.570895522" fill="#3A3453"></path>
                <path d="M266.553647,68 L267.72128,79.8286087 L252.934638,80.3556525 C254.627419,72.5051977 259.558846,68.9001836 266.553647,68 L266.553647,68 Z" id="Fill-7-Copy" fill="#3A3453" transform="translate(260.327959, 74.177826) rotate(63.000000) translate(-260.327959, -74.177826) "></path>
                <path d="M28.2644352,151.592927 L45.2636894,162.248154 L32.2322199,166.996909 L28.2644352,151.592927 L28.2644352,151.592927 Z" id="Fill-8" fill="#3A3453"></path>
                <path d="M10.9230611,165.316805 C10.9230611,165.316805 12.3978102,184.31815 18.2357062,198.304235 C24.0736021,212.290239 35.0302377,198.616792 35.0302377,198.616792 L45.975117,175.382674 L25.3274372,169.336828 L19.7903661,179.979732 L10.9230611,165.316805 L10.9230611,165.316805 Z" id="Fill-10" opacity="0.557369403" fill="#3A3453"></path>
            </g>
            <g id="Path-8499-+-Group-Copy-5" transform="translate(65.433574, 105.500000)" sketch:type="MSShapeGroup">
                <path d="M97.8922366,108.66779 L50.0229376,156.486822 L1.20510716,97.9478832 L43.2841366,55.1624092" id="Path-8499" opacity="0.875466418" fill="url(#linearGradient-2)" transform="translate(49.548672, 105.824616) rotate(-1.000000) translate(-49.548672, -105.824616) "></path>
                <g id="Group-Copy-2" transform="translate(30.839987, 0.010726)">
                    <g id="Group">
                        <path d="M0.89579573,120.479979 L9.96405785,91.150115 C10.5035543,88.0209746 11.950081,85.0132414 14.3142763,82.5470483 C20.6392966,75.9487983 31.1500049,75.7094692 37.771005,82.0123338 C44.3921509,88.3151983 44.6327529,98.7893303 38.3077326,105.38758 C35.9435373,107.853773 32.9946689,109.431341 29.8825817,110.111425 L0.89579573,120.479979 L0.89579573,120.479979 Z" id="Fill-13-Copy" fill="#62FED5"></path>
                        <path d="M13.8466944,107.659504 L18.3279258,93.1656675 C18.5945269,91.6193512 19.3093519,90.1330302 20.477658,88.9143202 C23.6032712,85.653686 28.7973111,85.5354176 32.0691876,88.6500822 C35.341136,91.7647467 35.4600335,96.9407118 32.3344203,100.201346 C31.1661142,101.420056 29.7088823,102.199637 28.170993,102.535712 L13.8466944,107.659504 L13.8466944,107.659504 Z" id="Fill-13" fill="#EBFFFA"></path>
                        <path d="M48.612947,91.828348 L27.5702287,71.7967747 L25.8116302,73.6312702 L46.8543485,93.6628435 L48.612947,91.828348 L48.612947,91.828348 Z" id="Fill-14" fill="#4C436C"></path>
                        <path d="M88.6779028,65.1759404 C77.2149686,78.5530364 70.6580856,99.3213351 70.6580856,99.3213351 L70.6400609,99.2977659 C69.8595636,102.525406 68.2410617,105.595855 65.7762581,108.167076 L10.2755949,55.3333584 C12.7403985,52.7621375 15.7443213,51.0105141 18.9442267,50.0860911 L18.9200984,50.0695547 C18.9200984,50.0695547 42.7903075,41.3712158 55.2064516,27.6530327 C55.7071372,27.1002986 56.245112,26.597839 56.8159889,26.1430879 L73.6835617,8.54711793 C83.2035497,-1.3839434 99.1428991,-1.75164081 109.104158,7.73094182 C119.066466,17.2144748 119.427055,33.099022 109.907162,43.0299882 L88.6779028,65.1759404 L88.6779028,65.1759404 Z" id="Fill-16" fill="#FFFFFF"></path>
                    </g>
                    <circle id="Oval-817" fill="#2C1B3D" cx="92" cy="26" r="18"></circle>
                    <path d="M99.2785351,18.2928631 C104.853572,18.3199133 110.258636,20.8974983 110.258636,19.1780035 C110.258636,15.7922762 105.342677,13.047602 99.2785351,13.047602 C93.2143928,13.047602 88.2984341,15.7922762 88.2984341,19.1780035 C88.2984341,20.8442359 93.8761885,18.2666508 99.2785351,18.2928631 Z" id="Oval-818" fill="#8D8496" transform="translate(99.278535, 16.408259) rotate(38.000000) translate(-99.278535, -16.408259) "></path>
                </g>
            </g>
        </g>
    </g>
</svg>
