<?xml version="1.0" standalone="no"?>
<!DOCTYPE svg PUBLIC "-//W3C//DTD SVG 1.1//EN" "http://www.w3.org/Graphics/SVG/1.1/DTD/svg11.dtd">
<svg width="100%" height="100%" viewBox="0 0 49 99" version="1.1" xmlns="http://www.w3.org/2000/svg" xmlns:xlink="http://www.w3.org/1999/xlink" xml:space="preserve" style="fill-rule:evenodd;clip-rule:evenodd;stroke-linejoin:round;stroke-miterlimit:1.41421;">
    <g transform="matrix(1,0,0,1,-25.5772,11.9727)">
        <g id="Fill-13-Copy" transform="matrix(0.694658,-0.71934,0.71934,0.694658,-20.1888,49.4241)">
            <path d="M23.019,76.533L28.718,58.155C29.057,56.194 29.966,54.31 31.451,52.765C35.426,48.63 42.03,48.48 46.191,52.429C50.351,56.379 50.503,62.942 46.528,67.076C45.043,68.621 43.19,69.61 41.234,70.036L23.019,76.533Z" style="fill:rgb(98,254,213);fill-opacity:0.894118;"/>
        </g>
        <g id="Fill-13" transform="matrix(0.694658,-0.71934,0.71934,0.694658,-20.1557,49.4264)">
            <path d="M31.136,68.474L33.952,59.393C34.119,58.424 34.569,57.492 35.303,56.729C37.267,54.686 40.531,54.612 42.587,56.563C44.643,58.515 44.717,61.758 42.753,63.801C42.019,64.565 41.103,65.053 40.137,65.264L31.136,68.474Z" style="fill:rgb(235,255,250);fill-opacity:0.894118;"/>
        </g>
        <g id="Fill-14" transform="matrix(0.694658,-0.71934,0.71934,0.694658,-19.9448,49.411)">
            <path d="M52.825,58.414L39.602,45.862L38.497,47.012L51.72,59.563L52.825,58.414Z" style="fill:rgb(76,67,108);"/>
        </g>
        <g id="Fill-16" transform="matrix(0.694658,-0.71934,0.71934,0.694658,-19.5229,49.386)">
            <path d="M77.69,41.428C70.487,49.809 66.366,62.822 66.366,62.822L66.355,62.808C65.865,64.83 64.848,66.754 63.299,68.365L28.423,35.26C29.972,33.649 31.86,32.552 33.87,31.973L33.855,31.962C33.855,31.962 48.855,26.512 56.657,17.916C56.972,17.57 57.31,17.255 57.668,16.97L68.268,5.945C74.25,-0.278 84.266,-0.508 90.525,5.434C96.785,11.376 97.012,21.329 91.03,27.551L77.69,41.428Z" style="fill:white;"/>
        </g>
        <g id="Oval-817" transform="matrix(0.694658,-0.71934,0.71934,0.694658,-19.0819,49.3746)">
            <ellipse cx="79.463" cy="16.571" rx="11.311" ry="11.278" style="fill:rgb(44,27,61);"/>
        </g>
        <g id="Oval-818" transform="matrix(0.694658,-0.71934,0.71934,0.694658,-18.983,49.3572)">
            <path d="M82.935,11.869C85.685,14.033 87.365,17.39 88.03,16.541C89.34,14.87 87.967,11.618 84.964,9.279C81.962,6.939 78.466,6.398 77.156,8.07C76.511,8.893 80.27,9.772 82.935,11.869Z" style="fill:rgb(141,132,150);fill-opacity:0.337255;"/>
        </g>
    </g>
</svg>
